<?xml version="1.0" standalone="no"?>
<!DOCTYPE svg PUBLIC "-//W3C//DTD SVG 20010904//EN"
 "http://www.w3.org/TR/2001/REC-SVG-20010904/DTD/svg10.dtd">
<svg version="1.0" xmlns="http://www.w3.org/2000/svg"
 width="1079.000000pt" height="720.000000pt" viewBox="0 0 1079.000000 720.000000"
 preserveAspectRatio="xMidYMid meet">

<g transform="translate(0.000000,720.000000) scale(0.100000,-0.100000)"
fill="#000000" stroke="none">
<path d="M0 6393 l0 -806 24 -31 c13 -18 31 -52 39 -77 9 -25 25 -65 36 -90
59 -132 72 -163 96 -235 30 -89 44 -104 94 -104 39 0 125 -21 156 -37 28 -15
125 -31 230 -38 50 -3 105 -8 123 -11 45 -7 49 11 19 104 -14 42 -28 100 -32
127 -3 28 -13 71 -21 96 -8 25 -17 54 -19 65 -6 26 -82 251 -116 344 -15 41
-60 174 -99 295 -40 121 -88 261 -107 310 -34 88 -145 314 -189 385 -35 58
-185 391 -189 419 -1 14 2 32 8 39 7 9 4 18 -11 32 -12 11 -26 20 -32 20 -7 0
-10 -254 -10 -807z"/>
<path d="M100 7185 c-18 -22 -6 -54 51 -131 59 -79 77 -98 399 -422 l235 -237
149 2 c144 3 151 4 200 32 28 16 77 34 109 41 58 13 71 29 44 53 -28 26 -74
54 -119 73 -60 24 -66 52 -10 46 20 -3 39 -8 42 -12 7 -10 152 -41 223 -47 55
-5 57 -5 57 19 0 17 -24 49 -76 104 -41 43 -102 107 -135 142 -36 37 -59 70
-57 80 8 43 182 80 288 60 61 -11 122 -7 127 8 2 6 -30 27 -71 47 -41 20 -84
49 -95 63 -22 29 -27 59 -11 69 31 19 -3 25 -143 25 l-153 0 4 -105 c3 -72 1
-105 -7 -105 -26 0 -114 97 -138 153 l-26 57 -437 0 c-375 0 -439 -2 -450 -15z"/>
<path d="M1888 7193 c6 -2 18 -2 25 0 6 3 1 5 -13 5 -14 0 -19 -2 -12 -5z"/>
<path d="M1968 7193 c6 -2 18 -2 25 0 6 3 1 5 -13 5 -14 0 -19 -2 -12 -5z"/>
<path d="M2258 7153 c-24 -52 -114 -194 -145 -230 -10 -12 -39 -49 -63 -84
-54 -75 -146 -185 -180 -217 -41 -37 -118 -73 -171 -79 -57 -7 -62 -11 -82
-82 -15 -53 -15 -55 8 -96 14 -23 32 -77 41 -121 9 -43 19 -81 23 -84 16 -13
73 -140 108 -240 14 -41 23 -55 76 -112 22 -23 47 -80 47 -105 0 -26 87 -91
166 -124 38 -16 79 -34 91 -40 12 -7 28 -9 37 -6 8 3 48 45 88 93 40 48 118
140 173 204 55 63 125 145 155 180 30 36 61 72 70 80 9 8 59 67 112 131 53 64
112 129 130 144 109 90 227 209 282 284 36 47 94 115 131 151 37 36 85 92 108
125 41 60 133 181 152 200 5 6 23 25 39 43 l30 32 -702 0 -702 0 -22 -47z"/>
<path d="M8197 7083 c-9 -65 -19 -149 -22 -188 -7 -93 -38 -264 -92 -515 -59
-273 -72 -345 -83 -470 -12 -141 -25 -203 -55 -269 -20 -42 -28 -82 -35 -171
-9 -113 -20 -184 -39 -247 -5 -17 -9 -67 -9 -110 0 -43 -12 -145 -26 -228 -33
-195 -50 -320 -50 -372 0 -28 -5 -43 -13 -43 -31 0 -9 -19 30 -25 23 -4 49
-11 57 -15 8 -4 28 -10 44 -14 27 -7 28 -6 15 10 -12 16 -12 17 1 9 8 -4 22
-14 30 -20 8 -7 22 -12 31 -12 27 1 79 -24 79 -37 0 -7 -4 -16 -8 -22 -23 -26
-64 -186 -78 -309 l-7 -60 -11 37 c-13 43 -22 40 -53 -17 -21 -39 -50 -56 -62
-37 -3 5 -21 17 -40 27 -26 13 -35 14 -41 4 -6 -9 -18 -9 -53 0 -25 6 -59 11
-76 11 l-29 0 15 -31 c9 -18 24 -34 34 -36 10 -3 15 -11 13 -18 -7 -18 9 -26
62 -30 25 -2 52 -9 59 -15 8 -7 23 -9 35 -5 14 5 20 2 20 -9 0 -9 6 -16 13
-16 22 0 47 -34 47 -62 0 -14 7 -31 15 -38 16 -13 21 -55 6 -45 -5 3 -12 1
-16 -5 -3 -5 -1 -10 4 -10 6 0 11 -15 12 -32 l1 -33 10 34 c5 19 13 95 18 170
l8 136 -3 -155 c-1 -88 -10 -196 -19 -250 -33 -189 -37 -227 -38 -367 0 -79
-2 -143 -4 -143 -1 0 -76 22 -165 50 -147 45 -189 56 -189 47 0 -7 -51 -259
-75 -372 -35 -165 -59 -289 -94 -495 -51 -295 -63 -372 -72 -460 -5 -47 -14
-125 -19 -175 -5 -49 -21 -137 -36 -195 -14 -58 -28 -143 -29 -190 -2 -47 -7
-108 -10 -137 l-6 -51 53 -11 c29 -5 89 -17 133 -25 134 -26 481 -76 529 -76
37 0 43 3 40 18 -5 17 19 232 55 507 51 380 101 745 110 795 5 30 13 88 16
128 5 47 12 75 20 79 19 7 538 -60 1000 -128 191 -28 244 -39 250 -50 4 -5 2
-9 -4 -9 -16 0 -114 -100 -146 -148 -15 -23 -32 -42 -37 -42 -6 0 -7 26 -3 65
8 73 -7 90 -24 28 -44 -160 -82 -285 -91 -300 -9 -15 -10 -12 -6 16 4 19 9 66
12 105 5 66 4 69 -9 41 -7 -16 -31 -100 -52 -185 -41 -171 -50 -194 -70 -186
-9 3 -26 -20 -51 -67 -20 -40 -54 -101 -75 -137 -39 -67 -154 -189 -224 -238
-53 -36 -57 -40 -91 -92 -25 -40 -28 -54 -27 -120 1 -143 6 -162 49 -192 38
-25 39 -29 55 -120 11 -66 13 -97 5 -107 -7 -10 -6 -16 7 -26 10 -7 15 -19 12
-27 -3 -8 1 -35 9 -59 8 -23 11 -48 7 -54 -16 -19 -22 -65 -9 -63 18 4 22 -31
5 -50 -7 -9 -17 -24 -20 -34 -3 -9 -19 -19 -36 -23 -48 -10 -36 -23 16 -17
l46 5 -20 -29 c-14 -20 -46 -39 -96 -59 -42 -16 -71 -33 -65 -36 5 -3 -14 -10
-44 -14 -41 -5 -49 -9 -33 -15 11 -5 14 -9 7 -9 -8 -1 -27 -11 -44 -22 -27
-20 -34 -21 -104 -10 -93 14 -154 14 -154 1 0 -5 9 -10 20 -10 12 0 66 -11
122 -25 l101 -25 1223 0 1224 0 -1 3293 c-1 1837 -5 3277 -10 3257 -4 -19 -11
-75 -14 -125 -3 -49 -11 -127 -16 -172 -16 -119 -17 -130 -24 -218 -4 -46 -15
-99 -27 -125 -11 -25 -25 -55 -31 -68 -8 -18 -6 -26 10 -45 35 -39 47 -87 45
-177 -2 -93 -16 -172 -38 -207 -8 -13 -14 -35 -13 -50 3 -47 -27 -99 -98 -171
-60 -59 -88 -93 -115 -136 -4 -6 -13 -27 -21 -46 -8 -19 -20 -48 -27 -65 -21
-50 -30 -86 -19 -80 14 9 11 -4 -13 -72 -16 -45 -27 -63 -39 -63 -13 0 -22
-13 -30 -42 -6 -24 -19 -57 -30 -74 -25 -42 -63 -160 -84 -264 -9 -47 -18 -87
-20 -89 -2 -2 -95 -5 -207 -8 -416 -8 -770 0 -858 20 -36 8 -108 20 -160 27
-52 6 -162 22 -245 35 -82 13 -195 27 -250 31 -55 3 -118 8 -140 9 -22 2 -40
4 -40 5 0 2 -32 4 -71 5 -79 2 -141 24 -69 25 60 0 270 -19 288 -26 23 -8 33
22 56 164 11 65 29 169 40 232 36 207 101 624 121 780 6 41 14 100 20 130 5
30 18 111 29 180 33 201 66 404 124 750 31 179 62 372 71 430 9 58 19 113 22
123 5 16 -16 17 -344 17 l-349 0 -16 -117z m1773 -2853 c0 -5 -2 -10 -4 -10
-3 0 -8 5 -11 10 -3 6 -1 10 4 10 6 0 11 -4 11 -10z m-14 -93 c1 -9 -2 -17 -8
-17 -6 0 -8 6 -5 14 3 8 2 17 -4 20 -5 2 -4 3 2 2 7 -1 13 -10 15 -19z m-776
3 c0 -5 -4 -10 -10 -10 -5 0 -10 5 -10 10 0 6 5 10 10 10 6 0 10 -4 10 -10z
m80 -10 c0 -5 -4 -10 -10 -10 -5 0 -10 5 -10 10 0 6 5 10 10 10 6 0 10 -4 10
-10z m660 -30 c13 -8 12 -10 -3 -10 -10 0 -15 -4 -12 -10 9 -14 -6 -12 -35 6
l-25 15 28 -6 c19 -4 26 -2 22 5 -8 13 5 13 25 0z m-19 -41 c11 -5 17 -14 14
-20 -4 -5 5 -13 19 -19 33 -12 33 -15 -5 -16 -17 -1 -25 2 -19 6 17 10 -18 22
-44 15 -17 -5 -18 -4 -6 4 13 9 12 12 -7 17 -13 4 -21 13 -20 24 1 19 18 16
68 -11z m-1 -69 c8 -5 11 -10 5 -10 -5 0 -17 5 -25 10 -8 5 -10 10 -5 10 6 0
17 -5 25 -10z m-5 -30 c3 -6 -1 -7 -9 -4 -18 7 -21 14 -7 14 6 0 13 -4 16 -10z
m15 -30 c8 -5 11 -10 5 -10 -5 0 -17 5 -25 10 -8 5 -10 10 -5 10 6 0 17 -5 25
-10z m-1970 -145 c0 -14 -4 -25 -9 -25 -4 0 -6 11 -3 25 2 14 6 25 8 25 2 0 4
-11 4 -25z m500 -3720 c-24 -14 -90 -21 -77 -9 7 7 63 22 87 23 8 0 4 -6 -10
-14z"/>
<path d="M9850 4060 c8 -5 22 -9 30 -9 10 0 8 3 -5 9 -27 12 -43 12 -25 0z"/>
<path d="M3290 6453 c-8 -2 -21 -6 -28 -9 -9 -3 -7 -11 8 -32 22 -30 26 -31
244 -59 l38 -5 -41 41 c-37 37 -51 44 -117 57 -81 15 -81 15 -104 7z"/>
<path d="M1647 6020 c-3 -14 -12 -63 -21 -109 -9 -53 -24 -97 -41 -123 -29
-44 -30 -25 16 -243 43 -202 68 -389 79 -585 8 -144 15 -211 25 -227 26 -39
195 -85 195 -54 0 38 -63 435 -74 471 -8 25 -18 65 -21 90 -10 66 -52 214 -86
301 -16 42 -29 89 -29 105 -1 16 -7 46 -15 67 -13 38 -9 71 13 114 10 18 -3
110 -26 188 l-9 30 -6 -25z"/>
<path d="M1069 5861 c-8 -10 -48 -61 -90 -112 -159 -197 -168 -214 -125 -225
47 -12 83 -63 105 -153 27 -109 26 -147 -5 -267 -40 -152 -40 -159 -11 -179
28 -18 119 -45 154 -45 25 0 28 10 43 156 5 51 13 100 19 110 5 11 17 95 25
187 8 93 17 171 20 174 10 10 57 -28 78 -63 26 -45 42 -43 62 6 19 47 12 87
-15 95 -40 13 -79 57 -94 107 -8 28 -19 56 -25 63 -14 17 -19 57 -9 77 7 14 3
21 -23 34 -18 9 -44 25 -57 35 -30 24 -35 24 -52 0z"/>
<path d="M10413 5843 c-18 -7 -16 -50 2 -57 18 -7 65 10 65 23 0 35 -29 50
-67 34z"/>
<path d="M10216 5824 c-11 -29 -6 -44 19 -56 31 -14 85 6 85 32 0 33 -92 55
-104 24z"/>
<path d="M1 5295 l-1 -230 30 1 c50 2 52 3 45 22 -5 14 -4 15 6 5 7 -7 28 -13
47 -13 30 0 34 3 29 23 -6 28 -73 212 -91 252 -26 56 -55 130 -59 150 -3 11
-5 -83 -6 -210z"/>
<path d="M2022 5380 c-12 -32 -2 -115 23 -205 15 -57 41 -209 51 -305 4 -36
18 -96 31 -135 14 -38 27 -78 30 -87 3 -10 11 -18 17 -18 7 0 13 25 14 67 3
66 31 152 56 172 6 5 27 10 46 12 47 4 67 23 75 69 6 33 0 52 -30 113 -19 41
-55 95 -78 120 -24 24 -70 78 -102 118 -97 120 -115 131 -133 79z"/>
<path d="M23 5043 l-23 -4 0 -2360 c0 -1880 3 -2359 13 -2359 75 -1 585 55
647 70 19 5 60 11 90 15 30 3 143 22 250 40 107 19 256 41 330 50 74 9 146 21
159 26 127 52 921 105 1376 93 186 -5 223 -10 535 -68 300 -57 563 -84 598
-62 12 7 -9 39 -66 101 -10 11 -21 25 -25 31 -9 15 11 71 38 109 26 35 55 112
55 142 0 12 4 24 8 27 5 3 26 46 47 96 30 73 36 99 31 129 -4 24 -1 49 8 67
26 53 30 98 9 116 -17 16 -20 12 -62 -80 -24 -53 -58 -113 -76 -133 -18 -20
-38 -54 -45 -75 -22 -69 -84 -208 -101 -227 -9 -10 -20 -37 -23 -60 -8 -46
-38 -102 -61 -111 -19 -7 -77 13 -92 32 -19 24 -16 55 12 110 14 28 25 60 25
71 0 12 11 43 24 69 29 58 47 138 56 257 4 50 12 108 18 130 7 22 12 71 12
108 0 87 10 107 55 107 34 0 35 1 35 38 0 58 11 67 77 64 47 -2 65 -8 95 -32
34 -28 44 -30 135 -34 94 -4 119 -10 248 -61 15 -6 14 -3 -5 11 -36 28 -105
60 -175 80 -32 9 -70 28 -83 41 -13 13 -48 35 -78 48 -30 13 -54 29 -54 35 0
6 -21 21 -47 33 -27 13 -59 29 -73 37 -46 27 -85 36 -140 34 -44 -2 -59 1 -77
18 -12 12 -20 24 -18 29 11 16 -41 39 -88 39 -40 0 -47 3 -39 13 6 7 9 23 6
34 -4 14 2 29 15 42 16 16 20 29 16 66 -5 43 -4 45 22 45 33 0 55 28 42 52 -5
10 -32 29 -59 43 -42 21 -50 30 -50 53 0 15 5 33 11 39 18 18 -17 58 -89 101
-93 56 -112 76 -112 117 0 50 -20 133 -35 149 -16 16 -10 26 17 26 11 0 18 7
18 18 0 21 -27 62 -41 62 -6 0 -30 15 -54 34 -33 24 -41 36 -33 44 7 7 10 13
7 16 -7 6 -250 54 -309 61 -67 7 -86 21 -88 60 -1 17 -6 55 -12 85 -42 205
-45 254 -26 367 10 60 29 142 43 183 23 72 123 265 254 490 93 160 102 176 86
158 -17 -22 -27 -23 -27 -4 0 13 20 41 63 87 9 10 17 26 17 34 0 8 4 15 8 15
4 0 26 17 48 38 22 20 49 42 60 48 14 9 3 9 -46 2 -36 -5 -75 -6 -88 -3 -12 3
-31 1 -41 -5 -16 -8 -20 -6 -23 7 -4 22 -127 31 -140 11 -5 -9 -8 -9 -8 -1 0
14 -189 15 -208 0 -17 -13 -22 -6 -15 21 5 21 7 22 28 8 21 -14 24 -14 29 1 4
9 5 17 4 19 -5 4 -197 23 -253 25 -27 1 -62 6 -78 12 -19 7 -31 6 -41 -2 -11
-9 -15 -9 -18 1 -6 17 -112 25 -213 15 -44 -4 -96 -9 -115 -10 -19 -2 -41 1
-48 6 -9 7 -11 6 -6 -7 4 -11 1 -16 -12 -16 -11 0 -30 -3 -43 -7 -20 -5 -23
-3 -18 11 5 13 0 18 -24 23 -19 4 -27 9 -21 15 6 6 17 6 28 0 11 -5 25 -7 32
-5 6 3 12 0 12 -6 0 -6 5 -11 10 -11 6 0 10 6 10 13 0 18 -57 50 -65 37 -9
-15 -33 -12 -53 8 -22 20 -19 20 -205 27 -82 2 -153 7 -158 10 -21 14 -8 27
21 22 32 -7 42 11 18 30 -16 13 -205 48 -236 45 -12 -2 -35 4 -50 11 -55 29
-99 45 -172 62 -41 10 -101 26 -133 37 -31 10 -77 18 -101 18 -25 0 -48 5 -51
10 -3 6 -19 10 -34 10 -16 0 -44 6 -62 14 -19 7 -81 19 -139 25 -58 7 -111 18
-118 23 -7 6 -70 17 -139 24 -103 11 -133 18 -158 36 -24 18 -44 23 -100 23
-38 1 -80 0 -92 -2z m1522 -363 c3 -5 1 -10 -4 -10 -6 0 -11 5 -11 10 0 6 2
10 4 10 3 0 8 -4 11 -10z m-41 -29 c3 -5 -3 -11 -15 -14 -16 -4 -18 -3 -8 9
13 16 16 17 23 5z m46 -1 c0 -5 -7 -10 -16 -10 -8 0 -12 5 -9 10 3 6 10 10 16
10 5 0 9 -4 9 -10z m200 -120 c0 -5 -4 -10 -10 -10 -5 0 -10 5 -10 10 0 6 5
10 10 10 6 0 10 -4 10 -10z m240 0 c0 -5 -17 -13 -37 -18 -21 -5 -60 -14 -88
-21 -88 -20 -164 -15 -125 9 8 5 22 4 33 -2 20 -10 27 -9 142 26 60 18 75 19
75 6z m1100 -80 c0 -5 -2 -10 -4 -10 -3 0 -8 5 -11 10 -3 6 -1 10 4 10 6 0 11
-4 11 -10z m50 6 c0 -3 -4 -8 -10 -11 -5 -3 -10 -1 -10 4 0 6 5 11 10 11 6 0
10 -2 10 -4z m8 -266 c-7 -10 -14 -18 -15 -16 -6 6 9 36 18 36 5 0 4 -9 -3
-20z m-28 -40 c0 -5 -2 -10 -4 -10 -3 0 -8 5 -11 10 -3 6 -1 10 4 10 6 0 11
-4 11 -10z m-28 -42 c-7 -7 -12 -8 -12 -2 0 6 3 14 7 17 3 4 9 5 12 2 2 -3 -1
-11 -7 -17z m-56 -105 c-10 -10 -19 5 -10 18 6 11 8 11 12 0 2 -7 1 -15 -2
-18z m-2399 -1083 c12 -41 20 -85 17 -97 -2 -13 0 -23 6 -23 5 0 10 -4 10 -10
0 -23 -17 -7 -40 38 -13 26 -32 58 -42 71 -10 13 -18 34 -18 46 0 13 -7 26
-16 29 -26 10 -4 27 29 24 30 -3 33 -7 54 -78z m342 14 c2 -2 -4 -11 -13 -20
-16 -15 -18 -15 -36 1 -29 27 -24 38 13 30 17 -4 34 -9 36 -11z m394 -25 c39
-6 82 -15 95 -20 l24 -9 -30 -34 c-38 -44 -93 -152 -127 -252 -39 -113 -61
-151 -96 -169 -38 -20 -59 -6 -59 39 0 19 -8 38 -19 48 -17 14 -19 26 -15 85
3 37 9 86 14 108 5 22 12 73 15 114 4 40 9 79 12 87 6 17 85 19 186 3z m-403
-46 c0 -13 -3 -13 -15 -3 -8 7 -12 16 -9 21 8 13 24 1 24 -18z m1135 -49 c72
-9 133 -21 137 -27 4 -6 -3 -21 -16 -33 -12 -13 -36 -51 -54 -86 -41 -82 -90
-148 -109 -148 -11 0 -13 7 -8 30 4 17 4 44 0 60 -6 26 -11 30 -40 30 -24 0
-38 -6 -45 -20 -6 -11 -17 -20 -26 -20 -8 0 -17 -6 -20 -14 -9 -24 -37 -7 -29
18 3 11 8 46 11 76 9 93 12 115 14 125 1 6 2 13 1 18 -2 11 41 9 184 -9z
m-1405 -85 c0 -5 -4 -9 -10 -9 -5 0 -10 7 -10 16 0 8 5 12 10 9 6 -3 10 -10
10 -16z m1362 -356 c9 -10 33 -52 54 -93 22 -41 61 -102 87 -135 26 -33 60
-80 74 -105 15 -25 51 -76 80 -115 36 -47 60 -92 73 -135 64 -210 90 -266 148
-327 33 -34 84 -105 122 -171 35 -61 72 -114 81 -117 34 -11 35 -75 1 -75 -9
0 -55 -14 -102 -30 -61 -21 -104 -30 -152 -30 -38 0 -131 -14 -220 -34 -245
-54 -452 -80 -646 -79 -90 0 -89 -3 -87 255 1 191 -2 232 -17 283 -23 73 -17
102 31 157 40 46 70 94 138 226 23 46 51 95 61 110 35 49 110 207 127 268 20
67 47 124 70 148 21 21 58 20 77 -1z m-532 -358 c0 -9 -9 -15 -25 -15 -18 0
-23 4 -19 15 4 8 15 15 25 15 10 0 19 -7 19 -15z m-470 -530 c10 -12 10 -15
-4 -15 -9 0 -16 7 -16 15 0 8 2 15 4 15 2 0 9 -7 16 -15z m2405 -276 c-4 -17
-13 -42 -21 -57 -9 -17 -12 -42 -8 -67 3 -26 1 -46 -9 -59 -13 -18 -15 -18
-49 -2 -39 19 -51 43 -36 70 10 18 7 45 -7 78 -4 12 1 25 19 43 20 19 35 25
71 25 l47 0 -7 -31z"/>
<path d="M4152 4628 c-6 -6 -12 -32 -12 -55 0 -24 -7 -78 -15 -119 l-16 -75
27 -49 c26 -48 43 -57 42 -22 0 9 5 55 11 102 16 113 11 224 -9 228 -9 1 -21
-3 -28 -10z"/>
<path d="M4477 4598 c-3 -23 -1 -65 4 -93 7 -34 6 -65 -2 -98 -12 -52 -10 -61
13 -52 11 5 17 30 22 97 11 157 9 188 -13 188 -14 0 -20 -10 -24 -42z"/>
<path d="M2160 4616 c0 -2 7 -6 15 -10 8 -3 15 -1 15 4 0 6 -7 10 -15 10 -8 0
-15 -2 -15 -4z"/>
<path d="M4746 4518 c-3 -7 -7 -26 -10 -41 -4 -15 -11 -25 -15 -22 -5 3 -14
-9 -20 -27 -13 -37 -14 -48 -2 -30 7 11 9 11 14 -2 4 -11 1 -16 -12 -16 -18 0
-71 -71 -71 -95 0 -25 18 -25 34 0 9 14 25 25 34 25 20 0 72 72 72 99 0 9 7
26 15 39 13 17 14 26 4 44 -11 21 -13 21 -19 4 -6 -18 -7 -18 -13 -2 -4 10 -5
22 -1 27 3 5 3 9 -1 9 -3 0 -7 -6 -9 -12z"/>
<path d="M5738 4437 c-55 -53 -112 -73 -146 -51 -13 9 -30 13 -37 10 -16 -6
-59 31 -69 58 -5 15 -9 16 -21 6 -8 -7 -15 -20 -15 -29 0 -14 -2 -14 -10 -1
-15 23 -12 -6 5 -55 13 -37 13 -66 -1 -31 -9 23 -23 20 -34 -9 l-9 -24 -58 29
-58 29 -13 -37 c-8 -20 -15 -53 -15 -72 -2 -34 -3 -35 -45 -38 -54 -4 -72 10
-72 56 0 25 -11 52 -37 89 -20 29 -38 52 -39 50 -2 -1 1 -19 6 -40 9 -42 -17
-178 -36 -184 -6 -2 -15 18 -20 44 l-10 48 -22 -71 c-33 -102 -113 -172 -235
-205 -39 -10 -80 -24 -89 -29 -24 -14 -48 -12 -79 4 -14 7 -40 11 -58 8 -31
-4 -32 -3 -22 17 7 11 16 21 21 21 6 0 10 7 10 15 0 9 -9 15 -21 15 -22 0 -49
-22 -49 -40 0 -7 -7 -10 -15 -6 -10 4 -15 -1 -15 -15 0 -11 -4 -17 -10 -14
-26 16 -1 95 47 147 14 14 23 32 20 40 -4 9 -6 7 -6 -4 -1 -12 -6 -15 -18 -11
-10 4 -14 2 -9 -5 3 -6 -4 -23 -17 -38 -23 -26 -24 -26 -42 -8 -13 13 -20 15
-23 6 -2 -6 -8 -12 -13 -12 -13 0 -11 34 4 50 10 12 9 12 -5 1 -9 -7 -22 -10
-28 -6 -5 3 -10 2 -10 -4 0 -5 6 -11 13 -14 21 -8 -28 -46 -55 -43 -21 2 -24
-1 -20 -21 3 -17 0 -24 -9 -22 -8 1 -32 -3 -54 -9 -73 -21 -281 -16 -309 7 -7
6 -15 8 -18 6 -3 -3 -18 -1 -33 5 -24 9 -32 7 -52 -11 -12 -13 -23 -18 -23
-13 0 13 -52 31 -112 39 -34 5 -48 4 -48 -4 0 -7 -4 -10 -9 -7 -5 4 -11 0 -14
-6 -3 -7 -5 2 -4 20 1 70 -18 47 -91 -114 -86 -188 -130 -336 -167 -563 -13
-77 -13 -102 1 -170 4 -20 7 -22 15 -10 5 7 9 9 9 4 0 -6 21 -12 46 -13 40 -1
44 0 34 13 -10 12 -10 15 2 15 8 0 20 11 26 24 13 30 -3 72 -31 80 -12 3 -17
13 -15 33 1 16 -1 34 -5 40 -4 7 -1 18 6 25 8 7 12 21 9 32 -4 15 -1 18 11 13
12 -4 17 -1 17 10 0 15 2 15 13 -2 8 -10 19 -15 26 -11 7 4 15 -3 21 -19 6
-16 14 -23 22 -19 6 4 8 3 5 -3 -11 -18 16 -59 36 -55 9 2 20 -3 23 -12 3 -8
12 -12 20 -9 12 4 13 1 3 -21 -11 -23 -9 -29 30 -67 22 -23 41 -45 41 -50 0
-5 7 -6 16 -2 8 3 27 0 42 -7 15 -7 43 -20 62 -29 19 -9 36 -19 38 -23 2 -5
14 -5 27 -2 15 4 30 -1 42 -13 10 -10 40 -34 66 -52 26 -19 47 -38 47 -43 0
-5 9 -6 20 -3 14 4 20 2 20 -9 0 -8 -8 -16 -17 -18 -15 -3 -14 -6 7 -26 13
-12 19 -22 13 -22 -6 0 -16 6 -22 14 -6 8 -20 16 -31 19 -16 4 -17 2 -7 -14
10 -16 6 -24 -26 -57 -32 -32 -37 -44 -37 -83 0 -37 5 -50 29 -73 29 -28 31
-28 118 -22 48 4 104 9 124 12 l35 5 18 -62 c9 -34 23 -71 31 -82 19 -27 45
-31 45 -7 0 13 5 17 20 13 11 -3 20 0 20 6 0 6 -6 11 -13 11 -20 0 -59 76 -60
116 -1 21 -6 34 -14 34 -15 0 -18 26 -3 35 6 3 10 -1 10 -10 0 -8 6 -18 14
-21 8 -3 12 -14 9 -27 -4 -17 -3 -19 6 -7 8 12 13 12 31 -5 19 -17 23 -18 48
-3 15 9 34 12 42 8 78 -37 95 -48 104 -65 6 -11 26 -43 44 -71 17 -28 32 -57
32 -65 0 -11 2 -11 10 1 6 10 10 11 10 3 0 -7 4 -13 10 -13 5 0 7 6 4 14 -3 8
0 17 5 21 8 4 5 15 -8 31 -19 24 -48 130 -39 140 3 2 11 -7 18 -20 13 -26 40
-43 40 -26 0 6 7 10 15 10 22 0 19 46 -5 70 -12 12 -18 26 -14 31 4 6 0 15 -7
20 -15 9 -15 9 75 9 109 0 176 -78 146 -170 -12 -35 -12 -43 0 -50 13 -8 17
-26 19 -87 1 -15 7 -23 19 -23 10 0 23 -5 30 -12 17 -17 26 15 12 43 -7 12
-16 34 -20 49 l-8 27 37 -13 c30 -10 37 -10 44 2 5 9 6 22 3 30 -3 8 1 26 10
40 12 18 25 24 53 24 79 0 142 -75 165 -197 10 -55 14 -64 20 -44 7 21 12 23
52 17 24 -3 44 -4 44 -1 0 3 -18 17 -40 31 -38 25 -51 56 -31 69 5 3 31 -8 58
-23 48 -29 104 -46 153 -47 14 0 31 -4 38 -8 6 -5 17 -5 22 -2 6 4 5 -5 -2
-19 -13 -30 -2 -50 13 -24 6 10 19 23 31 29 18 10 20 9 15 -5 -6 -15 -3 -15
29 -1 19 8 41 12 49 9 9 -4 18 1 21 11 4 9 18 21 32 26 20 8 34 4 76 -23 28
-17 61 -41 74 -52 12 -10 22 -15 22 -9 0 24 -494 352 -577 383 -30 11 -75 20
-101 21 -35 0 -42 3 -27 9 11 5 15 9 9 9 -5 1 -19 8 -30 17 -18 15 -17 15 13
10 18 -3 35 -1 38 4 4 6 18 7 33 4 72 -15 110 -29 106 -38 -2 -6 27 -26 66
-43 55 -27 82 -33 137 -34 37 0 62 -3 56 -6 -16 -6 -17 -43 -1 -43 6 0 20 -7
30 -17 14 -12 18 -13 18 -2 0 8 6 4 16 -9 8 -12 24 -22 35 -22 10 0 19 -5 19
-11 0 -6 7 -8 15 -5 10 4 20 -3 27 -19 6 -13 16 -22 21 -18 6 4 8 0 4 -11 -4
-9 -3 -15 2 -11 6 3 14 -2 19 -11 8 -14 13 -14 33 -4 20 10 22 10 12 -1 -14
-14 -17 -39 -5 -39 4 0 26 18 50 40 23 21 42 35 42 30 0 -12 53 4 58 18 2 7
-4 12 -13 12 -9 0 -13 5 -10 10 4 6 15 8 25 5 12 -4 22 0 28 11 5 9 23 23 41
30 30 13 32 12 52 -19 12 -18 32 -40 46 -50 l24 -19 -7 29 c-3 15 -22 43 -42
62 -21 19 -67 63 -103 98 -37 34 -71 63 -75 63 -5 0 -31 21 -57 45 -26 25 -55
45 -65 45 -15 0 -15 2 -2 10 13 8 13 10 0 10 -18 0 -105 93 -91 98 5 2 23 -11
39 -27 18 -20 39 -31 56 -31 23 0 26 -3 21 -21 -5 -16 -3 -20 6 -17 8 3 13 13
13 22 -3 27 11 18 23 -15 9 -22 17 -30 28 -26 10 4 15 1 15 -10 0 -9 3 -14 6
-10 11 11 73 -54 67 -71 -4 -10 -2 -13 5 -8 7 4 15 0 19 -11 3 -10 15 -26 25
-36 16 -16 19 -16 24 -2 5 12 9 13 21 3 11 -9 16 -9 24 3 7 11 11 12 18 1 6
-10 17 -4 45 25 19 21 36 41 36 46 0 4 7 7 15 7 10 0 15 10 15 30 0 17 -3 30
-7 30 -15 0 -33 53 -23 65 7 9 2 11 -20 10 -19 -1 -30 3 -30 12 0 7 -3 12 -7
11 -15 -3 -63 22 -63 32 0 6 -5 8 -12 4 -6 -4 -8 -3 -5 3 4 6 1 18 -6 27 -12
16 -16 14 -50 -23 -33 -37 -37 -39 -38 -19 0 13 -3 17 -6 11 -9 -24 -20 -13
-19 20 1 17 -3 44 -7 60 -5 20 -4 26 5 25 8 -2 12 5 10 17 -5 25 -21 45 -36
44 -7 0 -6 -2 2 -6 14 -6 16 -33 2 -33 -5 0 -16 13 -24 29 -13 23 -48 51 -52
39 0 -2 -8 3 -16 10 -13 10 -16 8 -21 -16 -5 -24 -10 -28 -36 -26 -24 1 -31
-3 -35 -22 -10 -38 -23 -28 -31 24 -9 61 -24 90 -36 71 -6 -10 -9 -11 -9 -1 0
6 -4 12 -10 12 -5 0 -10 -7 -10 -15 0 -8 -4 -15 -10 -15 -5 0 -10 5 -10 10 0
6 -5 10 -11 10 -6 0 -9 -6 -6 -14 8 -20 -25 -30 -35 -11 -5 8 -13 13 -18 10
-4 -3 -10 2 -14 10 -3 9 -12 12 -22 8 -12 -4 -15 -3 -10 5 5 8 1 10 -10 5 -13
-5 -16 -3 -11 10 4 11 1 17 -7 17 -7 0 -19 7 -26 15 -7 8 -21 15 -31 15 -11 0
-19 5 -19 11 0 12 -25 39 -37 39 -4 0 -16 -19 -27 -41 -14 -30 -22 -39 -35
-33 -9 3 -37 9 -63 11 -58 7 -63 26 -18 64 33 30 71 44 64 24 -7 -16 12 -29
21 -15 5 7 12 5 21 -7 13 -17 13 -17 14 0 0 9 -13 31 -30 49 -16 17 -30 35
-30 40 0 5 -4 6 -10 3 -5 -3 -10 -1 -10 4 0 6 -7 11 -15 11 -8 0 -17 11 -21
25 -3 14 -10 23 -14 20 -15 -10 -32 54 -26 103 4 37 2 52 -9 55 -8 4 -11 14
-8 26 3 12 1 21 -6 21 -6 0 -11 -5 -11 -12 0 -6 -3 -8 -6 -5 -4 4 -2 13 4 20
7 8 9 17 5 20 -3 4 11 6 31 5 43 -1 70 17 46 32 -82 51 -160 143 -160 190 0
24 30 7 55 -32 42 -64 142 -158 160 -151 9 3 25 -3 36 -13 19 -17 20 -17 13 2
-7 17 -6 18 11 4 17 -14 18 -14 6 8 -18 34 0 26 49 -20 25 -24 48 -42 53 -40
5 1 15 -2 21 -8 7 -5 15 -7 18 -5 3 3 11 -8 18 -25 7 -16 16 -30 21 -30 5 0 9
-7 9 -15 0 -51 154 -260 239 -326 25 -19 63 -51 85 -73 69 -65 139 -112 193
-131 29 -10 50 -22 47 -27 -3 -4 1 -5 9 -2 19 7 143 -56 180 -92 28 -25 67
-102 67 -128 0 -8 9 -25 20 -38 10 -14 16 -29 12 -33 -4 -5 -2 -5 5 -1 6 3 14
2 18 -3 10 -18 35 1 35 26 0 20 4 24 17 19 14 -6 14 -3 -3 16 -12 13 -32 42
-44 66 -13 23 -27 42 -31 42 -14 0 -19 33 -8 46 10 12 9 13 -5 8 -29 -11 -18
26 19 62 32 31 37 33 51 19 9 -8 20 -15 25 -15 6 0 -2 11 -17 24 -25 21 -30
22 -44 8 -13 -14 -15 -14 -18 1 -3 15 -6 15 -27 1 -26 -17 -44 -4 -21 16 8 6
14 24 14 41 -1 24 -3 27 -16 17 -8 -7 -18 -22 -22 -34 -7 -16 -15 -21 -29 -17
-26 7 -26 12 -3 30 15 13 15 13 -8 7 -14 -4 -31 -9 -39 -12 -10 -4 -12 -1 -6
8 5 8 4 11 -3 7 -5 -4 -17 -4 -26 -1 -18 7 -12 55 10 91 16 25 10 66 -12 84
-11 9 -11 15 2 40 18 35 12 37 -17 7 -20 -21 -21 -21 -14 -3 16 44 16 53 -6
74 -12 11 -47 27 -78 36 -87 24 -142 55 -192 109 -33 35 -51 47 -63 43 -9 -4
-26 -1 -38 6 -17 10 -22 9 -25 -1 -4 -10 -9 -8 -20 7 -8 12 -21 21 -29 21 -8
0 -14 4 -14 9 0 5 -8 11 -17 14 -10 4 -33 13 -52 22 -29 13 -32 13 -27 0 3 -8
1 -15 -4 -15 -6 0 -10 3 -10 8 0 18 -47 57 -67 56 -13 -1 -23 2 -23 7 0 5 -6
6 -14 3 -9 -3 -15 5 -19 25 -7 32 -27 43 -27 15 0 -8 5 -12 10 -9 6 3 10 2 10
-4 0 -5 -9 -9 -20 -8 -11 1 -20 7 -20 15 0 10 -4 10 -16 -2 -22 -22 -27 -20
-20 9 4 15 2 25 -5 25 -7 0 -8 11 -4 29 5 23 2 32 -17 45 -12 9 -32 16 -43 16
-11 0 -26 4 -34 9 -11 7 -6 12 20 18 19 5 34 15 34 22 0 19 45 40 86 41 67 0
245 -97 454 -250 72 -52 186 -132 255 -179 222 -150 308 -219 406 -330 73 -82
94 -113 94 -135 0 -16 -3 -26 -7 -23 -3 4 -12 -2 -20 -13 -8 -11 -22 -20 -32
-20 -12 0 -21 -10 -26 -27 -5 -21 -8 -24 -16 -12 -8 12 -10 12 -20 -1 -8 -11
-12 -12 -16 -3 -3 9 -15 5 -39 -13 -37 -28 -43 -44 -18 -44 8 0 12 4 9 10 -3
6 1 7 9 4 10 -4 16 -1 16 7 0 7 3 10 6 7 3 -4 -2 -20 -10 -37 -20 -38 -20 -47
0 -30 15 12 16 11 9 -10 -6 -20 -4 -22 13 -17 14 5 21 2 24 -9 3 -15 6 -14 27
4 28 25 54 27 75 6 8 -8 21 -15 29 -15 8 0 20 7 27 15 7 8 19 15 28 15 13 0
13 -2 -1 -18 -29 -31 -19 -35 13 -5 17 15 30 34 30 40 0 7 4 13 9 13 19 0 19
31 -1 82 -11 29 -20 61 -20 71 1 9 -3 17 -8 17 -5 0 -12 10 -15 21 -10 30 -68
108 -81 108 -22 2 -33 138 -13 158 17 17 12 128 -7 165 -12 23 -15 46 -11 84
3 29 1 56 -5 62 -11 11 6 52 21 52 10 0 54 70 48 76 -2 3 -24 -4 -48 -15 l-43
-20 -11 32 c-13 40 -24 40 -70 -2 -21 -19 -47 -35 -59 -37 -12 -1 -36 -6 -55
-10 -29 -6 -33 -5 -28 8 12 34 -26 56 -60 35 -16 -10 -33 0 -33 19 0 13 -8 15
-74 18 -11 1 -21 7 -24 14 -2 7 -8 10 -13 6 -5 -3 -9 0 -9 5 0 6 -9 11 -20 11
-13 0 -20 7 -20 19 0 21 -42 34 -79 24 -12 -3 -21 -2 -20 3 4 23 -3 26 -21 9
-20 -18 -21 -18 -21 11 -2 99 -4 114 -16 114 -6 0 -16 -8 -22 -17 -9 -17 -25
-12 -27 8 -1 5 -2 14 -3 19 0 6 -7 10 -15 10 -14 0 -62 80 -48 80 4 0 -1 7
-12 15 -13 10 -17 23 -14 44 4 26 2 29 -13 20 -10 -5 -22 -16 -27 -24 -7 -14
-12 -14 -41 1 -34 17 -37 32 -16 87 12 29 -11 19 -57 -26z m289 -319 c-3 -8
-6 -5 -6 6 -1 11 2 17 5 13 3 -3 4 -12 1 -19z m53 -58 c0 -5 -4 -10 -10 -10
-5 0 -10 5 -10 10 0 6 5 10 10 10 6 0 10 -4 10 -10z m45 0 c3 -5 -1 -10 -10
-10 -9 0 -13 5 -10 10 3 6 8 10 10 10 2 0 7 -4 10 -10z m-948 -374 c43 -16 56
-30 18 -20 -16 4 -36 7 -45 7 -18 0 -40 16 -40 29 0 6 8 7 18 3 9 -4 32 -13
49 -19z m90 -31 c13 -30 -1 -44 -16 -16 -6 11 -11 24 -11 30 0 19 15 11 27
-14z m730 -17 c-3 -8 -6 -5 -6 6 -1 11 2 17 5 13 3 -3 4 -12 1 -19z m138 -48
c-3 -5 -1 -10 4 -10 6 0 11 -9 11 -20 0 -24 -6 -25 -26 -6 -14 15 -9 46 8 46
5 0 6 -4 3 -10z m66 -63 c-10 -9 -11 -8 -5 6 3 10 9 15 12 12 3 -3 0 -11 -7
-18z m-2844 -29 c-3 -8 -6 -5 -6 6 -1 11 2 17 5 13 3 -3 4 -12 1 -19z m1858
-238 c-4 -12 1 -19 15 -23 11 -3 20 -13 20 -22 0 -11 5 -15 16 -11 10 4 21 -4
32 -24 9 -17 26 -33 37 -36 25 -9 37 -22 57 -64 20 -40 12 -62 -30 -79 -23
-10 -36 -9 -73 7 -58 25 -110 35 -190 35 -58 0 -66 2 -62 18 3 10 15 19 27 21
11 2 20 9 19 16 -2 7 8 12 26 12 32 0 46 13 35 32 -4 7 -8 21 -9 32 -1 12 -6
35 -10 51 -7 26 -6 28 7 17 19 -16 48 -5 48 17 0 23 9 31 26 24 9 -3 12 -13 9
-23z m1205 -54 c0 -11 -19 -15 -25 -6 -3 5 1 10 9 10 9 0 16 -2 16 -4z m40
-10 c0 -2 -7 -9 -15 -16 -13 -11 -14 -10 -9 4 5 14 24 23 24 12z m-2344 -213
c-8 -9 -35 10 -39 29 -5 19 -5 19 19 -3 13 -12 22 -24 20 -26z m30 -30 c-2 -2
-11 0 -20 3 -14 5 -15 9 -5 15 12 7 34 -10 25 -18z m14 -33 c0 -5 -2 -10 -4
-10 -3 0 -8 5 -11 10 -3 6 -1 10 4 10 6 0 11 -4 11 -10z m1689 -200 c0 -9 -2
-11 -5 -3 -3 7 -12 9 -20 6 -17 -6 -19 8 -2 25 14 14 28 -2 27 -28z m31 -15
c-7 -9 -15 -13 -17 -11 -7 7 7 26 19 26 6 0 6 -6 -2 -15z m50 -19 c0 -2 -7 -6
-15 -10 -8 -3 -15 -1 -15 4 0 6 7 10 15 10 8 0 15 -2 15 -4z"/>
<path d="M5530 4421 c0 -6 5 -13 10 -16 6 -3 10 1 10 9 0 9 -4 16 -10 16 -5 0
-10 -4 -10 -9z"/>
<path d="M3220 4287 l-23 -32 29 27 c15 15 26 30 23 33 -3 2 -16 -10 -29 -28z"/>
<path d="M4415 4281 c-2 -5 10 -15 28 -22 38 -15 70 -48 63 -65 -3 -8 1 -11
10 -7 9 3 12 13 9 23 -3 10 -1 21 5 25 15 9 12 25 -4 25 -8 0 -16 6 -19 13 -5
14 -84 21 -92 8z"/>
<path d="M4551 4239 c-13 -11 -21 -22 -18 -25 3 -3 16 3 28 15 29 27 21 35
-10 10z"/>
<path d="M4587 4190 c-10 -16 -22 -30 -26 -30 -5 0 -12 -8 -15 -17 -6 -14 -3
-14 16 3 30 25 57 57 58 67 0 17 -17 5 -33 -23z"/>
<path d="M7173 4162 c-8 -5 -9 -13 -3 -22 11 -17 23 -8 18 14 -2 9 -8 12 -15
8z"/>
<path d="M7212 4128 c-15 -15 -15 -38 -1 -58 9 -13 10 -13 6 1 -4 12 -1 15 13
12 15 -4 18 -1 13 16 -3 12 -1 21 6 21 6 0 11 5 11 10 0 14 -33 13 -48 -2z"/>
<path d="M7312 4088 c2 -13 9 -23 17 -23 23 0 23 19 0 33 -19 12 -20 11 -17
-10z"/>
<path d="M7125 4090 c-3 -5 -1 -18 4 -27 6 -10 11 -13 11 -6 0 6 3 18 6 27 7
17 -11 22 -21 6z"/>
<path d="M7156 4065 c4 -8 8 -15 10 -15 2 0 4 7 4 15 0 8 -4 15 -10 15 -5 0
-7 -7 -4 -15z"/>
<path d="M7961 4064 c0 -11 3 -14 6 -6 3 7 2 16 -1 19 -3 4 -6 -2 -5 -13z"/>
<path d="M7181 4044 c0 -11 3 -14 6 -6 3 7 2 16 -1 19 -3 4 -6 -2 -5 -13z"/>
<path d="M7710 4020 c0 -5 5 -10 11 -10 5 0 7 5 4 10 -3 6 -8 10 -11 10 -2 0
-4 -4 -4 -10z"/>
<path d="M6958 3928 c-14 -21 -13 -32 8 -124 25 -116 40 -213 50 -331 3 -46
10 -83 15 -83 5 0 9 42 9 94 0 96 11 127 30 84 9 -19 10 -17 6 15 -3 20 -1 35
4 32 4 -3 11 1 13 7 3 7 6 -10 6 -39 1 -28 6 -55 11 -58 6 -3 10 -1 10 6 0 7
6 4 14 -7 14 -18 15 -18 21 11 10 46 13 52 14 29 1 -12 7 -27 15 -33 11 -9 13
-2 10 41 l-3 53 12 -55 12 -55 3 43 c3 45 18 57 25 20 4 -22 4 -23 6 -1 1 16
6 20 21 16 14 -4 20 0 20 12 0 12 5 15 16 11 9 -3 21 -3 27 1 22 13 41 12 59
-4 13 -12 28 -14 60 -9 26 4 38 3 30 -2 -10 -7 -4 -13 21 -25 36 -17 114 -20
123 -5 3 4 14 3 25 -3 29 -15 56 -4 39 16 -10 12 -9 15 4 15 12 0 16 10 16 40
0 36 3 40 24 40 21 0 24 5 28 45 4 59 1 67 -22 55 -13 -7 -21 -5 -31 6 -7 8
-18 13 -26 10 -13 -5 -60 18 -73 35 -3 4 -32 9 -65 12 -33 3 -79 8 -102 11
-47 7 -55 -4 -23 -31 12 -11 20 -30 20 -50 0 -29 -3 -33 -27 -33 -33 0 -47 8
-58 35 -7 17 -9 14 -15 -17 -10 -57 -24 -69 -60 -51 -24 12 -33 12 -52 1 -13
-7 -26 -11 -30 -10 -5 1 -9 -13 -9 -31 -2 -30 -2 -30 -6 -4 -2 15 -9 27 -14
27 -6 0 -7 -4 -4 -10 3 -5 1 -10 -4 -10 -10 0 -12 6 -15 43 -1 6 -7 18 -13 25
-7 7 -13 20 -13 28 0 27 -20 14 -27 -16 l-6 -31 -18 31 c-10 16 -23 30 -29 30
-5 0 -10 9 -10 19 0 11 -4 21 -9 23 -5 2 -12 17 -15 34 -6 26 -4 32 12 36 23
6 82 -2 82 -11 0 -4 7 -8 15 -8 9 0 15 10 15 24 0 13 -4 23 -10 23 -5 0 -10
-5 -10 -11 0 -6 -7 -3 -16 5 -8 9 -18 16 -22 17 -15 2 -48 8 -73 14 -20 5 -29
2 -41 -17z m649 -210 c-3 -8 -6 -5 -6 6 -1 11 2 17 5 13 3 -3 4 -12 1 -19z
m-580 -30 c-3 -8 -6 -5 -6 6 -1 11 2 17 5 13 3 -3 4 -12 1 -19z m110 -75 c-3
-10 -5 -4 -5 12 0 17 2 24 5 18 2 -7 2 -21 0 -30z m487 22 c-4 -8 -10 -15 -15
-15 -5 0 -9 7 -9 15 0 8 7 15 15 15 9 0 12 -6 9 -15z"/>
<path d="M7152 3880 c0 -14 2 -19 5 -12 2 6 2 18 0 25 -3 6 -5 1 -5 -13z"/>
<path d="M7232 3860 c0 -14 2 -19 5 -12 2 6 2 18 0 25 -3 6 -5 1 -5 -13z"/>
<path d="M7346 3865 c4 -8 8 -15 10 -15 2 0 4 7 4 15 0 8 -4 15 -10 15 -5 0
-7 -7 -4 -15z"/>
<path d="M7260 3838 c0 -13 7 -33 15 -44 14 -18 14 -17 15 12 0 17 -7 37 -15
44 -13 10 -15 9 -15 -12z"/>
<path d="M7770 3731 c0 -5 6 -14 14 -20 16 -13 32 2 21 19 -8 12 -35 13 -35 1z"/>
<path d="M7828 3664 c-14 -13 -8 -41 12 -59 11 -10 20 -27 20 -39 0 -15 3 -17
11 -9 9 9 9 20 -1 42 -7 17 -16 31 -21 31 -4 0 -9 9 -11 21 -2 11 -6 17 -10
13z"/>
<path d="M7905 3571 c-3 -5 -1 -12 5 -16 5 -3 10 1 10 9 0 18 -6 21 -15 7z"/>
<path d="M5390 3420 c0 -5 5 -10 10 -10 6 0 10 5 10 10 0 6 -4 10 -10 10 -5 0
-10 -4 -10 -10z"/>
<path d="M6385 3381 c-4 -7 -3 -16 2 -20 6 -3 13 -13 16 -21 5 -13 5 -13 6 0
0 8 -4 24 -8 34 -6 15 -10 16 -16 7z"/>
<path d="M5855 3300 c-18 -8 -17 -9 8 -9 16 -1 26 3 22 9 -3 6 -7 10 -8 9 -1
0 -11 -4 -22 -9z"/>
<path d="M6850 3303 c0 -6 8 -17 18 -24 16 -13 16 -13 2 6 -8 11 -16 22 -17
24 -2 2 -3 0 -3 -6z"/>
<path d="M3600 3264 c0 -8 5 -12 10 -9 6 3 10 10 10 16 0 5 -4 9 -10 9 -5 0
-10 -7 -10 -16z"/>
<path d="M6075 3200 c3 -5 8 -10 11 -10 2 0 4 5 4 10 0 6 -5 10 -11 10 -5 0
-7 -4 -4 -10z"/>
<path d="M6518 3173 c7 -3 16 -2 19 1 4 3 -2 6 -13 5 -11 0 -14 -3 -6 -6z"/>
<path d="M6250 3090 c0 -5 4 -10 9 -10 6 0 13 5 16 10 3 6 -1 10 -9 10 -9 0
-16 -4 -16 -10z"/>
<path d="M5930 2970 c0 -5 5 -10 11 -10 5 0 7 5 4 10 -3 6 -8 10 -11 10 -2 0
-4 -4 -4 -10z"/>
<path d="M3880 2870 c0 -46 4 -70 9 -61 5 7 9 35 9 61 0 26 -4 54 -9 61 -5 9
-9 -15 -9 -61z"/>
<path d="M4150 2700 c0 -5 5 -10 11 -10 5 0 7 5 4 10 -3 6 -8 10 -11 10 -2 0
-4 -4 -4 -10z"/>
<path d="M3882 2405 c0 -16 2 -22 5 -12 2 9 2 23 0 30 -3 6 -5 -1 -5 -18z"/>
<path d="M4133 2137 c-11 -24 -8 -295 3 -347 6 -25 6 -25 20 -5 12 16 14 50
13 155 -3 210 -11 253 -36 197z"/>
<path d="M4500 1318 c0 -19 35 -51 50 -46 6 2 -3 16 -20 33 -21 20 -30 24 -30
13z"/>
<path d="M4582 1225 c11 -20 23 -34 25 -31 6 6 -29 66 -39 66 -4 0 2 -16 14
-35z"/>
<path d="M4360 1019 c0 -12 -22 -60 -49 -108 -58 -102 -93 -184 -115 -267 -9
-34 -23 -77 -31 -97 -8 -20 -15 -41 -15 -47 0 -11 206 -15 234 -4 13 5 13 10
-3 39 -20 38 -45 65 -60 65 -5 0 -16 7 -25 15 -17 17 -13 65 8 100 7 11 18 47
26 80 7 33 22 93 32 134 20 84 22 111 8 111 -5 0 -10 -10 -10 -21z"/>
<path d="M4591 759 c-9 -23 -51 -196 -51 -211 0 -5 29 -8 65 -8 47 0 67 4 71
14 8 22 -24 76 -52 86 -33 13 -40 35 -25 88 13 49 8 69 -8 31z"/>
<path d="M4424 450 c-5 -5 -26 -11 -47 -13 -51 -6 -68 -23 -36 -36 14 -5 113
-25 220 -46 l196 -36 94 25 c52 14 122 29 157 32 35 4 59 10 55 14 -11 9 -327
45 -378 43 -37 -2 -184 13 -231 22 -11 3 -25 0 -30 -5z"/>
<path d="M2107 187 c-48 -72 -94 -142 -103 -155 l-16 -22 424 0 424 0 98 44
c53 24 100 46 102 49 3 3 -14 9 -38 15 -24 5 -212 53 -419 106 -206 53 -377
96 -380 96 -2 0 -43 -60 -92 -133z"/>
<path d="M1475 294 c-189 -15 -464 -37 -775 -60 -124 -10 -229 -21 -235 -26
-5 -5 -3 -8 6 -8 8 0 145 -43 304 -95 l288 -95 403 2 404 3 -41 85 c-22 47
-59 113 -81 148 -47 72 -20 67 -273 46z"/>
<path d="M0 260 c0 -21 12 -24 45 -10 18 7 18 8 3 14 -45 15 -48 15 -48 -4z"/>
<path d="M168 205 c-12 -12 4 -43 25 -49 24 -6 37 0 37 17 0 8 -3 8 -9 -1 -6
-10 -13 -7 -27 13 -11 14 -22 23 -26 20z"/>
<path d="M180 100 c0 -5 7 -10 16 -10 8 0 12 5 9 10 -3 6 -10 10 -16 10 -5 0
-9 -4 -9 -10z"/>
<path d="M238 88 c5 -5 16 -8 23 -6 8 3 3 7 -10 11 -17 4 -21 3 -13 -5z"/>
<path d="M186 71 c-3 -4 -46 -12 -96 -15 -80 -7 -90 -10 -90 -27 0 -18 11 -19
363 -17 258 1 325 4 232 8 -128 7 -156 12 -244 44 -24 9 -51 16 -60 16 -17 0
14 -16 84 -43 25 -10 32 -16 20 -16 -11 -1 -56 13 -98 29 -83 32 -102 35 -111
21z"/>
<path d="M5035 65 c123 -28 242 -48 305 -51 58 -3 50 0 -71 25 -74 16 -171 31
-215 34 l-79 6 60 -14z"/>
</g>
</svg>
