<svg id="Capa_1" data-name="Capa 1" xmlns="http://www.w3.org/2000/svg" width="10.2cm" height="3.1cm" viewBox="0 0 289 88">
  <defs>
    <style>
      .cls-1 {
        fill: #fff;
      }
    </style>
  </defs>
  <title>Instituto_logo_blanco</title>
  <g>
    <rect class="cls-1" x="135.55" y="5.56" width="3.7" height="76.87"/>
    <circle class="cls-1" cx="58.5" cy="20.82" r="15.08"/>
    <circle class="cls-1" cx="103.61" cy="20.82" r="15.08"/>
    <polygon class="cls-1" points="34.68 77.42 8 77.42 5.42 79.88 32.13 79.88 34.68 77.42"/>
    <polygon class="cls-1" points="39.36 72.92 12.72 72.92 10.14 75.38 36.81 75.38 39.36 72.92"/>
    <polygon class="cls-1" points="44.05 68.4 17.46 68.4 14.88 70.86 41.5 70.86 44.05 68.4"/>
    <polygon class="cls-1" points="48.77 63.86 22.22 63.86 19.64 66.32 46.21 66.32 48.77 63.86"/>
    <polygon class="cls-1" points="76.08 37.56 49.8 37.56 47.21 40.02 73.56 40.02 76.08 37.56"/>
    <polygon class="cls-1" points="120.44 37.56 94.16 37.56 91.58 40.02 117.89 40.02 120.44 37.56"/>
    <polygon class="cls-1" points="116.16 41.68 89.83 41.68 87.25 44.14 113.61 44.14 116.16 41.68"/>
    <polygon class="cls-1" points="111.89 45.8 85.52 45.8 82.94 48.26 109.34 48.26 111.89 45.8"/>
    <polygon class="cls-1" points="107.2 50.32 80.77 50.32 78.18 52.78 104.64 52.78 107.2 50.32"/>
    <polygon class="cls-1" points="120.44 37.56 93.75 63.27 93.75 79.88 120.44 79.88 120.44 37.56"/>
    <polygon class="cls-1" points="71.86 41.68 45.46 41.68 42.89 44.14 69.35 44.14 71.86 41.68"/>
    <polygon class="cls-1" points="67.66 45.8 41.15 45.8 38.58 48.26 65.14 48.26 67.66 45.8"/>
    <polygon class="cls-1" points="63.04 50.32 36.41 50.32 33.82 52.78 60.52 52.78 63.04 50.32"/>
    <polygon class="cls-1" points="58.41 54.84 31.67 54.84 29.09 57.3 55.89 57.3 58.41 54.84"/>
    <polygon class="cls-1" points="53.8 59.35 26.94 59.35 24.36 61.81 51.28 61.81 53.8 59.35"/>
    <polygon class="cls-1" points="76.08 54.84 73.5 57.3 99.94 57.3 102.5 54.84 76.08 54.84"/>
    <polygon class="cls-1" points="71.34 59.35 68.76 61.81 95.26 61.81 97.81 59.35 71.34 59.35"/>
    <polygon class="cls-1" points="66.61 63.86 64.03 66.32 90.58 66.32 93.13 63.86 66.61 63.86"/>
    <polygon class="cls-1" points="61.85 68.4 59.27 70.86 85.87 70.86 88.42 68.4 61.85 68.4"/>
    <polygon class="cls-1" points="57.11 72.92 54.52 75.38 81.17 75.38 83.73 72.92 57.11 72.92"/>
    <g>
      <polygon class="cls-1" points="49.79 79.88 49.8 79.88 49.8 79.88 49.79 79.88"/>
      <polygon class="cls-1" points="52.38 77.42 49.8 79.88 76.49 79.88 79.05 77.42 52.38 77.42"/>
    </g>
    <polygon class="cls-1" points="76.08 37.56 49.8 63.27 49.8 79.88 76.08 54.84 76.08 37.56"/>
    <g>
      <path class="cls-1" d="M155.36,29.32V18.06h1.49V29.32Z"/>
      <path class="cls-1" d="M159.3,29.32V21.16h1.24v1.16a3,3,0,0,1,2.6-1.34,3.49,3.49,0,0,1,1.35.26,2.2,2.2,0,0,1,.93.7,2.76,2.76,0,0,1,.43,1,7.93,7.93,0,0,1,.08,1.34v5h-1.39v-5a3.69,3.69,0,0,0-.16-1.27,1.35,1.35,0,0,0-.57-.66,1.79,1.79,0,0,0-1-.25,2.23,2.23,0,0,0-1.53.56,2.74,2.74,0,0,0-.64,2.12v4.46Z"/>
      <path class="cls-1" d="M167.49,26.88l1.37-.21a1.92,1.92,0,0,0,.64,1.26,2.24,2.24,0,0,0,1.47.44,2.12,2.12,0,0,0,1.41-.39,1.16,1.16,0,0,0,.47-.91.85.85,0,0,0-.41-.74,6.16,6.16,0,0,0-1.41-.47,11.93,11.93,0,0,1-2.11-.66,2.07,2.07,0,0,1-.89-.78,2,2,0,0,1-.31-1.09,2.19,2.19,0,0,1,.25-1,2.29,2.29,0,0,1,.68-.77,2.89,2.89,0,0,1,.88-.41,4.2,4.2,0,0,1,1.2-.16,4.77,4.77,0,0,1,1.68.27,2.33,2.33,0,0,1,1.07.75,3,3,0,0,1,.48,1.27l-1.35.18a1.44,1.44,0,0,0-.54-1,1.91,1.91,0,0,0-1.24-.35,2.25,2.25,0,0,0-1.36.31.9.9,0,0,0-.41.74.76.76,0,0,0,.17.48,1.22,1.22,0,0,0,.53.37c.14.05.54.17,1.22.35A18.32,18.32,0,0,1,173,25a2.13,2.13,0,0,1,.91.73,2,2,0,0,1,.33,1.18,2.3,2.3,0,0,1-.41,1.3,2.56,2.56,0,0,1-1.16,1,4.29,4.29,0,0,1-1.72.33,3.81,3.81,0,0,1-2.42-.66A3.08,3.08,0,0,1,167.49,26.88Z"/>
      <path class="cls-1" d="M178.93,28.08l.2,1.22a4.69,4.69,0,0,1-1,.13,2.31,2.31,0,0,1-1.16-.24,1.37,1.37,0,0,1-.59-.63,5,5,0,0,1-.17-1.63V22.24h-1V21.16h1v-2l1.38-.83v2.85h1.39v1.08h-1.39V27a2.4,2.4,0,0,0,.07.76.62.62,0,0,0,.24.27,1,1,0,0,0,.47.1A4,4,0,0,0,178.93,28.08Z"/>
      <path class="cls-1" d="M180.29,19.65V18.06h1.38v1.59Zm0,9.67V21.16h1.38v8.16Z"/>
      <path class="cls-1" d="M186.79,28.08l.2,1.22a4.61,4.61,0,0,1-1,.13,2.37,2.37,0,0,1-1.17-.24,1.3,1.3,0,0,1-.58-.63,4.73,4.73,0,0,1-.17-1.63V22.24h-1V21.16h1v-2l1.37-.83v2.85h1.39v1.08H185.4V27a2.3,2.3,0,0,0,.08.76.54.54,0,0,0,.23.27,1,1,0,0,0,.48.1A4,4,0,0,0,186.79,28.08Z"/>
      <path class="cls-1" d="M193.49,29.32v-1.2a3,3,0,0,1-2.59,1.38,3.39,3.39,0,0,1-1.35-.27,2.27,2.27,0,0,1-.92-.7,2.48,2.48,0,0,1-.43-1,6.58,6.58,0,0,1-.09-1.29V21.16h1.39v4.53a8.9,8.9,0,0,0,.08,1.46,1.46,1.46,0,0,0,.55.85,1.72,1.72,0,0,0,1.05.31,2.24,2.24,0,0,0,1.17-.32,1.78,1.78,0,0,0,.77-.86,4.41,4.41,0,0,0,.23-1.6V21.16h1.38v8.16Z"/>
      <path class="cls-1" d="M199.91,28.08l.2,1.22a4.68,4.68,0,0,1-1,.13,2.37,2.37,0,0,1-1.17-.24,1.3,1.3,0,0,1-.58-.63,4.73,4.73,0,0,1-.17-1.63V22.24h-1V21.16h1v-2l1.37-.83v2.85h1.39v1.08h-1.39V27a2.76,2.76,0,0,0,.07.76.62.62,0,0,0,.24.27,1,1,0,0,0,.48.1A4,4,0,0,0,199.91,28.08Z"/>
      <path class="cls-1" d="M200.75,25.24A4.22,4.22,0,0,1,202,21.88a3.81,3.81,0,0,1,2.56-.9,3.66,3.66,0,0,1,2.75,1.1,4.17,4.17,0,0,1,1.07,3.05,5.43,5.43,0,0,1-.47,2.47,3.33,3.33,0,0,1-1.38,1.4,3.9,3.9,0,0,1-2,.5,3.65,3.65,0,0,1-2.76-1.09A4.39,4.39,0,0,1,200.75,25.24Zm1.42,0a3.51,3.51,0,0,0,.68,2.35,2.2,2.2,0,0,0,1.72.78,2.18,2.18,0,0,0,1.72-.79A3.56,3.56,0,0,0,207,25.2a3.38,3.38,0,0,0-.69-2.3,2.16,2.16,0,0,0-1.71-.78,2.2,2.2,0,0,0-1.72.78A3.49,3.49,0,0,0,202.17,25.24Z"/>
      <path class="cls-1" d="M160.22,48.2v-1a2.54,2.54,0,0,1-2.28,1.21,3.22,3.22,0,0,1-1.8-.54,3.58,3.58,0,0,1-1.26-1.5,5.18,5.18,0,0,1-.45-2.22,5.8,5.8,0,0,1,.4-2.21,3.3,3.3,0,0,1,1.23-1.53,3.26,3.26,0,0,1,1.82-.53,2.67,2.67,0,0,1,1.31.32,2.64,2.64,0,0,1,.94.81v-4h1.37V48.2Zm-4.37-4.08a3.56,3.56,0,0,0,.66,2.35,2,2,0,0,0,1.56.77,1.94,1.94,0,0,0,1.54-.74,3.42,3.42,0,0,0,.63-2.26,3.83,3.83,0,0,0-.64-2.46A2,2,0,0,0,158,41a1.91,1.91,0,0,0-1.54.75A3.65,3.65,0,0,0,155.85,44.12Z"/>
      <path class="cls-1" d="M169.26,45.57l1.43.18a3.56,3.56,0,0,1-1.25,1.94,4.26,4.26,0,0,1-5.18-.41,4.32,4.32,0,0,1-1-3.09,4.54,4.54,0,0,1,1.06-3.2A3.6,3.6,0,0,1,167,39.85,3.52,3.52,0,0,1,169.7,41a4.43,4.43,0,0,1,1,3.13v.37h-6.09a3.16,3.16,0,0,0,.76,2.06,2.26,2.26,0,0,0,1.71.71,2.12,2.12,0,0,0,1.3-.4A2.68,2.68,0,0,0,169.26,45.57Zm-4.54-2.24h4.55a2.72,2.72,0,0,0-.52-1.54A2.12,2.12,0,0,0,167,41a2.16,2.16,0,0,0-1.6.64A2.49,2.49,0,0,0,164.72,43.33Z"/>
      <path class="cls-1" d="M177.22,48.2V36.94h1.49V48.2Z"/>
      <path class="cls-1" d="M181.16,48.2V40h1.25V41.2A2.92,2.92,0,0,1,185,39.85a3.34,3.34,0,0,1,1.36.27,2.27,2.27,0,0,1,.93.69,2.91,2.91,0,0,1,.43,1,8.16,8.16,0,0,1,.07,1.34v5h-1.38v-5a3.66,3.66,0,0,0-.16-1.26,1.37,1.37,0,0,0-.57-.67,1.92,1.92,0,0,0-1-.25,2.23,2.23,0,0,0-1.52.56,2.78,2.78,0,0,0-.64,2.13V48.2Z"/>
      <path class="cls-1" d="M192.18,48.2,189.07,40h1.46l1.76,4.88c.18.53.36,1.08.52,1.65.12-.43.29-1,.51-1.55l1.81-5h1.43l-3.09,8.16Z"/>
      <path class="cls-1" d="M203.36,45.57l1.43.18a3.51,3.51,0,0,1-1.25,1.94,4.26,4.26,0,0,1-5.18-.41,4.36,4.36,0,0,1-1-3.09,4.5,4.5,0,0,1,1.06-3.2,3.57,3.57,0,0,1,2.75-1.14A3.49,3.49,0,0,1,203.8,41a4.43,4.43,0,0,1,1,3.13c0,.08,0,.21,0,.37h-6.09a3.17,3.17,0,0,0,.77,2.06,2.23,2.23,0,0,0,1.7.71,2.1,2.1,0,0,0,1.3-.4A2.61,2.61,0,0,0,203.36,45.57Zm-4.54-2.24h4.56a2.8,2.8,0,0,0-.53-1.54,2.12,2.12,0,0,0-1.71-.8,2.18,2.18,0,0,0-1.6.64A2.54,2.54,0,0,0,198.82,43.33Z"/>
      <path class="cls-1" d="M206,45.76l1.37-.21a2,2,0,0,0,.64,1.26,2.24,2.24,0,0,0,1.47.43,2.18,2.18,0,0,0,1.41-.38,1.18,1.18,0,0,0,.47-.91.84.84,0,0,0-.41-.74,6.16,6.16,0,0,0-1.41-.47,12.62,12.62,0,0,1-2.11-.67,2,2,0,0,1-.89-.77,2,2,0,0,1-.31-1.1,2.19,2.19,0,0,1,.25-1,2.39,2.39,0,0,1,.68-.77A2.89,2.89,0,0,1,208,40a4.19,4.19,0,0,1,1.2-.17,4.77,4.77,0,0,1,1.68.28,2.26,2.26,0,0,1,1.07.75,3,3,0,0,1,.48,1.26l-1.35.19a1.48,1.48,0,0,0-.54-1,2,2,0,0,0-1.24-.35,2.24,2.24,0,0,0-1.36.32.89.89,0,0,0-.41.73.81.81,0,0,0,.17.49,1.22,1.22,0,0,0,.53.37l1.22.35a16.39,16.39,0,0,1,2,.64,2.13,2.13,0,0,1,.91.73,2,2,0,0,1,.33,1.18,2.32,2.32,0,0,1-.41,1.3,2.62,2.62,0,0,1-1.16.95,4.29,4.29,0,0,1-1.72.33,3.81,3.81,0,0,1-2.42-.66A3.08,3.08,0,0,1,206,45.76Z"/>
      <path class="cls-1" d="M217.41,47l.2,1.22a5.28,5.28,0,0,1-1.05.12,2.43,2.43,0,0,1-1.16-.23,1.37,1.37,0,0,1-.59-.63,5,5,0,0,1-.17-1.63v-4.7h-1V40h1V38l1.38-.83V40h1.39v1.07H216v4.77a2.36,2.36,0,0,0,.07.76.53.53,0,0,0,.24.27.89.89,0,0,0,.47.1A3.8,3.8,0,0,0,217.41,47Z"/>
      <path class="cls-1" d="M218.77,38.53V36.94h1.38v1.59Zm0,9.67V40h1.38V48.2Z"/>
      <path class="cls-1" d="M222,48.87l1.35.2a1.27,1.27,0,0,0,.46.91,2.38,2.38,0,0,0,1.41.38A2.51,2.51,0,0,0,226.7,50a1.9,1.9,0,0,0,.71-1.08,9.34,9.34,0,0,0,.1-1.77,2.86,2.86,0,0,1-2.26,1.07,3.07,3.07,0,0,1-2.6-1.22,4.64,4.64,0,0,1-.92-2.91,5.39,5.39,0,0,1,.42-2.15,3.41,3.41,0,0,1,1.22-1.53,3.33,3.33,0,0,1,1.89-.54A2.93,2.93,0,0,1,227.64,41V40h1.27v7.05a6.69,6.69,0,0,1-.38,2.7,2.87,2.87,0,0,1-1.23,1.26,4.34,4.34,0,0,1-2.07.46,3.88,3.88,0,0,1-2.36-.66A2.23,2.23,0,0,1,222,48.87Zm1.15-4.9a3.56,3.56,0,0,0,.63,2.34,2,2,0,0,0,1.6.74,2,2,0,0,0,1.6-.73,3.43,3.43,0,0,0,.64-2.3,3.37,3.37,0,0,0-.66-2.26,2,2,0,0,0-1.6-.76,2,2,0,0,0-1.57.75A3.32,3.32,0,0,0,223.15,44Z"/>
      <path class="cls-1" d="M236.33,47.19a5.45,5.45,0,0,1-1.48.92,4.28,4.28,0,0,1-1.53.27,3,3,0,0,1-2.06-.66,2.14,2.14,0,0,1-.72-1.67,2.26,2.26,0,0,1,1-1.89,3.66,3.66,0,0,1,1-.46,10.72,10.72,0,0,1,1.23-.21,12.9,12.9,0,0,0,2.46-.47c0-.19,0-.31,0-.36a1.52,1.52,0,0,0-.39-1.19,2.35,2.35,0,0,0-1.58-.47,2.43,2.43,0,0,0-1.44.34,2,2,0,0,0-.68,1.21l-1.36-.18a3.52,3.52,0,0,1,.61-1.41,2.69,2.69,0,0,1,1.22-.82,5.48,5.48,0,0,1,1.85-.29,5,5,0,0,1,1.7.25,2.25,2.25,0,0,1,1,.62,2.21,2.21,0,0,1,.43.94,7.33,7.33,0,0,1,.07,1.27v1.85a19.29,19.29,0,0,0,.09,2.44,3,3,0,0,0,.35,1H236.6A3.06,3.06,0,0,1,236.33,47.19Zm-.12-3.09a9.62,9.62,0,0,1-2.26.52,5.6,5.6,0,0,0-1.2.28,1.21,1.21,0,0,0-.32,2,1.83,1.83,0,0,0,1.22.37,2.85,2.85,0,0,0,1.42-.35,2.18,2.18,0,0,0,.92-1,3.3,3.3,0,0,0,.22-1.38Z"/>
      <path class="cls-1" d="M245.07,45.21l1.36.17a3.49,3.49,0,0,1-1.14,2.21,3.36,3.36,0,0,1-2.25.79,3.49,3.49,0,0,1-2.69-1.09,4.44,4.44,0,0,1-1-3.14,5.7,5.7,0,0,1,.44-2.31,3,3,0,0,1,1.33-1.49,4,4,0,0,1,2-.5,3.37,3.37,0,0,1,2.17.68,3.07,3.07,0,0,1,1.08,1.91l-1.34.2a2.22,2.22,0,0,0-.68-1.23A1.76,1.76,0,0,0,243.1,41a2.15,2.15,0,0,0-1.7.75,3.59,3.59,0,0,0-.65,2.37,3.68,3.68,0,0,0,.63,2.39,2,2,0,0,0,1.64.74,1.89,1.89,0,0,0,1.36-.5A2.38,2.38,0,0,0,245.07,45.21Z"/>
      <path class="cls-1" d="M247.62,38.53V36.94H249v1.59Zm0,9.67V40H249V48.2Z"/>
      <path class="cls-1" d="M250.6,44.12a4.22,4.22,0,0,1,1.26-3.36,3.8,3.8,0,0,1,2.56-.91A3.65,3.65,0,0,1,257.17,41a4.19,4.19,0,0,1,1.07,3,5.47,5.47,0,0,1-.47,2.48,3.38,3.38,0,0,1-1.38,1.4,4,4,0,0,1-2,.5,3.69,3.69,0,0,1-2.77-1.1A4.4,4.4,0,0,1,250.6,44.12Zm1.42,0a3.49,3.49,0,0,0,.68,2.34,2.29,2.29,0,0,0,3.44,0,3.59,3.59,0,0,0,.68-2.39,3.35,3.35,0,0,0-.69-2.29,2.19,2.19,0,0,0-1.71-.78,2.22,2.22,0,0,0-1.72.77A3.51,3.51,0,0,0,252,44.12Z"/>
      <path class="cls-1" d="M259.86,48.2V40h1.24V41.2a2.94,2.94,0,0,1,2.6-1.35,3.4,3.4,0,0,1,1.36.27,2.17,2.17,0,0,1,.92.69,2.59,2.59,0,0,1,.43,1,7.84,7.84,0,0,1,.08,1.34v5h-1.38v-5a3.62,3.62,0,0,0-.17-1.26,1.28,1.28,0,0,0-.57-.67,1.85,1.85,0,0,0-1-.25,2.27,2.27,0,0,0-1.53.56,2.82,2.82,0,0,0-.64,2.13V48.2Z"/>
      <path class="cls-1" d="M274.19,45.57l1.43.18a3.46,3.46,0,0,1-1.25,1.94,3.78,3.78,0,0,1-2.34.69,3.74,3.74,0,0,1-2.83-1.1,4.32,4.32,0,0,1-1.05-3.09,4.5,4.5,0,0,1,1.06-3.2A3.57,3.57,0,0,1,272,39.85,3.49,3.49,0,0,1,274.63,41a4.43,4.43,0,0,1,1,3.13c0,.08,0,.21,0,.37h-6.08a3.11,3.11,0,0,0,.76,2.06,2.23,2.23,0,0,0,1.7.71,2.1,2.1,0,0,0,1.3-.4A2.61,2.61,0,0,0,274.19,45.57Zm-4.54-2.24h4.56a2.8,2.8,0,0,0-.52-1.54A2.16,2.16,0,0,0,272,41a2.18,2.18,0,0,0-1.6.64A2.54,2.54,0,0,0,269.65,43.33Z"/>
      <path class="cls-1" d="M276.8,45.76l1.37-.21a2,2,0,0,0,.64,1.26,2.78,2.78,0,0,0,2.89,0,1.2,1.2,0,0,0,.46-.91.84.84,0,0,0-.41-.74,6.16,6.16,0,0,0-1.41-.47,12.62,12.62,0,0,1-2.11-.67,2,2,0,0,1-.89-.77,2.1,2.1,0,0,1-.31-1.1,2.19,2.19,0,0,1,.25-1,2.39,2.39,0,0,1,.68-.77,2.89,2.89,0,0,1,.88-.4,4.19,4.19,0,0,1,1.2-.17,4.77,4.77,0,0,1,1.68.28,2.26,2.26,0,0,1,1.07.75,2.84,2.84,0,0,1,.48,1.26l-1.35.19a1.51,1.51,0,0,0-.53-1,2,2,0,0,0-1.25-.35,2.24,2.24,0,0,0-1.36.32.91.91,0,0,0-.41.73.81.81,0,0,0,.17.49,1.22,1.22,0,0,0,.53.37l1.22.35a16.39,16.39,0,0,1,2,.64,2.13,2.13,0,0,1,.91.73,2,2,0,0,1,.33,1.18,2.32,2.32,0,0,1-.41,1.3,2.57,2.57,0,0,1-1.16.95,4.29,4.29,0,0,1-1.72.33,3.81,3.81,0,0,1-2.42-.66A3.08,3.08,0,0,1,276.8,45.76Z"/>
      <path class="cls-1" d="M160.51,64.44l1.43.18a3.47,3.47,0,0,1-1.25,1.94,4.22,4.22,0,0,1-5.18-.41,4.28,4.28,0,0,1-1-3.09,4.49,4.49,0,0,1,1.06-3.19,3.57,3.57,0,0,1,2.75-1.14A3.49,3.49,0,0,1,161,59.84,4.46,4.46,0,0,1,162,63c0,.08,0,.2,0,.37h-6.09a3.24,3.24,0,0,0,.76,2.06,2.3,2.3,0,0,0,1.71.71,2.1,2.1,0,0,0,1.3-.4A2.64,2.64,0,0,0,160.51,64.44ZM156,62.21h4.56a2.77,2.77,0,0,0-.53-1.54,2.09,2.09,0,0,0-1.71-.8,2.21,2.21,0,0,0-1.6.63A2.58,2.58,0,0,0,156,62.21Z"/>
      <path class="cls-1" d="M163.67,67.07V58.91h1.25v1.16a2.93,2.93,0,0,1,2.59-1.34,3.34,3.34,0,0,1,1.36.27,2.11,2.11,0,0,1,.93.69,2.94,2.94,0,0,1,.43,1,8.38,8.38,0,0,1,.07,1.35v5h-1.38v-5a3.66,3.66,0,0,0-.16-1.26,1.33,1.33,0,0,0-.57-.67,1.82,1.82,0,0,0-1-.25,2.25,2.25,0,0,0-1.52.56,2.75,2.75,0,0,0-.64,2.13v4.45Z"/>
      <path class="cls-1" d="M176.92,67.07V55.81h2.25l2.66,8c.25.75.43,1.3.54,1.67q.19-.61.6-1.8l2.69-7.84h2V67.07h-1.44V57.65L183,67.07h-1.34l-3.26-9.58v9.58Z"/>
      <path class="cls-1" d="M195.22,66.07a5.3,5.3,0,0,1-1.48.92,4.23,4.23,0,0,1-1.52.27,3,3,0,0,1-2.07-.66,2.18,2.18,0,0,1-.72-1.68,2.27,2.27,0,0,1,1-1.89,3.2,3.2,0,0,1,1-.45,10.72,10.72,0,0,1,1.23-.21,11.87,11.87,0,0,0,2.46-.48c0-.18,0-.3,0-.36a1.53,1.53,0,0,0-.39-1.19,2.32,2.32,0,0,0-1.57-.47,2.42,2.42,0,0,0-1.44.35,2.07,2.07,0,0,0-.69,1.21l-1.35-.19a3.34,3.34,0,0,1,.6-1.4,2.61,2.61,0,0,1,1.22-.82,5.55,5.55,0,0,1,1.86-.29A4.71,4.71,0,0,1,195,59a2.21,2.21,0,0,1,1,.61,2.13,2.13,0,0,1,.43.95,7.25,7.25,0,0,1,.07,1.27v1.84a19.17,19.17,0,0,0,.09,2.44,3.2,3.2,0,0,0,.35,1H195.5A2.78,2.78,0,0,1,195.22,66.07ZM195.1,63a10.18,10.18,0,0,1-2.25.52,4.8,4.8,0,0,0-1.21.28,1.17,1.17,0,0,0-.55.45,1.21,1.21,0,0,0-.19.65,1.16,1.16,0,0,0,.42.92,1.79,1.79,0,0,0,1.23.37,2.8,2.8,0,0,0,1.42-.35,2.14,2.14,0,0,0,.91-.95,3.35,3.35,0,0,0,.22-1.39Z"/>
      <path class="cls-1" d="M201.66,65.84l.2,1.22a5.19,5.19,0,0,1-1,.12,2.37,2.37,0,0,1-1.17-.24,1.33,1.33,0,0,1-.58-.62,4.8,4.8,0,0,1-.17-1.64V60h-1V58.91h1v-2l1.37-.82v2.84h1.39V60h-1.39v4.77a2.3,2.3,0,0,0,.08.76.54.54,0,0,0,.23.27.9.9,0,0,0,.48.1A5.51,5.51,0,0,0,201.66,65.84Z"/>
      <path class="cls-1" d="M208.6,64.44l1.43.18a3.53,3.53,0,0,1-1.25,1.94,4.22,4.22,0,0,1-5.18-.41,4.28,4.28,0,0,1-1-3.09,4.53,4.53,0,0,1,1.06-3.19,3.6,3.6,0,0,1,2.75-1.14A3.51,3.51,0,0,1,209,59.84a4.45,4.45,0,0,1,1,3.14v.37H204a3.18,3.18,0,0,0,.76,2.06,2.3,2.3,0,0,0,1.71.71,2.1,2.1,0,0,0,1.3-.4A2.71,2.71,0,0,0,208.6,64.44Zm-4.54-2.23h4.55a2.7,2.7,0,0,0-.52-1.54,2.09,2.09,0,0,0-1.71-.8,2.19,2.19,0,0,0-1.6.63A2.58,2.58,0,0,0,204.06,62.21Z"/>
      <path class="cls-1" d="M211.75,67.07V58.91H213v1.24a3.31,3.31,0,0,1,.88-1.14,1.52,1.52,0,0,1,.89-.28,2.69,2.69,0,0,1,1.42.45l-.48,1.28a1.94,1.94,0,0,0-1-.3,1.32,1.32,0,0,0-.81.27,1.43,1.43,0,0,0-.52.76,5.49,5.49,0,0,0-.23,1.61v4.27Z"/>
      <path class="cls-1" d="M217,57.4V55.81h1.38V57.4Zm0,9.67V58.91h1.38v8.16Z"/>
      <path class="cls-1" d="M225.82,66.07a5.3,5.3,0,0,1-1.48.92,4.23,4.23,0,0,1-1.52.27,3,3,0,0,1-2.07-.66,2.18,2.18,0,0,1-.72-1.68A2.27,2.27,0,0,1,221,63a3.2,3.2,0,0,1,1-.45,10.72,10.72,0,0,1,1.23-.21,11.87,11.87,0,0,0,2.46-.48c0-.18,0-.3,0-.36a1.53,1.53,0,0,0-.39-1.19,2.32,2.32,0,0,0-1.57-.47,2.42,2.42,0,0,0-1.44.35,2.07,2.07,0,0,0-.69,1.21l-1.35-.19a3.34,3.34,0,0,1,.6-1.4,2.61,2.61,0,0,1,1.22-.82,5.55,5.55,0,0,1,1.86-.29,4.71,4.71,0,0,1,1.69.25,2.21,2.21,0,0,1,1,.61,2.13,2.13,0,0,1,.43.95,7.25,7.25,0,0,1,.07,1.27v1.84a19.17,19.17,0,0,0,.09,2.44,3.2,3.2,0,0,0,.35,1H226.1A2.78,2.78,0,0,1,225.82,66.07ZM225.7,63a10.18,10.18,0,0,1-2.25.52,4.8,4.8,0,0,0-1.21.28,1.17,1.17,0,0,0-.55.45,1.21,1.21,0,0,0-.19.65,1.16,1.16,0,0,0,.42.92,1.79,1.79,0,0,0,1.23.37,2.8,2.8,0,0,0,1.42-.35,2.14,2.14,0,0,0,.91-.95,3.35,3.35,0,0,0,.22-1.39Z"/>
      <path class="cls-1" d="M229.21,67.07V55.81h1.39V67.07Z"/>
      <path class="cls-1" d="M238.32,64.44l1.43.18a3.42,3.42,0,0,1-1.25,1.94,4.21,4.21,0,0,1-5.17-.41,4.28,4.28,0,0,1-1.05-3.09,4.49,4.49,0,0,1,1.06-3.19,3.58,3.58,0,0,1,2.75-1.14,3.49,3.49,0,0,1,2.67,1.11,4.46,4.46,0,0,1,1,3.14c0,.08,0,.2,0,.37h-6.08a3.13,3.13,0,0,0,.76,2.06,2.26,2.26,0,0,0,1.7.71,2.1,2.1,0,0,0,1.3-.4A2.64,2.64,0,0,0,238.32,64.44Zm-4.54-2.23h4.56a2.77,2.77,0,0,0-.52-1.54,2.1,2.1,0,0,0-1.72-.8,2.21,2.21,0,0,0-1.6.63A2.58,2.58,0,0,0,233.78,62.21Z"/>
      <path class="cls-1" d="M240.93,64.64l1.37-.22a1.92,1.92,0,0,0,.64,1.26,2.24,2.24,0,0,0,1.47.44,2.17,2.17,0,0,0,1.42-.39,1.18,1.18,0,0,0,.46-.91.85.85,0,0,0-.41-.74,5.82,5.82,0,0,0-1.41-.46,12.62,12.62,0,0,1-2.11-.67,2,2,0,0,1-.89-.77,2.12,2.12,0,0,1-.3-1.1,2.18,2.18,0,0,1,.24-1,2.29,2.29,0,0,1,.68-.77,2.89,2.89,0,0,1,.88-.4,4.24,4.24,0,0,1,1.2-.17,4.55,4.55,0,0,1,1.68.28,2.23,2.23,0,0,1,1.08.75A2.91,2.91,0,0,1,247.4,61l-1.35.18a1.49,1.49,0,0,0-.53-1,2,2,0,0,0-1.25-.35,2.25,2.25,0,0,0-1.36.31.93.93,0,0,0-.41.74.76.76,0,0,0,.17.48,1.22,1.22,0,0,0,.53.37l1.22.36a16.39,16.39,0,0,1,2.05.64,1.93,1.93,0,0,1,1.24,1.91,2.39,2.39,0,0,1-.4,1.3,2.63,2.63,0,0,1-1.17.94,4.26,4.26,0,0,1-1.72.34A3.81,3.81,0,0,1,242,66.6,3.1,3.1,0,0,1,240.93,64.64Z"/>
    </g>
  </g>
</svg>
