<svg id="Capa_1" data-name="Capa 1" xmlns="http://www.w3.org/2000/svg" width="4.73cm" height="5.08cm" viewBox="0 0 134 144">
  <defs>
    <style>
      .cls-1 {
        fill: #fff;
        fill-rule: evenodd;
      }
    </style>
  </defs>
  <title>UNAM_logo_blanco</title>
  <g>
    <path class="cls-1" d="M92.8,70V42.39a.15.15,0,0,0-.15-.15H39.41a.15.15,0,0,0-.15.15V70a.24.24,0,0,0,0,.08,48.83,48.83,0,0,0,7.91,26C52,103.3,58.68,108.4,66,110.44a.11.11,0,0,0,.08,0c7.3-2,14-7.14,18.8-14.37a48.83,48.83,0,0,0,7.91-26,.19.19,0,0,0,0-.08Zm-1.08-.16a.78.78,0,0,0,0,.14c-.45,19-11,35.14-25.67,39.38C51.36,105.09,40.81,88.9,40.36,70a.78.78,0,0,0,0-.14V43.32H91.72V69.81Z"/>
    <path class="cls-1" d="M66,102.82a.17.17,0,0,0,.1,0c11.38-4.26,19.58-17.85,20-33,0-.13,0-.22,0-.29v-20a.14.14,0,0,0-.15-.15H46.17a.14.14,0,0,0-.15.15v20c0,.08,0,.17,0,.3.37,15.19,8.57,28.78,20,33Zm0-1.14c-10.79-4.25-18.56-17.36-18.9-31.93,0-.14,0-.24,0-.32V50.85c.12.25.24.49.34.65.31.45,1,1.74,1,1.74s.07.6-.15.67.3.4.45.63.54.91.84,1,.38-.3.15-.68-.65-1.36-.65-1.36a6.12,6.12,0,0,0-.34-1.07c-.22-.53-.45-1.22-.45-1.22s1.26.33,1.41,1a29,29,0,0,0,.87,3.1,7.49,7.49,0,0,0,1,1.59,4.85,4.85,0,0,0,2.36,1.67c1.06.31,2.28-.38,2.81,0a11.81,11.81,0,0,0,2.2,1.6c.69.23,2.51.6,2.89,1.36s1.29.84,1.75.92,2,.68,2,2L64.32,67a4.64,4.64,0,0,0-1.07,1.9c-.15.91-.61,1.45.31,2.81A9.47,9.47,0,0,1,65.15,76c.08,1.21,1.22,1.36,2,1.9s0,1.06-.46,2.2-.23,3.49-.68,5-1,2.05-1,3.27a9.18,9.18,0,0,1-.38,3.57c-.46,1.06-.15,2-.23,3.19a5.38,5.38,0,0,0,1,3.49c.76,1,2.51,1.44,2.28-.07a5.92,5.92,0,0,1,1-4.49l.91-1s-.16-1.45.76-2,1.52-1.07,1-1.3,0-.76.54-.76.75.23,2-1.21a8.12,8.12,0,0,1,2.81-2.43c1.22-.68,1.67-2,2.43-2.81a6.81,6.81,0,0,1,3-1.6,1.8,1.8,0,0,0,1.29-2c0-1-.3-1.67.38-2.74s.28-1.26.89-1.8C82.88,87,75.66,97.89,66,101.68ZM85,69.43c0,.08,0,.18,0,.33,0,.6,0,1.2-.08,1.79-.57-.55-1.46-.91-2-1.52a6.15,6.15,0,0,0-1.75-1.29,1.38,1.38,0,0,0-1.29-.3c-.83.15-1.52,0-1.67-.84s-.08-1.67-.91-2.13a13.92,13.92,0,0,1-2-1.44c-.6-.46-1.21-1.29-1.44-1.37a13.72,13.72,0,0,0-1.82.08,2.65,2.65,0,0,0-2.28-.53s-.84-1.29-1.75-.61-1.67,1.14-2.2.46-1.44-.38-2.05-.31-1.14-1-1.29-1.44,0-1.14-.23-1.14-1.14.3-1.75-.15-.3-.91-.07-1.29a4.81,4.81,0,0,0,.38-2.21l-.69-.07s-.83-.15-1,.45a1.82,1.82,0,0,1-2,1,2.46,2.46,0,0,1-1.74-1.59,2.54,2.54,0,0,1-.08-1.83c.15-.45-.52-1.27-.75-1.5s-.24.14-.7-.62a4.06,4.06,0,0,0-.85-1H85v19Z"/>
    <path class="cls-1" d="M51.29,20.38a2.24,2.24,0,0,0-2.59.25,1.4,1.4,0,0,1-.48.43c-.24,0-1.73-.06-2.35.77a1.71,1.71,0,0,0-.09,1.72,30.66,30.66,0,0,1,1,2.92.14.14,0,0,0,.05.08s1.62,1.58.94,3.05c-.75,1.64-.61,2,.27,2.48.71.37,1,.81,1,2.4v.12c0,1.12,0,2.09.53,2.62a1.56,1.56,0,0,0,1.14.39,1.08,1.08,0,0,0,.89-.43c.73-.91.5-3,.27-4s-.64-2.83,0-3.33,1-.66,1.43-.25a.15.15,0,0,0,.13,0,1,1,0,0,0,.91-1,2.11,2.11,0,0,0-.16-.65v0a1.74,1.74,0,0,1,.27.06,1.09,1.09,0,0,0,1.12-.33,1,1,0,0,0,.11-1.11,14.43,14.43,0,0,0-2.24-3.31l-.24-.23c-.48-.44-.48-.44-.45-.86.05-.7-.48-1.34-1.51-1.84Zm2.08,8,.06.17a2.17,2.17,0,0,0-2.06.57c-1.06.8-.75,2.63-.38,4.29.27,1.16.29,2.73-.09,3.21a.17.17,0,0,1-.16.08.69.69,0,0,1-.48-.12,4,4,0,0,1-.25-2v-.12c0-1.79-.4-2.63-1.52-3.22a1.61,1.61,0,0,1-.26-.16,3.54,3.54,0,0,1,.4-1.11c.81-1.76-.52-3.44-1-3.95-.11-.36-.37-1.14-1-2.81-.14-.39-.16-.68,0-.84.25-.34,1.15-.43,1.58-.4a.74.74,0,0,0,.21,0,1.88,1.88,0,0,0,1-.76,1.48,1.48,0,0,1,1.47,0c.8.39,1,.76,1,.92-.06.83.13,1.05.74,1.62l.24.23a14.14,14.14,0,0,1,2,3,.13.13,0,0,1,0,.12s-.08,0-.19,0a1.13,1.13,0,0,0-1.24.2.93.93,0,0,0-.1,1Z"/>
    <path class="cls-1" d="M49.39,23.83a.82.82,0,0,0-.82.81.82.82,0,0,0,1.64,0,.82.82,0,0,0-.82-.81Z"/>
    <path class="cls-1" d="M40.9,24.21c-.15,0-3.62.95-3.62,3.25a2.35,2.35,0,0,0,2.27,2.42.16.16,0,0,0,.14-.08.14.14,0,0,0,0-.16,1.43,1.43,0,0,1-.41-1c.06-.31.39-.51.74-.71s.88-.53.8-1.06a7.07,7.07,0,0,1,.28-2.47.14.14,0,0,0,0-.15.16.16,0,0,0-.15,0Zm-2.5,4.06a1.67,1.67,0,0,1-.19-.81c0-.84.86-1.46,1.68-1.86a5.2,5.2,0,0,0,0,1.3,3.85,3.85,0,0,1-.35.22,2.36,2.36,0,0,0-1.12,1.15Z"/>
    <path class="cls-1" d="M42.79,28.22c-1.46.77-2.41,1.38-2.42,1.38a.16.16,0,0,0-.07.16.16.16,0,0,0,.12.12,34.8,34.8,0,0,0,5.2.87,2.22,2.22,0,0,0,1.57-1.21,2.83,2.83,0,0,0-.57-2.69c-1.16-2.29-1.86-4-1.87-4a.14.14,0,0,0-.17-.09s-3.76.89-3.22,4.46a.16.16,0,0,0,.15.13h1.33c.2.05.5.19.52.33s0,.23-.57.52Zm1.5-.63c-.1-.79-1-1.07-1.24-1.13a.63.63,0,0,0-.19,0h-.61a2.91,2.91,0,0,1,1.93-2.53c.3.67.85,1.89,1.61,3.38a.56.56,0,0,0,.05.08c.35.53.72,1.27.49,1.81a1.29,1.29,0,0,1-.87.66,19.23,19.23,0,0,1-2.85-.45l.61-.33c.29-.15,1.17-.62,1.07-1.46Z"/>
    <path class="cls-1" d="M49.22,37.82a.43.43,0,0,0-.27-.3l-.88-.47h0a1.05,1.05,0,0,0-1,.36l-4,2.9c-.11.09-.44.38-.37.64,0,.1.1.22.36.27.59.1,2.35.31,2.42.32a1.93,1.93,0,0,0,1.27-.37c.33-.36,2.15-2.5,2.22-2.59a1,1,0,0,0,.24-.75Zm-3.14,2.69a1.36,1.36,0,0,1-.52.09l-1.11-.14,3.18-2.31.09-.08.11-.09.3.16c-.67.78-1.8,2.1-2.05,2.37Z"/>
    <path class="cls-1" d="M47.56,41.67c.63.08,1.51.16,1.58.17s.64.08,1.07-.72l1.06-2a.65.65,0,0,0,.13-.59.53.53,0,0,0-.42-.32L50.21,38a.83.83,0,0,0-1,.26c-.24.37-1.94,2.43-2,2.45s-.3.4-.18.68a.48.48,0,0,0,.44.28Zm1.66-.76-.81-.08c.47-.57,1.24-1.51,1.54-1.93l.33.08-.89,1.7a1,1,0,0,1-.17.23Z"/>
    <path class="cls-1" d="M51.61,41.89h1.26a.85.85,0,0,0,.81-1V38.75a.19.19,0,0,0,0-.08.87.87,0,0,0-.8-.35,6.62,6.62,0,0,1-.77,0,.65.65,0,0,0-.62.51c-.14.4-.84,1.94-.85,2a.85.85,0,0,0,0,.72,1.07,1.07,0,0,0,1,.37Zm1.14-1v0H51.58c.17-.4.56-1.26.72-1.69h.45v1.68Z"/>
    <path class="cls-1" d="M57.46,41.72l1.14-.1a.38.38,0,0,0,.32-.16.65.65,0,0,0,0-.66c-.27-.63-1.63-3.42-1.69-3.54v0s-.29-.37-.59-.26h0l-.74.45a.58.58,0,0,0-.26.79c.2.54,1,3,1,3v0c0,.2.27.57.93.51Zm-.89-3.63c.32.67.94,1.94,1.27,2.66l-.45,0h0c-.16-.5-.62-2-.85-2.68l0,0Z"/>
    <path class="cls-1" d="M54.37,41.9l1.59,0a.54.54,0,0,0,.4-.2.57.57,0,0,0,0-.56l-1-2.84v0a.55.55,0,0,0-.69-.31,6.83,6.83,0,0,1-.76.23l0,0s-.2.14-.21.53.11,2.51.12,2.61.14.61.52.59Zm.39-.95c0-.77-.08-1.62-.09-2h0l.68,2-.59,0Z"/>
    <path class="cls-1" d="M59.83,41.5c.44,0,1.12-.17,1.21-.18a.73.73,0,0,0,.58-.3,1,1,0,0,0-.11-1C61,39,59,36,58.91,35.78a.5.5,0,0,0-.33-.27.51.51,0,0,0-.43.18l-.73.67a.77.77,0,0,0-.18.93C57.5,37.84,59,41,59,41v0a.74.74,0,0,0,.79.48ZM58.13,37l.27-.26c.53.84,1.82,2.9,2.26,3.72l-.81.12c-.22-.45-1.42-2.93-1.72-3.58Z"/>
    <path class="cls-1" d="M35.59,74.52c-2-1-3.9-.17-3.9,1.62,0,4.13,8.48,3.51,7.09-3.63-.81-4.11-3.3-9.38-3.91-17.08s3.51-10.21,3.51-10.21V43.27C31.85,46.45,33.14,60.46,35.09,67s.5,7.53.5,7.53Z"/>
    <path class="cls-1" d="M100.49,76.14c0-1.79-1.9-2.57-3.9-1.62,0,0-1.46-1,.5-7.53s3.24-20.54-3.29-23.72v1.95s4.13,2.51,3.51,10.21-3.1,13-3.91,17.08c-1.39,7.14,7.09,7.76,7.09,3.63Z"/>
    <path class="cls-1" d="M33,80.36l-4,3.26c-4.63-3.58-6.67.65-6.67.65a6.46,6.46,0,0,1,3.09.16c-3.57,1-2.68,3.25-2.68,3.25s3.66-2.19,5.2.33a4.72,4.72,0,0,1-.48,5.77c6.09,0,4.06-8.13,4.06-8.13l5.37-5.29Z"/>
    <path class="cls-1" d="M108.93,84.27s-2-4.23-6.67-.65l-4-3.26h-3.9l5.36,5.29s-2,8.13,4.07,8.13a4.73,4.73,0,0,1-.49-5.77c1.55-2.52,5.2-.33,5.2-.33s.9-2.28-2.68-3.25a6.46,6.46,0,0,1,3.09-.16Z"/>
    <path class="cls-1" d="M38.26,49.86l.06-3.24a2.32,2.32,0,0,1-1.22,1.45c-.58.35-.29.75-.29.75a1.36,1.36,0,0,1,1.45,1Z"/>
    <path class="cls-1" d="M37.56,58.24c.24,2.2.81,1.39.81,1.39s-.16-3.63-.23-4.34-2.21-.33-2.25.41.4,3.87.4,3.87l.64-.12-.12-2.71s.52-.7.75,1.5Z"/>
    <path class="cls-1" d="M38,65.81c.54.72.61-2.9.44-3.59,0,0-1.63-.49-1.47.35a8,8,0,0,0,1,3.24Z"/>
    <path class="cls-1" d="M36,51.8c0,.72,2.18.43,2.18.43V51.07S36,50.73,36,51.8Z"/>
    <path class="cls-1" d="M38.14,54V52.87S36,52.52,36,53.59c0,.72,2.18.43,2.18.43Z"/>
    <path class="cls-1" d="M44.12,93.88a.67.67,0,1,0-.67.67.67.67,0,0,0,.67-.67Z"/>
    <path class="cls-1" d="M95.57,86.53a.68.68,0,1,0,.67.68.67.67,0,0,0-.67-.68Z"/>
    <path class="cls-1" d="M94,87.53a.67.67,0,0,0-.67-.67.67.67,0,1,0,0,1.34.67.67,0,0,0,.67-.67Z"/>
    <path class="cls-1" d="M91.93,87.85a.67.67,0,1,0-.67.67.67.67,0,0,0,.67-.67Z"/>
    <path class="cls-1" d="M37.2,99.71l.35-4s-.35-.81-1.53-.21l-.21,3.06s-.7,1.15-2.16-.14l.21-3.13A1.11,1.11,0,0,0,32.43,95l-.25,4.15a3.53,3.53,0,0,0,5,.52Z"/>
    <path class="cls-1" d="M34.81,98.07a.42.42,0,0,0,.44-.39l.07-1.33a.41.41,0,0,0-.39-.44.42.42,0,0,0-.44.39l-.08,1.33a.42.42,0,0,0,.4.44Z"/>
    <path class="cls-1" d="M42.87,100.55l.33-3.86s-.33-.77-1.46-.2l-.2,2.93s-.67,1.1-2.07-.14l.2-3a1,1,0,0,0-1.36-.2l-.24,4a3.37,3.37,0,0,0,4.8.5Z"/>
    <path class="cls-1" d="M40.58,99a.39.39,0,0,0,.42-.37l.07-1.27a.39.39,0,0,0-.37-.42.4.4,0,0,0-.42.38l-.08,1.26a.4.4,0,0,0,.38.42Z"/>
    <path class="cls-1" d="M47.93,101l.14-2s-.18-1-1.17-.31l-.13.9s-.54.71-.45-.54l.09-1.26s-.31-.4-.63.14l0,1.61s-.27.27-.76,0l.17-2.29s-.31-.94-1.25-.22l-.18,3.54s1.39,2.46,4.21.49Z"/>
    <path class="cls-1" d="M34.85,92.4a.67.67,0,0,0-1.34,0,.67.67,0,1,0,1.34,0Z"/>
    <path class="cls-1" d="M38.17,92.9a.68.68,0,1,0-.67.67.67.67,0,0,0,.67-.67Z"/>
    <path class="cls-1" d="M40.81,93.34a.67.67,0,1,0-1.34,0,.67.67,0,1,0,1.34,0Z"/>
    <path class="cls-1" d="M37.54,81.7l.05,2.37,1.52,1.3s.8-3-1.57-3.67Z"/>
    <path class="cls-1" d="M39.78,87.88c-.18.22-.49.67-.67-.13S38.26,87,37.9,87s-.85,1.48-1.17.45-.49-1.57-1.74-1.35V88.6L41.21,90s0-1.65-.27-1.92-1-.4-1.16-.18Z"/>
    <path class="cls-1" d="M41.44,91.06a40.39,40.39,0,0,0-6.32-1.43l0,1,6.49,1.52s.23-.22-.13-1.07Z"/>
    <path class="cls-1" d="M99.47,99.19,99.23,95a1.11,1.11,0,0,0-1.43.21L98,98.38c-1.47,1.29-2.17.14-2.17.14l-.21-3.06c-1.18-.6-1.53.21-1.53.21l.35,4a3.53,3.53,0,0,0,5-.52Z"/>
    <path class="cls-1" d="M96.41,97.68a.42.42,0,0,0,.44.39.41.41,0,0,0,.39-.44l-.08-1.33a.42.42,0,0,0-.83,0l.08,1.33Z"/>
    <path class="cls-1" d="M93.58,100.05l-.23-4a1.06,1.06,0,0,0-1.37.2l.2,3c-1.4,1.24-2.06.14-2.06.14l-.2-2.93c-1.14-.57-1.47.2-1.47.2l.33,3.86a3.37,3.37,0,0,0,4.8-.5Z"/>
    <path class="cls-1" d="M91,96.92a.4.4,0,0,0-.38.42l.07,1.27a.41.41,0,0,0,.43.37.39.39,0,0,0,.37-.42l-.07-1.26a.41.41,0,0,0-.42-.38Z"/>
    <path class="cls-1" d="M84.89,99.53l-.14-.9c-1-.72-1.16.31-1.16.31l.13,2c2.82,2,4.21-.49,4.21-.49l-.18-3.54c-.94-.72-1.25.22-1.25.22l.18,2.29c-.49.31-.76,0-.76,0l0-1.61c-.31-.54-.63-.14-.63-.14L85.33,99c.09,1.25-.44.54-.44.54Z"/>
    <path class="cls-1" d="M16.75,21.22A.89.89,0,0,0,17.38,20l-2-5.13-.54.21,2,5c.17.43.09.61-.19.72s-.46,0-.63-.4l-2-5-.54.22,2,5.13a.87.87,0,0,0,1.27.47Z"/>
    <polygon class="cls-1" points="19.1 20.34 17.49 14.91 17.5 14.91 19.82 20.13 20.62 19.89 18.8 13.78 18.31 13.93 19.87 19.16 19.85 19.16 17.61 14.14 16.79 14.38 18.61 20.49 19.1 20.34 19.1 20.34"/>
    <polygon class="cls-1" points="22.19 19.49 20.62 13.31 20.06 13.46 21.63 19.64 22.19 19.49 22.19 19.49"/>
    <polygon class="cls-1" points="24.42 18.97 23.75 12.59 23.18 12.71 23.89 18.49 23.87 18.5 22.04 12.97 21.47 13.1 23.59 19.16 24.42 18.97 24.42 18.97"/>
    <polygon class="cls-1" points="27.35 18.37 27.25 17.89 26.31 18.07 25.81 15.55 26.71 15.37 26.61 14.89 25.71 15.07 25.26 12.79 26.21 12.6 26.11 12.12 24.59 12.41 25.83 18.67 27.35 18.37 27.35 18.37"/>
    <path class="cls-1" d="M28.84,18.1l-.52-3L28.7,15c.27,0,.46,0,.52.31L29.68,18l.57-.1-.47-2.68c-.07-.44-.34-.52-.75-.47v0c.44-.1.59-.3.5-.79l-.27-1.59c-.11-.63-.47-.66-1-.57l-1.07.19,1.1,6.28.57-.1Zm-1-5.8.33-.05c.29-.05.49,0,.56.34L29,14c.07.37-.08.48-.35.53l-.38.06-.4-2.29Z"/>
    <path class="cls-1" d="M30.52,13a1.38,1.38,0,0,0,.36.76L32,15.14a1.15,1.15,0,0,1,.25.57l.14.88c0,.3,0,.49-.28.53s-.39-.12-.44-.42l-.12-.82-.58.08.13.87a.83.83,0,0,0,1.09.78.86.86,0,0,0,.78-1.07l-.15-1a1.67,1.67,0,0,0-.33-.74l-1.16-1.43a1.15,1.15,0,0,1-.21-.55L31,12.17c0-.25,0-.44.27-.48s.36.13.4.38l.11.77.58-.09-.12-.81a.79.79,0,0,0-1-.74.83.83,0,0,0-.77,1.07l.12.76Z"/>
    <polygon class="cls-1" points="34.57 17.2 33.69 10.89 33.12 10.97 34 17.28 34.57 17.2 34.57 17.2"/>
    <path class="cls-1" d="M36.69,16.92c.79-.1.93-.52.85-1.14L37,11.5c-.07-.62-.32-1-1.11-.9l-1,.12.8,6.33,1-.13Zm-.84-5.82c.39,0,.52.06.57.43L37,15.89c.05.37-.06.51-.45.56l-.3,0-.68-5.34.31,0Z"/>
    <path class="cls-1" d="M39,14.87l1-.11.43,1.73.58-.07-1.63-6.23-.79.08-.24,6.44.58-.06L39,14.87Zm0-4.2h0l.84,3.6-.89.1,0-3.7Z"/>
    <path class="cls-1" d="M42.85,16.25c.79-.08.95-.5.89-1.12l-.41-4.29c-.06-.63-.29-1-1.08-.94l-1,.09.6,6.35,1-.09Zm-.66-5.85c.39,0,.52.08.56.45l.41,4.38c0,.36-.07.5-.46.54l-.31,0-.51-5.36.31,0Z"/>
    <polygon class="cls-1" points="46.88 15.9 46.47 10.25 46.48 10.25 47.63 15.85 48.46 15.79 47.99 9.43 47.48 9.46 47.88 14.91 47.87 14.91 46.75 9.52 45.9 9.58 46.37 15.94 46.88 15.9 46.88 15.9"/>
    <path class="cls-1" d="M49.94,13.92l1-.06.35,1.75.58,0L50.57,9.26l-.8.05-.54,6.42.58,0,.13-1.78Zm.25-4.19h0l.67,3.64-.9.05.22-3.69Z"/>
    <path class="cls-1" d="M53.51,15.54a.8.8,0,0,0,.86-.92l0-.91-.59,0,0,.89c0,.27-.08.41-.31.42s-.33-.12-.34-.39L52.9,10c0-.27.08-.41.31-.42s.33.12.35.39l0,.82.58,0,0-.83a.91.91,0,0,0-1.82.09l.23,4.71a.82.82,0,0,0,1,.83Z"/>
    <polygon class="cls-1" points="55.85 15.38 55.59 9.02 55.01 9.04 55.26 15.41 55.85 15.38 55.85 15.38"/>
    <path class="cls-1" d="M58,15.36c.78,0,1-.48,1-1.11l-.14-4.32c0-.63-.27-1.07-1.05-1s-1,.49-1,1.11l.13,4.33c0,.62.27,1.07,1.06,1Zm-.19-6c.37,0,.45.23.46.59l.13,4.28c0,.36,0,.61-.42.62s-.45-.23-.46-.59L57.38,10c0-.35,0-.6.42-.61Z"/>
    <polygon class="cls-1" points="60.61 15.24 60.5 9.57 60.52 9.57 61.36 15.23 62.19 15.21 62.07 8.84 61.55 8.85 61.66 14.3 61.64 14.3 60.82 8.86 59.98 8.88 60.09 15.25 60.61 15.24 60.61 15.24"/>
    <path class="cls-1" d="M63.76,13.43h1L65,15.19h.58l-1-6.37h-.79L63,15.2h.59l.22-1.77Zm.48-4.17h0l.46,3.67h-.9l.42-3.67Z"/>
    <polygon class="cls-1" points="67.97 14.7 67.01 14.69 67.03 8.81 66.45 8.81 66.42 15.19 67.97 15.19 67.97 14.7 67.97 14.7"/>
    <path class="cls-1" d="M70.68,13.46l1,0,.2,1.77.58,0-.8-6.4h-.8l-1.06,6.35h.58l.27-1.76Zm.59-4.15h0L71.66,13l-.9,0,.51-3.66Z"/>
    <path class="cls-1" d="M74.21,15.37c.5,0,1-.17,1.06-.88L75.45,9l-.59,0-.17,5.33c0,.46-.16.6-.46.59s-.44-.16-.42-.62L74,8.93l-.58,0-.18,5.52c0,.71.5.93,1,.94Z"/>
    <polygon class="cls-1" points="76.75 15.41 77.33 15.44 77.59 9.56 78.24 9.59 78.26 9.1 76.37 9.01 76.35 9.51 77 9.54 76.75 15.41 76.75 15.41"/>
    <path class="cls-1" d="M79.86,15.62c.78,0,1-.4,1.08-1l.24-4.32c0-.63-.18-1.09-1-1.14s-1,.4-1.08,1l-.23,4.32c0,.63.17,1.09,1,1.14Zm-.38-1.12.23-4.29c0-.35.11-.59.48-.57s.42.27.4.62l-.23,4.29c0,.35-.1.59-.47.57s-.43-.27-.41-.62Z"/>
    <polygon class="cls-1" points="82.84 10.06 82.86 10.06 83.21 15.77 84.04 15.82 84.47 9.46 83.95 9.43 83.59 14.87 83.57 14.87 83.22 9.38 82.38 9.32 81.95 15.68 82.46 15.72 82.84 10.06 82.84 10.06"/>
    <path class="cls-1" d="M86.11,16c.78.06,1.06-.37,1.11-1l.35-4.32c.05-.62-.15-1.09-.94-1.15s-1,.36-1.11,1l-.35,4.31c0,.63.16,1.09.94,1.16Zm-.35-1.13.34-4.28c0-.35.12-.59.49-.56s.42.28.39.64L86.64,15c0,.35-.12.6-.49.57s-.42-.29-.39-.64Z"/>
    <polygon class="cls-1" points="89.27 10.35 89.28 10.36 89.38 16.27 90.1 16.34 91.34 10.56 91.36 10.56 90.78 16.41 91.3 16.46 91.92 10.12 91.02 10.03 89.81 15.64 89.8 15.64 89.7 9.9 88.8 9.81 88.18 16.16 88.69 16.21 89.27 10.35 89.27 10.35"/>
    <path class="cls-1" d="M93,14.88l1,.12,0,1.78.58.07-.19-6.44-.79-.1L92,16.54l.58.07L93,14.88Zm1-4.08h0l0,3.7-.9-.1L94,10.8Z"/>
    <polygon class="cls-1" points="102.82 12.08 102.84 12.08 102.49 17.99 103.2 18.11 104.88 12.44 104.89 12.44 103.88 18.23 104.38 18.32 105.48 12.04 104.6 11.89 102.97 17.39 102.95 17.39 103.29 11.66 102.41 11.5 101.31 17.78 101.81 17.87 102.82 12.08 102.82 12.08"/>
    <polygon class="cls-1" points="106.92 18.84 107.01 18.35 106.07 18.16 106.58 15.64 107.48 15.82 107.58 15.34 106.68 15.15 107.15 12.88 108.09 13.07 108.19 12.59 106.68 12.28 105.4 18.53 106.92 18.84 106.92 18.84"/>
    <polygon class="cls-1" points="107.46 18.95 108.02 19.08 109.18 16.59 109.2 16.6 109.14 19.34 109.71 19.47 109.64 16.16 111.09 13.25 110.53 13.12 109.45 15.52 109.43 15.52 109.53 12.88 108.96 12.75 108.99 16.01 107.46 18.95 107.46 18.95"/>
    <polygon class="cls-1" points="110.96 19.8 112.59 13.64 112.02 13.49 110.39 19.65 110.96 19.8 110.96 19.8"/>
    <path class="cls-1" d="M112.85,20.4a.81.81,0,0,0,1.13-.57l.26-.87-.55-.17-.27.85c-.08.26-.21.36-.43.29s-.27-.22-.19-.48L114.17,15c.08-.26.22-.36.44-.29s.27.22.19.48l-.24.79.55.17.25-.8a.91.91,0,0,0-1.74-.54l-1.38,4.51a.8.8,0,0,0,.61,1.11Z"/>
    <path class="cls-1" d="M115.37,21.29a.91.91,0,0,0,1.35-.61l1.63-4a1,1,0,1,0-1.9-.77l-1.63,4a.92.92,0,0,0,.55,1.38Zm0-1.18,1.61-4c.14-.32.29-.53.64-.39s.31.4.18.73l-1.61,4c-.13.33-.29.53-.64.39s-.31-.39-.18-.72Z"/>
    <path class="cls-1" d="M10.6,19.64c1.06,1.55,1.35,2,1.35,3.23v.38a3.74,3.74,0,0,0,.73,2.85,4.29,4.29,0,0,0,3.13.93,27.54,27.54,0,0,0,4.46-.64,36.41,36.41,0,0,1,9.3-.91c-.72.73-3.08,2.61-7.91,2.09s-9.85-.71-11.61,1.79c-1,1.36-.8,3.38.47,6a.17.17,0,0,0,.19.08,4.58,4.58,0,0,0,2.86-5.35,19.92,19.92,0,0,1,4.3,1.08l.95.31c-3,.84-5.36,2.09-5.36,3.4,0,.81.9,1.11,3.05,2.09s4.36,1.8,6.3,2.76c5.51,2.72,9.52,5.08,10.11,4.51.79-.78-12.41-6-9.29-10.53,1.75-2.54,4.62.83,2.25,1.36s3.42,6.4,10.22,8.41a10.46,10.46,0,0,1,2.15-1.75s1-.77-.48-1.16-10.84-3.26-7-6.82c1.14-1.06,1.25-1.8.75-2.31a9.26,9.26,0,0,0,3.21-1.95A3.66,3.66,0,0,0,35.94,27c0-2.43-3-5.78-4.18-6.94A224.55,224.55,0,0,1,66,17.6,222.35,222.35,0,0,1,101,20.15c-1.1,1.13-4.22,4.53-4.22,7A3.62,3.62,0,0,0,98,29.67a8.15,8.15,0,0,0,2.09,1.46c-1,.59-1.51,1.23-1.51,1.73a3,3,0,0,0,1.88,2.76c.24,2.42-5.49,5-7.07,5.65a11.09,11.09,0,0,1,2,1,13,13,0,0,0,8.08-5.91c1.22-1.6-1.93-.75-1.93-2.35s4.71-2.77,3.76,1.6c-.86,3.94-6.53,6.42-9,7.33a8.1,8.1,0,0,1,1,.91c.13.22.46.72.69.64s.08-1,.53-.85.81.29,1-.17.16-.92.57-.66.45.51.83.37-.32-1.22.53-.95,1-.22.81-.65.36-.2.9.15.62-.35.33-.78.08-.78.59-.3,1.42.34.75-.36.11-1.31.83-.75.64.22.24-.46-.08-.93.83-.34,1.53.36.54-.42-.59-1.31.43-.73,2.25.85,1.12-.14-1.47-1.7-.13-1,2.41.56.37-.7,1.08-.1,1.8.51.86-.36-.54-1.14-.56-1,1.29-.1,1.85.07.32-.51-2.14-1.67-.27-.73,3.78,1.1,1.88.1a10.08,10.08,0,0,1-1.74-1.06c.56-.2,1.27,0,2.58.89,2.48,1.75.09,3.64-2,4.45-3.15,1.21-4.42,2.46-7.8,4.86a12.74,12.74,0,0,1-6.41,2,5.19,5.19,0,0,1,.46,1.11,18.75,18.75,0,0,0,8.33-2.35c2.71-1.65,7.35-4.3,10.73-5.11,2.63-.62,5.08-2,1.1-4.85a24.93,24.93,0,0,0-4.06-2.39l.22-.07a19.43,19.43,0,0,1,4.31-1.08,4.6,4.6,0,0,0,2.86,5.35.17.17,0,0,0,.19-.08c1.27-2.63,1.43-4.66.47-6-1.76-2.5-6.86-2.31-11.61-1.8-5.36.58-7.67-1.79-8.08-2.27a12.22,12.22,0,0,1,2,0c1.47.12,3.19.41,4.85.69,3.9.65,7.93,1.33,9.75-.05a2.6,2.6,0,0,0,1-1.88,11,11,0,0,1,1.82-4.48c.8-1.35,1.49-2.51,1.15-3.56a3.41,3.41,0,0,0-2.09-1.8C116.27,12.1,108.27,10,99,8.59A218.55,218.55,0,0,0,65.61,6.11c-22.15,0-42.76,2.8-53.79,7.31-.08,0-2.2.76-2.73,2.31a2.6,2.6,0,0,0,.44,2.33c.42.64.78,1.16,1.07,1.58Zm1.53-5.34h0C23.1,9.82,43.57,7.05,65.61,7.05c27,0,46.82,4.4,55.54,8.17.89.39,1.43.82,1.57,1.24.21.64-.38,1.64-1.07,2.8a11.75,11.75,0,0,0-1.94,4.86,1.7,1.7,0,0,1-.63,1.22l-.06,0a1.81,1.81,0,0,0-.54-.9c-3.69-3.69-26.17-7.81-52.5-7.81a219.84,219.84,0,0,0-37.45,3,69.56,69.56,0,0,0-11.37,2.84c-2.28.85-3.65,1.7-4.1,2.53a4.67,4.67,0,0,1-.18-1.75v-.39c0-1.56-.38-2.11-1.51-3.76-.29-.42-.65-.93-1.06-1.57A1.64,1.64,0,0,1,10,16c.31-.92,1.69-1.58,2.15-1.74ZM110,25.22c-1.68-.29-3.41-.58-4.93-.7-3.84-.29-6.11,1.09-7.32,2.25.32-1.87,2.87-4.81,4.49-6.41,8.53,1.47,14,3.29,15.54,4.78a.78.78,0,0,1,.29.45.49.49,0,0,1,0,.2c-1.89.46-5.11-.08-8-.57Zm-8.12.62.38.22c.5.59,3.07,3.23,8.9,2.6,2.42-.27,7.77-.85,10.07.75-2.39-.35-4.48.33-6.68,1.06l-1.25.4a16.47,16.47,0,0,0-12.17-.27A8,8,0,0,1,98.69,29,3.66,3.66,0,0,1,97.94,28a7.16,7.16,0,0,1,3.92-2.32.16.16,0,0,0,.06.18Zm18.23,4.41a8,8,0,0,1,2.06.31,5.42,5.42,0,0,1-.49,3.87,3.56,3.56,0,0,1-1.57-4.18ZM34.84,26.1c-4.32-2.6-10.32-1.46-14.75-.62a26.93,26.93,0,0,1-4.28.61A5.23,5.23,0,0,1,14,25.82a.43.43,0,0,1-.11-.23.84.84,0,0,1,.29-.45c1.54-1.54,7.37-3.42,16.39-4.92,1.48,1.47,3.71,4,4.32,5.88Zm-4.4,4.76a20.73,20.73,0,0,0-7-.29,28.93,28.93,0,0,0-2.86.48c-.84-.23-1.65-.5-2.44-.76-2.2-.72-4.29-1.41-6.68-1.06,2.3-1.59,7.65-1,10.07-.75,5.83.63,8.4-2,8.9-2.6l.38-.22h0A9.62,9.62,0,0,1,35,27.3c-.24,1.36-1.9,2.73-4.53,3.56ZM11,34.26a5.43,5.43,0,0,1-.49-3.87,7.6,7.6,0,0,1,2.06-.32A3.57,3.57,0,0,1,11,34.26Z"/>
    <path class="cls-1" d="M69.3,38.39a.13.13,0,0,0-.12,0,.13.13,0,0,0-.05.12,3.46,3.46,0,0,0,3.72,3.07c3,0,5.76-2.44,6.4-3,.42.67,2,3.12,3.5,3,.61-.07,1.1-.6,1.45-1.56a4.31,4.31,0,0,0,3.22,1.48c1.26-.08,2.41-1,3.42-2.62a.14.14,0,0,0,0-.17.14.14,0,0,0-.16,0s-2.91.89-4.71-.43a4.26,4.26,0,0,1-1.45-3.64,18.42,18.42,0,0,1,.45-5,6.71,6.71,0,0,0,3,.82c3.23.07,3.84-1.88,3.87-2a.17.17,0,0,0,0-.14.16.16,0,0,0-.14,0,5.74,5.74,0,0,1-2.3-.06c1.48-.5,2.56-.52,3.11-.05a1.66,1.66,0,0,1,.42,1.45.15.15,0,0,0,.08.16.15.15,0,0,0,.18,0c1.15-1.27,1.57-2.31,1.28-3.2-.49-1.51-3-2.15-5.29-2.62-3.3-.69-4.52-4.3-4.53-4.33a.15.15,0,0,0-.09-.1.2.2,0,0,0-.13,0,6.27,6.27,0,0,0-1.87,1.53l-2.23-2.5a.16.16,0,0,0-.11-.05.14.14,0,0,0-.12.06,3.41,3.41,0,0,0-.39,3,3.57,3.57,0,0,1-1-2.09.15.15,0,0,0-.1-.13.16.16,0,0,0-.16,0s-2.28,2.13,0,5.26c-.5.2-2.26.69-5.73-.29a.13.13,0,0,0-.12,0,.14.14,0,0,0-.07.1,2.79,2.79,0,0,0,.51,2.2,4.58,4.58,0,0,0,3.54,1.39c-.57.42-2.12,1.19-5.22.3a.14.14,0,0,0-.15,0,.16.16,0,0,0,0,.15s1,3.74,5.7,3.11a7.53,7.53,0,0,1-7.08,1.85.17.17,0,0,0-.14,0,.12.12,0,0,0,0,.12,3.72,3.72,0,0,0,1.64,3c1.37.75,3.4.34,6-1.2-.36,1-1.91,3.68-7.8,3.1Zm8.09-10.15a.77.77,0,0,0,.1-.82.78.78,0,0,0-.7-.45c-1.55,0-2.65-.38-3.18-1a1.57,1.57,0,0,1-.3-.59c3.75.85,5.4,0,5.58-.12a.76.76,0,0,0,.37-.52.72.72,0,0,0-.14-.62,3.54,3.54,0,0,1-.85-2.91,6.11,6.11,0,0,0,1.24,1.41.77.77,0,0,0,1,0,.78.78,0,0,0,.24-.94A3.11,3.11,0,0,1,80.42,20L82,21.76a2.84,2.84,0,0,0-.17.49,3.16,3.16,0,0,0,.27,2.17c-2.59,1.68-2.68,3.24-2.55,3.94a5.15,5.15,0,0,1-3.2,2.21,4.16,4.16,0,0,1-3.69-1.13c3.38.44,4.7-1.13,4.75-1.2Zm6.69-7.55a8.78,8.78,0,0,0,1.13,1.75l-1.27.12-.83-.92a4.62,4.62,0,0,1,1-.95Zm9.27,7a1.73,1.73,0,0,0-.31-.35c-.9-.76-2.36-.76-4.46,0a.79.79,0,0,0-.07,1.44,4.4,4.4,0,0,0,1.2.32A4.69,4.69,0,0,1,88,29.4a5.72,5.72,0,0,1-2.6-.75,3.75,3.75,0,0,1,1.1-1l.43-.31a7.11,7.11,0,0,0,1.78-2.63l.25.06c1.27.26,4.23.88,4.59,2a1.38,1.38,0,0,1-.15,1ZM88.84,39.84a2.62,2.62,0,0,1-1.48.68,3.7,3.7,0,0,1-2.61-1.33.76.76,0,0,0-.43-.27A6.64,6.64,0,0,1,83.71,37L84,37a4.17,4.17,0,0,0,1.45,2,5.48,5.48,0,0,0,3.43.91ZM82.7,22.57l.59.68a.79.79,0,0,0,.58.25l1-.07a1.27,1.27,0,0,1-.51.73,1.7,1.7,0,0,1-1.38,0,1,1,0,0,0-.07-.15,2.1,2.1,0,0,1-.24-1.46Zm3.61,4-.4.29a5,5,0,0,0-1.36,1.3l-.38-.28A4.48,4.48,0,0,1,86,26.31,2.24,2.24,0,0,0,87.09,24a6.13,6.13,0,0,0,.68.33,6.21,6.21,0,0,1-1.46,2.19Zm-6.09,11.5c-.22-.08-.56-.49-.45-2.28a5.27,5.27,0,0,0,1.45-1.34,2.37,2.37,0,0,0,.55,2,2,2,0,0,0,.34.25c-.58.72-1.43,1.54-1.89,1.37Zm-.14-6h0a4.31,4.31,0,0,0,1.5-.93,3.54,3.54,0,0,0,.09.82C80.4,34.19,79.23,35,78.59,35.1a11,11,0,0,1,1.49-3Zm3.6,3.8a1.06,1.06,0,0,1-1.07-.19c-.54-.58-.25-2.11,0-3.1a7.54,7.54,0,0,0,1-.33c0,.66-.06,1.42-.06,2.29a8,8,0,0,0,.11,1.33Zm-.92-10.79a2.69,2.69,0,0,0,2,0,2.19,2.19,0,0,0,1.14-1.68H86l.06.23,0,.07h0s.32,1.41-.52,1.83a5.57,5.57,0,0,0-2.13,1.78c-.27-.26-.42-.44-.43-.45a.78.78,0,0,0-1.35.32c0,.06-.28.33-1.22.59.09-.56.54-1.51,2.25-2.6l.06,0Zm.09,12.46a10.93,10.93,0,0,0,.64,1.71.82.82,0,0,0-.09.19c-.22.7-.51,1.13-.76,1.16-.45,0-1.26-.7-2-1.62a4.94,4.94,0,0,0,2.18-1.44Zm-.17-6.07A6.27,6.27,0,0,1,82.5,29a.15.15,0,0,0-.08-.16.15.15,0,0,0-.18,0,16.62,16.62,0,0,1-1.71,1.53,3,3,0,0,1-.29-1.6.54.54,0,0,0,.05-.11c1.49-.34,2-.81,2.19-1.11A10.07,10.07,0,0,0,84.14,29a9.43,9.43,0,0,0-.41,2,3.59,3.59,0,0,1-1,.48Zm-5,.3a.76.76,0,0,0,.2-.53,3.67,3.67,0,0,0,1.32-.95,6.36,6.36,0,0,0,.24.86,16.36,16.36,0,0,1-2.2,3,.65.65,0,0,0-.33.11c-2.46,1.49-4.34,2-5.43,1.37a2.11,2.11,0,0,1-1-1.2,8.73,8.73,0,0,0,7.15-2.7Zm.11,4.17a1.82,1.82,0,0,0,.88.17,9.62,9.62,0,0,0,.26,1.5.7.7,0,0,0-.25.17s-2.89,2.91-5.87,2.91a2.6,2.6,0,0,1-2.51-1.3c5.08.17,6.88-2.15,7.49-3.45Z"/>
    <path class="cls-1" d="M18.44,97.09c.08-.43.1-1-.18-1.09s-.54.23-.62.34l0,0h0a1.71,1.71,0,0,1-1.7.78,2.56,2.56,0,0,0-2.15,1,1.35,1.35,0,0,0-.17,1.33c.34.79.93,1.22,1.26,1.12.06,0,.27-.12.19-.49l0-.16a3.18,3.18,0,0,1-.09-.45.58.58,0,0,1,.25.1,1.11,1.11,0,0,0,1.18.07A.6.6,0,0,0,16.5,99a2.69,2.69,0,0,0-.19-.47,1,1,0,0,1-.1-.24s.1-.08.59-.12c1.16-.09,1.48-.16,1.64-1.09Zm-3.27,1.4a1.08,1.08,0,0,0-.19,0l.18-.09s0,.08,0,.12Z"/>
    <path class="cls-1" d="M124.62,95.92a1.67,1.67,0,0,1-.66-.38,1.89,1.89,0,0,0-1.37-.51.83.83,0,0,0-.78.33c-.26.39-.15,1.08.33,2.11a1.41,1.41,0,0,1,.16.53,14.65,14.65,0,0,1-1.58-.54.83.83,0,0,0-.89,0c-.6.42-.71,1.75-.67,3a5.79,5.79,0,0,0-3.51,1.92,2.22,2.22,0,0,0-.35-1.47,1.35,1.35,0,0,0-1.08-.28,3.78,3.78,0,0,0-1.67.56,3.74,3.74,0,0,0-.08-.89.78.78,0,0,0-.59-.47,1.69,1.69,0,0,0-1.56.4.8.8,0,0,0-.23.78,2.3,2.3,0,0,0,1.22,1.26l-.21.28a1.24,1.24,0,0,0-.25,1.15c.24.69,1.18,1.16,2.16,1.5-1.26,1.21-2.78,2.24-4.37,1.83-.26-.3-1.86-2-5.07-1.2l-.34.08c-3.17.76-5.67,1.36-6.91,4.46a6.21,6.21,0,0,1-1.07,1.81c-.76,1-1.36,1.73-1.88,7.6A24.15,24.15,0,0,0,89,121.62a3,3,0,0,1-1,.19,3.52,3.52,0,0,0-2.84,1.45,1.57,1.57,0,0,1-1.45.36,1.69,1.69,0,0,0-1.54.38,2.6,2.6,0,0,1-1.15.29,3.61,3.61,0,0,1,2.08-2.21c1.23-.33,4.22-1.27,5.47-2.87l0,0a4.84,4.84,0,0,1,1.63-1.84c.64-.5,1.21-.93.82-1.86a3,3,0,0,1,.26-2.14c.26-.71.52-1.45.1-1.93a4,4,0,0,0,2-1.14.7.7,0,0,0,.08-.54,3.45,3.45,0,0,1,.13-1.23c.18-.8.35-1.61,0-2.09a1.06,1.06,0,0,0-.82-.36,1.62,1.62,0,0,0-1-.89,1.64,1.64,0,0,0-1.43.55,1.71,1.71,0,0,0-1.45,0,1.25,1.25,0,0,0-.42,1.17l-1,1.55c-.36-.09-1.48-.19-3.53,1.12l-.82.52c-2,1.27-3.62,2.26-4.14,4.66a13.77,13.77,0,0,1-.59,2.19,4.2,4.2,0,0,0-.44-.29,15.28,15.28,0,0,0-1.48-.71,5.18,5.18,0,0,1-2.17-1.38c-1-1.38-2.51-1.47-4.4-.29-2.15,1.35-3.79,1.1-6.07.18-.38-.16-.83-.33-1.3-.5-2.45-.93-5.8-2.21-7-3.9-.23-.33-.44-.64-.64-1-1-1.6-1.88-2.87-4.09-2.94a3.3,3.3,0,0,0-3.2.53l0,0a.18.18,0,0,1-.14.08.43.43,0,0,1-.31-.16c-.53-.53-1-.66-2.08.1a9.7,9.7,0,0,0-2.52,2.79.43.43,0,0,1-.2-.22c-.81-1.89-1.73-3-2.66-3.27a4.57,4.57,0,0,1-2-1.71A11.45,11.45,0,0,0,36.46,103a1.48,1.48,0,0,0-1.13-.43c-.7.08-1.25.79-1.83,1.55l-.17.23a14.75,14.75,0,0,1-2.63,2.33c-.39.29-.75.57-1.06.83l-.07.06a1.88,1.88,0,0,1-.81-.86,13.07,13.07,0,0,0-2.19-3.56,2.89,2.89,0,0,0-.45-2.38c.65,0,1.13-.4,1.56-1.27a1,1,0,0,0,.05-1c-.26-.44-1-.68-2.21-.73a3.46,3.46,0,0,0-2.35,1.3,6.09,6.09,0,0,0-2.12.38,1.12,1.12,0,0,0-.33-1.16c-1.38-1.16-3.57.94-4.62,2a2.45,2.45,0,0,0-.79,2.1h0l-.18,0a1.67,1.67,0,0,1-.31-.07,7.77,7.77,0,0,0-1.26-.22c-.2-.87-.74-2.44-1.94-2.4l-.52.06a1.33,1.33,0,0,0,.05-.34,1.5,1.5,0,0,0-.43-1,1.46,1.46,0,0,0-2.07,2.07,1.78,1.78,0,0,0,.27.21,1.93,1.93,0,0,0-.65.77,1.06,1.06,0,0,0,.34,1.2c.41.39.91.85,1.49,1.36a5.56,5.56,0,0,0-.36,1.42v.07c-.27.1-.79.36-.79.82s.39.75.68,1a12.33,12.33,0,0,0,.12,2.11c-.19.27-.37.65-.11.87a2.76,2.76,0,0,0,.49.31,1.37,1.37,0,0,0,.22.3c.33.33.61.66.89,1l.18.22c-.09.44-.17,1.14.29,1.27a3.12,3.12,0,0,0,1,0,8.93,8.93,0,0,0,.85.6c.38.22.77.48,1.17.76,0,.43,0,1.14.47,1.05l.78-.13c1,.82,1.87,1.58,1.85,1.81-.35.49-1.72,1.87-2.31,1.87a.71.71,0,0,0-.61.33,2.31,2.31,0,0,0,0,2c-.29.25-1.15,1.06-.83,1.69a3.08,3.08,0,0,0,.47.6c.22.23.47.5.44.67s-.16.19-.39.28c-.72.26-1.7.71-1.94,1.57a2.44,2.44,0,0,0,.75,2.11l.06.07-.39.46s-1.31.32-.87,1.32,2.13,1.07,1.81-.5l.38-.42a2.5,2.5,0,0,0,2.2.46,1.88,1.88,0,0,0,1.19-1.76,15.14,15.14,0,0,0,5.83,1.18,1.28,1.28,0,0,0,1.19.41,1,1,0,0,0,.65-.65,23.15,23.15,0,0,0,3.06,0,1,1,0,0,0,.93.44c.49,0,.57-.36.53-.67a2.54,2.54,0,0,0,.68-.27,9.37,9.37,0,0,1,3.63-.51,3.18,3.18,0,0,0,.16.32,7.65,7.65,0,0,0,1.07,1.5c.1.11.1.11,0,.31a1.06,1.06,0,0,0,.06.84,1.38,1.38,0,0,0,1,.44h0c1,.14,1.68.22,2.17,1l.06.09c.24.39.41.66.71.73s.65-.07,1.36-.51a2.21,2.21,0,0,1,2.39.06c.11.19.61,1,1.2.93q.52,0,.84-1a1.93,1.93,0,0,1,1-.18,4.68,4.68,0,0,0,2.39-.62s2.38-1.56,3.77-2.31a3.35,3.35,0,0,1,.37,1.19c.21,1.24-5,3.63-3,6.76.25.4.51.28.51.28a1.83,1.83,0,0,1,.25-1.78c.55-.61,3.31.21,4.75-1.54a2.69,2.69,0,0,0,2.39,2,.15.15,0,0,0,.16-.13l.66-4.65A2.52,2.52,0,0,0,59.72,133a2,2,0,0,0,1.37.19c1.44,2.31,3.35,1.7,3.61,1.6.87,0,1.32-.15,1.41-.46,0-.14.15-.55-1.37-1.45-.16-.09-.21-.18-.2-.23s.13-.14.32-.17c.59-.08,1.85.29,2.87,2.23a3.74,3.74,0,0,0,4.32,1.9.15.15,0,0,0,.1-.14.15.15,0,0,0-.1-.15,1.68,1.68,0,0,1-.93-1.4,6.5,6.5,0,0,0,4.68,1.69,3.77,3.77,0,0,0,2.41-1.31.17.17,0,0,0,0-.18.18.18,0,0,0-.17-.06,2.93,2.93,0,0,1-3.44-1.18c.76-.14,2-.73,3.57-2.8a9.44,9.44,0,0,1,5,0l.79.26c2.87,1,8.83,3,12.83-.16,2.66-2.08,3.31-3.42,3.38-4.17a1.42,1.42,0,0,0,0-.43c.48.09.84.11.87.12l.08,0a17.58,17.58,0,0,1,3.07.76l.71.27c-.22.31-.66,1,0,1.33.77.37,2.64-.77,2.64.29s.9.91,2.45.24c0,0,.75-.18.83.24a1,1,0,0,0,1.06.8c.29,0,.7-.52,1.11-.92a9,9,0,0,0,1.56-.15c.52.39,1,.5,1.31.22a1.32,1.32,0,0,0,.33-.77,3.47,3.47,0,0,0,1.55-1.5,3.8,3.8,0,0,0,.25-2.39,2.11,2.11,0,0,0,.58-1.13c.13-.73-.69-.61-1.24-1.39a4.69,4.69,0,0,0-.82-1.12,2.38,2.38,0,0,1-.26-.95c-.09-1.13-1.24-1.55-1.45-.25-2.8-1.37-6.65-1.19-9.23-.57-.73.17-1.47.39-2.18.61-2.25.67-4.37,1.29-5.39.24.1-.36.73-2,3.9-3.13,2.28-.81,7.64-3,8.64-6.38,1.09.06,8.81.39,10.68-2.27,1.66-2.35,3.12-4.43,1.48-6.48a7.71,7.71,0,0,0,1.75-1.85,1.3,1.3,0,0,0,.26-1.17,1.53,1.53,0,0,0-.84-.77c.12-.2.44-.48,1.25-.66.64-.13.75-.47.76-.67,0-.51-.62-1.1-1.2-1.27ZM25.48,98.84a4.14,4.14,0,0,1,1.25.19c-.39.8-.52.84-1.31.46l-.75-.33a1.38,1.38,0,0,1,.81-.32Zm86,2.33a1.69,1.69,0,0,1-.27-.25.69.69,0,0,1,.26,0,2.81,2.81,0,0,1,0,.3Zm5.25,23.46a.86.86,0,0,0,.06.39,2.47,2.47,0,0,1-2,3.38c-3.1.9-7.21-.72-9.42-1.59l-.86-.34a22,22,0,0,0-4.54-1,1,1,0,0,0-.3,0c-1.51-.36-1.68-.8-1.68-1.9a1.44,1.44,0,0,1,1-1.42,12.93,12.93,0,0,0,4.57-.84c.7-.21,1.43-.42,2.13-.59,2.57-.62,6.48-.79,9,.77a3.59,3.59,0,0,1,1.95,3.11Zm-17.62,2.22c0,.14,0,1.22-3,3.52-3.55,2.78-8.94,1-11.84,0l0,0-.76-.25a10.29,10.29,0,0,0-5.51,0,7.65,7.65,0,0,0-.13-2.44c-.23-.73.53-1.42,1-1.77a8.6,8.6,0,0,0,2.06-.48,3.91,3.91,0,0,0,1.59-.33c-.23.42-.62,1.28-.15,1.42s2,.51,1.49-1.74a2.58,2.58,0,0,0,2-.6A.67.67,0,0,0,86,124a2.52,2.52,0,0,1,2.13-1.1,3.68,3.68,0,0,0,1.4-.3l.07,0a24,24,0,0,1,4.19-1.73l0,0a3.88,3.88,0,0,0,3.24.4l0,0a2.87,2.87,0,0,0,.7.57,2.85,2.85,0,0,0-.85,1.92,2.07,2.07,0,0,0,.49,1.59,3.75,3.75,0,0,0,1.57,1,.89.89,0,0,0,.12.55Zm-28.57,6.93a.9.9,0,0,0-.52.82,3.38,3.38,0,0,0,.15,1,2.56,2.56,0,0,1-1.51-1.34c-1.21-2.3-2.89-2.94-4-2.78a1.37,1.37,0,0,0-.55.18,2.74,2.74,0,0,0,.32-1c.51.07,2.07.22,2.86-.54a.81.81,0,0,0,.27.15,1.18,1.18,0,0,0,.27.06,27.17,27.17,0,0,1,4.92,3.18c.26.26.5.54.74.81a8.82,8.82,0,0,0,1.26,1.26,6.94,6.94,0,0,1-3.29-1.66.91.91,0,0,0-1-.12ZM54.73,134h0Zm.1-.28h0Zm1.59.34a1.07,1.07,0,0,0-.12-.37,12.36,12.36,0,0,0,.43-3.14.76.76,0,0,0-.4-.69.67.67,0,0,0-.69.18s.54,3.68-1.71,4.47a18.22,18.22,0,0,1-2.21.38,8.88,8.88,0,0,0-1.08.35c.24-1.84,3.31-2.42,3.3-4.36a5.4,5.4,0,0,0-1.81-3.35,9.38,9.38,0,0,1-2.33-4.13.11.11,0,0,0,0-.13c0-.17-.07-.35-.1-.52a3.33,3.33,0,0,1,.07-.7c.48-2.12,2-4.39,4.62-3.83a4.48,4.48,0,0,1,1.32.8,2.48,2.48,0,0,1,.45,1c.13,1-1.34,1.35-1.37,1.34s0-2.08-1.11-2.08a2.61,2.61,0,0,0-2.22,1.92A2.05,2.05,0,0,0,53,123.66c.41.16.76.31,1.1.46a11.56,11.56,0,0,0,1.65.61h-.16a.15.15,0,0,0-.15.11.6.6,0,0,0,.1.5,2.26,2.26,0,0,0,1.66.73c1.84.24,3.73.74,3.73,2.58a2.48,2.48,0,0,1-1.11,2.26,5.59,5.59,0,0,0-3.55-3.56c-3.13-1.13-4.28-2.2-4.74-4.38a.14.14,0,0,0-.08-.1s-.55-.27-.85,0-.25.39-.18.77a5.68,5.68,0,0,0,2.84,3.55c.41.2.84.38,1.25.56,1.56.68,3,1.33,3.67,2.58a.88.88,0,0,0-.48.67l-.61,4.22a1.44,1.44,0,0,1-.66-1.16Zm-12.06-1.56-.11-.16A.83.83,0,0,0,44,132a3.31,3.31,0,0,0-3.6-.12,4.85,4.85,0,0,1-.51.29l-.11-.17-.06-.1a3.52,3.52,0,0,0-2.92-1.47h0l-.16,0a1.17,1.17,0,0,0-.32-1.24,6.66,6.66,0,0,1-.93-1.31c-.86-1.47.51-3.68,1-4.41a8.13,8.13,0,0,1,5.43-2.28c2,0,5.44,1.26,7,1.84.17,2.68,2.58,5.13,2.7,5.25a7,7,0,0,1,.5.52c-1.36.75-3.4,2.08-3.67,2.26a3.61,3.61,0,0,1-1.88.48,2.89,2.89,0,0,0-1.54.35.91.91,0,0,0-.42.52.24.24,0,0,1,0,.08Zm-19.45-4.37c-2.83.83-6.86-1-6.9-1a.86.86,0,0,0-.85.06.91.91,0,0,0-.43.74c0,.32-.08.87-.5,1s-1.25-.12-2-1.06c-.4-.49-.6-.92-.53-1.17s.31-.5,1.27-.85a1.5,1.5,0,0,0,1.06-1,1.86,1.86,0,0,0-.7-1.64l-.2-.22a2.49,2.49,0,0,1,.53-.57.91.91,0,0,0,.29-1,2.19,2.19,0,0,1-.17-1c1.31-.23,2.93-2.26,2.94-2.29a1,1,0,0,0,.17-.83c-.29-1.38-4.72-4.14-4.76-4.17A7.83,7.83,0,0,1,12,111.18c-.29-.34-.59-.69-.95-1.05s-.54-2.58-.3-4.58a2.79,2.79,0,0,1,1-2.06,3.66,3.66,0,0,1,2.78-.12,1.62,1.62,0,0,0,.76.08,1.58,1.58,0,0,0,.31-.09l.34-.09h0a1.47,1.47,0,0,1,.28.55,5,5,0,0,0,.34.8c.24.44.84,1.24,1.53,2.17.5.67,1,1.36,1.34,1.85a52.12,52.12,0,0,1,2.56,5,8.74,8.74,0,0,1-.31,3.23.89.89,0,0,0,0,.51c-.18.57-.38,1.37-.1,1.54s.84.1,1.31-1a.87.87,0,0,0,.39-.32h0s.29-.28,2.48.16l.11,0A7.49,7.49,0,0,1,28.69,119c.2.19.57.55,1,1a36.9,36.9,0,0,0,3.16,3,5.73,5.73,0,0,0,2,.94A6.25,6.25,0,0,0,34,127a9,9,0,0,0-3.94.68c-.58.37-3,.47-4.85.36a.8.8,0,0,0-.31,0Zm-12.46-26a3.13,3.13,0,0,0-1.28.48,2.68,2.68,0,0,0-.53.48c-.51-.45-1-.86-1.31-1.21a.59.59,0,0,1-.08-.08,3.7,3.7,0,0,1,2.38-1c.26,0,.61.6.82,1.35ZM16.84,101c2.2-2.11,2.94-2.1,3.19-1.9,0,.1,0,.46-.73,1.63a4,4,0,0,0-.77,2c-.55.2-1,.41-1.36.56a2.54,2.54,0,0,0-.35-.6,1,1,0,0,0-.46-.37,1.4,1.4,0,0,1,.48-1.28Zm17.33,4,.18-.23c.31-.42.84-1.12,1.1-1.15a.76.76,0,0,1,.32.19A10.2,10.2,0,0,1,36.9,105a5.38,5.38,0,0,0,2.59,2.06c.15,0,1,.36,2,2.66a1.49,1.49,0,0,0,1,.86,1.28,1.28,0,0,0,.45.78A5.21,5.21,0,0,0,46,112.58a2.8,2.8,0,0,1,1.8.62,11.49,11.49,0,0,0,3.68,2.67,7.58,7.58,0,0,1,1.76,1.19c-2.11.22-3.8,2-4.42,4.72,0,0,0,.07,0,.11-.76-.28-1.83-.65-2.95-1a2.12,2.12,0,0,0-.24-1c-.32-.83-1.5-1.79-1.26-1a3,3,0,0,1,.06.93,1.09,1.09,0,0,0,.1.67,14.37,14.37,0,0,0-2.35-.41,1.33,1.33,0,0,0-.28-.66c-.46-.61-.59-.5-.64-.21a1.31,1.31,0,0,0,0,.87,9.37,9.37,0,0,0-3,.8,2.3,2.3,0,0,0-.09-1.11c-.13-.53-.21-1.09-.43-.72a1.71,1.71,0,0,0-.42,1.25c.05.49.2.76.41.84a6.06,6.06,0,0,0-2.24,1.71l0,.07a4.54,4.54,0,0,1-1.88-.83,24.71,24.71,0,0,1-2.27-2.08c.11-.52.27-1.45.06-1.68s-.71.06-1,.78c-.38-.39-.7-.72-.91-.9a3.33,3.33,0,0,0-.48-.36c0-.42,0-1.07-.19-1.14s-.49.34-.58.72a9.37,9.37,0,0,0-2-.7l-.1,0-.32-.06c.14-.43.33-1.07.11-1s-.68.47-1,.89a3.58,3.58,0,0,0-2,.17,12.08,12.08,0,0,0,.29-2.77l.12-.08c1.43-1.11,6.14-4.77,7.07-5.54.29-.24.64-.51,1-.79A15.46,15.46,0,0,0,34.17,105Zm9.42,5a.13.13,0,0,0,.08-.13v-.08a9.46,9.46,0,0,1,2.1-2.2,2.18,2.18,0,0,1,.58-.32l.12.11a1.4,1.4,0,0,0,1.17.48,1.29,1.29,0,0,0,.75-.36,2.2,2.2,0,0,1,2.1-.37.94.94,0,0,0,.36.08c1.68,0,2.25.9,3.26,2.46l.66,1c1.07,1.53,3.47,2.69,5.69,3.59a.12.12,0,0,0-.05,0s-.39.27,0,.78,1.39,1.82,1.55,1.47a4,4,0,0,0-.42-1.88l.69.27,1.28.49c2.55,1,4.51,1.32,7-.26,1.78-1.12,2.51-.61,3,0a6,6,0,0,0,2.6,1.71,14.54,14.54,0,0,1,1.38.67c.48.26.57.48.57.52h0v0a.37.37,0,0,0,0,.11s-.51,1.7-1.13,4c-.34,1.22-1.1,1.36-1.44,1.36-4-1.65-6.5.29-8.15,1.57a4.13,4.13,0,0,1-1.64,1,1.16,1.16,0,0,1-.83-.28l-.17-.25-.44-.62q-.14-.24-.3-.57a11.91,11.91,0,0,0-1-1.8c-1-1.46-4.52-3.43-6.45-4.45a3.14,3.14,0,0,0-1.47-.91,12.37,12.37,0,0,0-3.13-2.34,10.66,10.66,0,0,1-3.34-2.44,2.83,2.83,0,0,0-1.39-.76c-.09-.61-.28-1.53-.59-1.53s-.66.89-.79,1.32a3.86,3.86,0,0,1-2.17-.9c-.1-.08-.1-.12-.1-.19a1,1,0,0,1,.09-.34l0,0Zm43.7-.53h0l.18,0c-.12.28-.3.84.35.81.83,0,1.52-.56.74-1.53l.87-1.39a.93.93,0,0,0,.14-.54,2.28,2.28,0,0,1,0-.27,1.29,1.29,0,0,1,.49.1.93.93,0,0,0,1-.18c.3-.29.48-.35.52-.34a.74.74,0,0,1,.26.33.93.93,0,0,0,.84.58h.11a5.37,5.37,0,0,1-.17,1.16,4.78,4.78,0,0,0-.16,1.52,4.86,4.86,0,0,1-1.57.67.91.91,0,0,0-.67.74.9.9,0,0,0,.37.88,4.75,4.75,0,0,1-.26.9,4,4,0,0,0-.24,2.91c.07.18.07.18-.49.61a5.91,5.91,0,0,0-1.87,2.1,10.25,10.25,0,0,1-4.88,2.46c-2.09.56-2.85,3-2.89,3.12a.86.86,0,0,0,0,.59c-.87.28-2.93.79-3.37-.49a2.87,2.87,0,0,0,1.29-1.8c.59-2.15,1.08-3.8,1.12-3.94a1,1,0,0,0,.08-.57,8.49,8.49,0,0,0,1-3c.42-2,1.71-2.76,3.66-4l.83-.53c1.86-1.19,2.7-1,2.7-1ZM57.18,119.93a1.1,1.1,0,0,0,0-.18c1.83,1,4.14,2.45,4.88,3.47l0,0a4,4,0,0,0-2.27.11c-2.79.86-3.67.48-5.27-.21l-1.15-.48c-.68-.26-1-.69-.84-1.24s.81-1.15,1.06-1.12c0,0,.68.31.38,1.55-.12.5,1.64.51,2.35,0a2.15,2.15,0,0,0,.86-1.95ZM20.34,108.06c-.34-.51-.86-1.21-1.37-1.89s-1.13-1.52-1.38-1.94c2.06-1,4.15-1.46,4.71-1.14l0,0c.67.38,1.15.68,1.19,1.07s-.19,1.49-3.08,4.06l-.11-.18Zm39.77,16.31a2.55,2.55,0,0,1,3.21,1.15,4.26,4.26,0,0,0,.72,1,3.44,3.44,0,0,0,2.34,1.76,1.94,1.94,0,0,1,.84.23,1.76,1.76,0,0,1-.07.25l0,.13a.83.83,0,0,0,0,.15,4.32,4.32,0,0,1-3.81.2.13.13,0,0,0-.12,0s-.41.27-.2,1.1a.6.6,0,0,1,0,.51c-.14.2-.59.26-1.05.3l-.61.06a3.81,3.81,0,0,0,.8-2.53c0-2.54-1.62-3.51-4.21-3.84a12.08,12.08,0,0,0,2.26-.5Zm-37.3-11.51c-.57-1.23-1.25-2.63-1.82-3.68a18.11,18.11,0,0,0,2.72-2.84,2,2,0,0,0,2.18-1.17c.11-.24.22-.5.32-.77A10.26,10.26,0,0,1,27.75,107a2.66,2.66,0,0,0,1,1.22c-1.64,1.3-4.7,3.67-5.9,4.6Zm2.12-8.12a.9.9,0,0,1-.57.51,2.55,2.55,0,0,0,.23-1.18c-.1-1-1-1.48-1.73-1.89l0,0a4.64,4.64,0,0,0-3.15.15,7.07,7.07,0,0,1,.55-1l.27-.48.45-.18c2.53-1,3.1-.41,4.23.68.62.59.54,1.69-.24,3.44Zm38.64,27.51a1.42,1.42,0,0,0-.07.22,1.28,1.28,0,0,0,.7,1.35l.06,0c-.26.08-1.33.32-2.29-1.23a2.59,2.59,0,0,0,1.6-.37Zm10.54.61h0l-.07,0-.49-.12a17.28,17.28,0,0,0-2.85-2,1.62,1.62,0,0,0-.08-.93c-.18-.36-1,0-1.31.12l-1.18-.64,0,0a.44.44,0,0,1,0-.1,1.29,1.29,0,0,0,0-1.13,2.12,2.12,0,0,0-1.63-.72,1.33,1.33,0,0,1-.43-.13A6,6,0,0,0,68,126c1.66-1.29,3.72-2.89,7.24-1.38h0a2.17,2.17,0,0,0,.52,0,2.06,2.06,0,0,0,1.88,1.29,2.37,2.37,0,0,0-.56,2.19c.09.71.1,1.86.11,2.59-1.91,2.45-3.07,2.21-3.08,2.21ZM97,120.15a4.25,4.25,0,0,1-2.53-.3c.49-5.5,1-6.19,1.66-7a7.49,7.49,0,0,0,1.21-2.07c1-2.59,3.08-3.08,6.17-3.82l.35-.09a4.12,4.12,0,0,1,3.81.67,3.14,3.14,0,0,0-.45,2.48,2.67,2.67,0,0,0,1.91,1.54c-1.07,1.74-3.8,3.5-7.61,4.86-3.34,1.19-4.27,3-4.52,3.71Zm12.56-9.54c-.75-.22-1.2-.52-1.33-.92a2.15,2.15,0,0,1,.34-1.56c2.88.62,5.24-2.06,6.82-3.86.35-.39.63-.71.86-.93,1.61-1.54,3-2.59,4.94-1s1.32,2.77-.86,5.85c-1.14,1.62-6.45,2-9.86,1.81a.91.91,0,0,0-.91.62Zm2.44-7.42a3.13,3.13,0,0,1,2.57-1.48,4.26,4.26,0,0,1,0,1.41,2,2,0,0,0,0,.49c-.21.25-.44.51-.69.77-1.56-.49-1.91-.82-2-1a.52.52,0,0,1,.1-.21Zm9.86-1.69a4.73,4.73,0,0,0-1.59-.88,6.75,6.75,0,0,1,.16-2.16A14.12,14.12,0,0,0,122,99a7.61,7.61,0,0,1,1.62.62,1,1,0,0,1-.12.24,7.3,7.3,0,0,1-1.63,1.68l-.06-.06ZM123.11,97a4.63,4.63,0,0,1-.35-.93.91.91,0,0,1,.53.25,2.48,2.48,0,0,0,1,.59l0,0a2.93,2.93,0,0,0-1.07.57,3.17,3.17,0,0,0-.18-.5ZM9.38,99.15A.44.44,0,0,1,9.67,99a.43.43,0,0,1,.28.11.45.45,0,0,1,.12.29.4.4,0,0,1-.69.28.43.43,0,0,1-.11-.28.44.44,0,0,1,.11-.29Z"/>
    <path class="cls-1" d="M30.52,109.22c-.57.14-1.6,1.59-.85,1.73a7,7,0,0,0,1.65-1.22c.23-.42-.24-.66-.8-.51Z"/>
    <path class="cls-1" d="M31.69,111.38c.61.18.94-.29,1.27-.85s0-1.36-.51-.7c0,0-1.37,1.36-.76,1.55Z"/>
    <path class="cls-1" d="M34.14,112.27a2.53,2.53,0,0,0,.61-1.88c-.14-.56-.47-.28-.47-.28s-1.13,1.27-1,1.69.47,1,.9.47Z"/>
    <path class="cls-1" d="M37,112.83c.61-.14.38-.89.19-1.55s-.33-1.13-.61-.84a2,2,0,0,0-.38,1.12c0,.66.19,1.41.8,1.27Z"/>
    <path class="cls-1" d="M52.66,31a.87.87,0,0,0-.53,1c.1.81.26,1.31,1.34,1.18s.3-2,.1-2.22-.91,0-.91,0ZM53,32.47a1.5,1.5,0,0,1-.11-.52c0-.15,0-.19,0-.2l.17,0a2.37,2.37,0,0,1,.18.77,1.51,1.51,0,0,1-.28,0Z"/>
    <path class="cls-1" d="M52.6,33.67a1.07,1.07,0,0,0-.31.89c.07.57,0,1.14.88,1.11s1-.64.87-1.35a1,1,0,0,0-1.44-.65Zm.7,1.22-.16,0h0a1.64,1.64,0,0,1,0-.22,1.5,1.5,0,0,1,0-.22.32.32,0,0,1,0-.18.27.27,0,0,1,.14,0c.07,0,.08.08.08.1a1.36,1.36,0,0,1,0,.46Z"/>
    <path class="cls-1" d="M52.63,36.1s-1,1.11-.3,1.44,1.24.51,1.54-.47-.4-1.61-1.24-1Zm.52.75a1.35,1.35,0,0,1-.08.19l-.14,0a2.1,2.1,0,0,1,.22-.33l0,0a1,1,0,0,1,0,.21Z"/>
    <path class="cls-1" d="M54.24,30a.58.58,0,0,0-.44.78c.17.67.47,1.64,1.31,1.37s.67-.9.37-1.79-.81-.56-1.24-.36Zm.64,1.43h0a1.86,1.86,0,0,1-.3-.74l.12-.06.08,0h0a4,4,0,0,1,.21.79l-.09,0Z"/>
    <path class="cls-1" d="M54.31,33.15s-.31,1.48.5,1.48,1.31-.17,1.27-1.21c0-1.39-1.61-1.58-1.77-.27Zm1,.67a1.07,1.07,0,0,1-.28,0,2.21,2.21,0,0,1,0-.56.07.07,0,0,1,0,0c0-.15.06-.21.08-.22s0,0,0,0a.48.48,0,0,1,.14.38,1.22,1.22,0,0,1,0,.38Z"/>
    <path class="cls-1" d="M55.08,35s-.71.2-.71.77-.33,1.61.51,1.48,1.6-.34,1.4-1.54-.63-.88-1.2-.71Zm.44,1.26a.83.83,0,0,1-.44.18c0-.06,0-.12,0-.17s0-.3,0-.45a.42.42,0,0,1,.16-.09l.21-.07c0,.05,0,.1,0,.17a.69.69,0,0,1,0,.43Z"/>
    <path class="cls-1" d="M56,28.15a1.33,1.33,0,0,0-.41,1.48c.27,1,.91,1.11,1.31.87s.71-.47.4-1.51-.87-1.41-1.3-.84Zm.41.63h0Zm.26,1a.71.71,0,0,1-.15.1h0a.91.91,0,0,1-.18-.41c-.11-.4,0-.59.09-.65a2.7,2.7,0,0,1,.16.41,1.78,1.78,0,0,1,.09.55Z"/>
    <path class="cls-1" d="M56.25,31.88c.2.73,0,1.67.87,1.24s.93-.79.74-1.71c-.27-1.28-1.81-.27-1.61.47Zm.94.3s0,0-.1.09c0-.16-.05-.34-.09-.52a.4.4,0,0,1,.13-.13,1.33,1.33,0,0,1,.06.56Z"/>
    <path class="cls-1" d="M56.55,34.42c0,.91.07,1.71.84,1.51s1.09-.64.94-1.74c-.2-1.44-1.81-.67-1.78.23Zm.81.73c0-.21,0-.53,0-.75a.24.24,0,0,1,.08-.14.5.5,0,0,1,.16-.1.86.86,0,0,1,0,.13c.09.64,0,.79-.22.86Z"/>
    <path class="cls-1" d="M79.27,39c-.23,0-.46.17-.82.53l-.28.29a10.29,10.29,0,0,1-2,1.79.15.15,0,0,0,0,.3h4.9a.16.16,0,0,0,.14-.08.16.16,0,0,0,0-.16,26.53,26.53,0,0,1-1.59-2.34.5.5,0,0,0-.32-.33Zm-.64,1.85.29-.29.11-.11c.08.13.17.26.27.4Z"/>
    <path class="cls-1" d="M12.09,87c3,9.71,5.08,11.5,4.33,6S14.7,83.14,15.3,82.25s.23-2.32-.07-3.74.52-1.72-.6-5.23.15-2.61.07-4.41S14,67.16,14.26,65s.29-5.31.29-5.31-1.86-.07-2.09,1.2-.22,16,.75,21.22-1.72.15-2.09-6.28S11,62.08,11,62.08a1.94,1.94,0,0,0-1.79-2.17S9.1,77.32,12.09,87Z"/>
    <path class="cls-1" d="M20.61,82.69c0-3.58-1.35-5.22-.75-7.39s1-3-.15-4.78-.67-1.65-.37-3.89-.3-5.53-.08-7.32c0,0-1-.82-1.19.15a170.46,170.46,0,0,0,1,18c.67,4.85-.6,2.83-1.05-1.27-.31-2.83-1-16.29-1-16.29s-1.35-1-1.65-.08c0,0-.3,16.29,2.77,22.49s2.54,4,2.54.37Z"/>
    <path class="cls-1" d="M24.79,78.81a8.55,8.55,0,0,1-.37-4c.15-1.72-.6-3.07-.9-5.38a100.55,100.55,0,0,1-.45-11s-.45-.52-1.27.08c0,0,.08,8.14.45,11.13s-1.2-.22-1.27-5.38S21,58,20,59c0,0-.3,15.77,4.11,20.7,0,0,1.19,1,.67-.9Z"/>
    <path class="cls-1" d="M24,57.37s-.52,14.49,3.44,18.45,1,.23,1-4.41c0-5.38-1.12-4.18-1.19-5.52,0,0-.23-5.46-.45-7.1s-1.42-2.39-1,.22,1.12,9.49.15,9.56-.82-4.33-.9-6.94.3-4.11-1-4.26Z"/>
    <path class="cls-1" d="M29.65,56.85s-.68-.6-.45,1.94.74,5-.15,4.93-.52-3.21-.67-4.48-.38-2.84-.9-1.87c0,0,.15,9.79,2.84,13.82s2.69,1,1.42-1.42a16.61,16.61,0,0,1-1.5-7.55,37.63,37.63,0,0,0-.59-5.37Z"/>
    <path class="cls-1" d="M32.26,66.41c1.72,2.39,1.2.37.82-2.09a53,53,0,0,1-.3-8.15.69.69,0,0,0-1,0s.53,4.41.08,4.34-.6-1.65-.75-3.22-.3-1.12-.75-.82c0,0,.15,7.55,1.87,9.94Z"/>
    <path class="cls-1" d="M10.29,44.75a74.08,74.08,0,0,0-.68,7.69c-.18,4.59.12,5.31,1.87,5.4,2.3.13,2.73-1.45,3.09-5.09.39-4,.45-6,.5-6.51s-1.24-2.17-1.49.24S13.46,56.41,12,56.1s-1.12-4.1-.81-6.7,1.12-5.71.13-5.95-1,1.3-1,1.3Z"/>
    <path class="cls-1" d="M15.87,46.24s-1.92,11.1.07,11.18c3,.12,2.54-3.06,2.85-6.53s.62-4.47-.12-4.47-.94,3.35-1.06,5.15,0,4.15-.87,4-.79-2.67-.49-4.84c.68-5,.37-5.58-.38-4.52Z"/>
    <path class="cls-1" d="M20.46,47.48s-.24-.5-.62-.44c0,0-.35,3.87-.47,6.17s.29,3.32,1.78,3.32,1.36-2.67,1.42-4.84.62-4.09,0-4.28-.68,1.43-.74,2.86-.19,4.59-.81,4.59-1-.75-.87-3,.31-4.34.31-4.34Z"/>
    <path class="cls-1" d="M63.7,56.75c.53-.14.43-.47.86,0s.49.52,1,.42a1.78,1.78,0,0,1,1.48.5c.3.33.76.26.69.56s-.56.62.63.85,1.65.4,2,0,.86-.43-.13-1-1.31-.49-2.1-1.28-.7-.79-1.22-1a2.87,2.87,0,0,0-2-.26,7.7,7.7,0,0,1-1.81.23s-.36.26-.1.56.13.56.66.43Z"/>
    <path class="cls-1" d="M69,59.74c-.39,0-.62-.33-1-.33,0,0-.59-.06-.26.46s.63.6,1,.5.66-.59.26-.63Z"/>
    <path class="cls-1" d="M71.8,60.11A3.67,3.67,0,0,0,73,59.84c.43-.23.76.1,1.16.17a.77.77,0,0,0,.95-.4c.26-.46-.06-.76-.39-1.09a1.1,1.1,0,0,0-1.26-.09c-.39.19-.29.32-.69.39s-1.48,1.15-1,1.29Z"/>
    <path class="cls-1" d="M76.55,60.4c.16,0,.66.1.85.07s.53,0,.2-.6-.2-.69-.82-.59-.53.33-.53.33.13.82.3.79Z"/>
    <path class="cls-1" d="M79,67.62c.1.09.4.32.5-.07s.1-1-.76-.79c0,0-.3.23-.1.43a5.37,5.37,0,0,1,.36.43Z"/>
    <path class="cls-1" d="M30.86,49.78c-.9,6.74,1.75,4.33,1.75,4.33.12-1.68.42-4,.42-4-.24-.36-.54-.18-.6.66s-.12,2.83-.79,2.65-.12-3.67-.42-3.79-.36.12-.36.12Z"/>
    <path class="cls-1" d="M27.61,49s-.48,3.31-.48,4.33A1.53,1.53,0,0,0,29,55c1.32-.12,1-1.86,1.14-3.31s.24-2.28.24-2.28c-.66-.24-.6-.06-.84,1.8s-.18,2.65-1.09,2.71-.42-3.49-.3-4.33-.54-.6-.54-.6Z"/>
    <path class="cls-1" d="M23.88,48.15a42.73,42.73,0,0,0-.54,5.78c0,2.53,2.89,1.81,3-.06S27,48.7,27,48.7c-1-.73-1,1.2-1.2,2.88s-.24,2.71-1.15,2.53-.3-4.75-.24-5.53-.54-.43-.54-.43Z"/>
    <path class="cls-1" d="M22.56,108c-.44.82-.22,1.07.28,1.14s.64-1.4.64-1.4c-.16-.6-.48-.57-.92.26Z"/>
    <path class="cls-1" d="M24.52,107.54s-.66-.09-.53.92.66,1.14.91,1,.16-1.11.16-1.33-.25-.85-.54-.54Z"/>
    <path class="cls-1" d="M25.89,107.32a2.16,2.16,0,0,0,.25,1.37c.38.53,1.08.82.86-.32s-.48-1.46-1.11-1.05Z"/>
    <path class="cls-1" d="M15.27,105.48c-.25-.12-.51-.22-.7.19,0,0-.22.64.41.64a.46.46,0,0,0,.29-.83Z"/>
    <path class="cls-1" d="M12.61,107.07v.06s0,.51.31.51.38-.16.42-.41-.54-.54-.73-.16Z"/>
    <path class="cls-1" d="M13.49,110.46a.46.46,0,0,0,.1.73c.48.32.6.22.48-.38s-.32-.57-.58-.35Z"/>
    <path class="cls-1" d="M16.47,110.36s.38.23.45.07-.1-.38-.1-.38-.6-.16-.35.31Z"/>
    <path class="cls-1" d="M17,112.9s-.19.6.29.67a.38.38,0,0,0,.35-.64c-.2-.19-.64-.16-.64,0Z"/>
    <path class="cls-1" d="M19.58,113.66s.44.1.44,0,.07-.32-.09-.44-.57,0-.35.44Z"/>
    <path class="cls-1" d="M19.07,123s.92-2.16-.38-1.74a1.44,1.44,0,0,0-.47,1.49s-.67-.26-.22.63.76,1.71,1.61.89-.54-1.27-.54-1.27Z"/>
    <path class="cls-1" d="M22.31,124.47s-.76.6-.54.89,1.2.41,1.3,0-.42-1.21-.76-.92Z"/>
    <path class="cls-1" d="M25.6,125.07s-.85.25-.44.7a1.48,1.48,0,0,0,1.27.41c0-.1.44-1.36-.83-1.11Z"/>
    <path class="cls-1" d="M23.07,121.27s-.95.54-.57.92,1.07-.32,1.07-.32.19-.73-.5-.6Z"/>
    <path class="cls-1" d="M26.05,120.25a.78.78,0,0,0,1-.28s-.48-1.21-1.08-.76c0,0-.57.79.1,1Z"/>
    <path class="cls-1" d="M30,124.56c.66.32,1,0,1,0s.45-.7-1.3-1a.71.71,0,0,0,.29,1Z"/>
    <path class="cls-1" d="M39.58,124.18c0-.66-.76-.41-.76-.41s-.45.13-.48.41.57.38.57.38.67.29.67-.38Z"/>
    <path class="cls-1" d="M39.64,128c-.35-.19-.76.25-.76.25s-.25.86.6.86.8-.57.8-.57.07-.16-.64-.54Z"/>
    <path class="cls-1" d="M44.05,126.72a.82.82,0,0,0-.92-.73s-.83.06-1,.76,1.14.7,1.14.7.79-.22.76-.73Z"/>
    <path class="cls-1" d="M43.06,129.38a.7.7,0,0,0,.77.63c.72,0,.66-.47.66-.47s-1.24-.7-1.43-.16Z"/>
    <path class="cls-1" d="M47.47,126.91c.82,0,.6-.64.6-.64a.93.93,0,0,0-.79-.31c-.54,0-.63,0-.67.44,0,0,0,.54.86.51Z"/>
    <path class="cls-1" d="M39.41,113.12c.48-.05.11-1.57.11-1.57s-.35-.91-.62-.85c0,0-.74,0-.45,1.17s.48,1.31,1,1.25Z"/>
    <path class="cls-1" d="M41.22,112.46c.32.45.59.5,1,.26s-.75-2-.75-2-1.09-.59-1,0a10,10,0,0,0,.74,1.68Z"/>
    <path class="cls-1" d="M27,112.08c-.34,0-1.57.86-1.11,1.07a1.11,1.11,0,0,0,1.06-.29c.43-.48.4-.75,0-.78Z"/>
    <path class="cls-1" d="M28.94,113s-1.44,1.38-.88,1.67,1-.5,1.23-1.09-.06-.85-.35-.58Z"/>
    <path class="cls-1" d="M30.32,115.2c.16.43.56,1,1,0s.22-1.2-.1-.88c0,0-1,.5-.86.93Z"/>
    <path class="cls-1" d="M33.87,115.68c.24-1.33,0-1.2-.32-.88,0,0-.91.75-.67,1.09s.75,1.12,1-.21Z"/>
    <path class="cls-1" d="M36.43,117.52c.72,0,.5-1.07.32-1.87s-.4-.82-.62-.82c0,0-.42-.08-.4.88s0,1.76.7,1.81Z"/>
    <path class="cls-1" d="M39,115.33s-.72,1.55.24,2.16.61-.5.42-1.2-.45-1.38-.66-1Z"/>
    <path class="cls-1" d="M41.78,115.09s-.53-.08-.34.75.45,1.57,1.27,1.41-.42-1.84-.93-2.16Z"/>
    <path class="cls-1" d="M46.18,117.09c.42-.82-1.71-2.42-2-2.21,0,0-.64.32,0,1s1.62,2,2,1.2Z"/>
    <path class="cls-1" d="M48.79,116.64c.51-.32-.8-1.57-.8-1.57s-1-1-1.17-.78c0,0-.53.59.21,1.36s1.25,1.31,1.76,1Z"/>
    <path class="cls-1" d="M34.32,118.93s-1.38,1.95-.53,2.29.93-1.38.9-2.1-.37-.19-.37-.19Z"/>
    <path class="cls-1" d="M47.16,118.48a12.83,12.83,0,0,1,.59,1.38c.11.4.51,1.09.93.46s.16-.86-.26-1.42-1.55-1-1.26-.42Z"/>
    <path class="cls-1" d="M18.56,40.53a1.67,1.67,0,0,0-1.92,1.21c-.53,1.53-.16,2.13.15,2.06s.48-1.52.87-1.38-.43,1.43.1,1.57.72-1.45,1.14-1.3-.42,1.45.19,1.62,1.45-3.22-.53-3.78Z"/>
    <path class="cls-1" d="M22.54,41.9a1.51,1.51,0,0,0-1.7,1.16c-.43,1.41-.08,1.94.2,1.87s.39-1.4.75-1.28-.35,1.31.14,1.42.61-1.34,1-1.22-.33,1.33.23,1.47,1.22-3-.61-3.42Z"/>
    <path class="cls-1" d="M14.63,42.65c.77.26,2.14-3.71-.36-4.56a2.19,2.19,0,0,0-2.57,1.27c-.8,1.77-.39,2.53,0,2.47s.75-1.77,1.24-1.57-.68,1.67,0,1.89S14,40.48,14.52,40.7s-.65,1.69.11,1.95Z"/>
    <path class="cls-1" d="M26.21,43.27a1.32,1.32,0,0,0-1.52,1c-.42,1.21-.13,1.69.12,1.63s.38-1.21.69-1.09-.34,1.13.08,1.25.58-1.16.9-1-.32,1.15.16,1.29,1.15-2.56-.43-3Z"/>
    <path class="cls-1" d="M29.79,46.92c.39.11.95-2.1-.35-2.47a1.09,1.09,0,0,0-1.25.79c-.35,1-.11,1.4.09,1.35s.32-1,.57-.9-.28.93.07,1,.47-.95.74-.86-.27,1,.13,1.06Z"/>
    <path class="cls-1" d="M33,47.67c.41,0,.65-2.22-.68-2.4a1.09,1.09,0,0,0-1.14,1c-.2,1,.09,1.39.29,1.32s.17-1,.44-1-.16,1,.2,1,.34-1,.62-.94-.14,1,.27,1Z"/>
    <path class="cls-1" d="M12.43,45.52c-.23,1.3-1.26,8.92-.58,9s.58-3.31.76-5.06.49-4.44.49-4.44-.45-.85-.67.45Z"/>
    <path class="cls-1" d="M17.16,47.13c-.17,1-.95,7-.44,7.13s.44-2.61.58-4,.37-3.49.37-3.49-.34-.68-.51.35Z"/>
    <path class="cls-1" d="M21,48.18c-.12.81-.63,5.59-.11,5.65s.32-2.09.39-3.18.21-2.78.21-2.78-.37-.51-.49.31Z"/>
    <path class="cls-1" d="M25,48.69c-.14.62-.71,4.25-.2,4.28s.35-1.58.44-2.41.25-2.11.25-2.11-.36-.38-.49.24Z"/>
    <path class="cls-1" d="M29.19,49.39s-.34-.28-.44.21-.49,3.35,0,3.34S29,51.69,29,51s.16-1.65.16-1.65Z"/>
    <path class="cls-1" d="M31.51,46s-.29-.23-.38.19-.41,2.85,0,2.85.22-1.07.27-1.62.13-1.42.13-1.42Z"/>
    <path class="cls-1" d="M94,46.71V49.1s1.19-.1,1.19-.4.5.15.5.15A3.19,3.19,0,0,0,94,46.71Z"/>
    <path class="cls-1" d="M95.74,53.43c-.45,0-.85.15-.8-1s.2-2-.89-1.6v3.69s1.64,1.14,2.59,0a7.8,7.8,0,0,0-.3-3.79s-.15-.15-.55.25c0,0,.4,2.44-.05,2.44Z"/>
    <path class="cls-1" d="M94.05,56.17a12.55,12.55,0,0,0,0,2.74c.2,0,1,0,1-1.74s-.64-1.5-1-1Z"/>
    <path class="cls-1" d="M96,55.77s-.35-.05-.35,1.1-.3,1.94,0,1.94.65-1,.9-2-.1-1.3-.6-1Z"/>
    <path class="cls-1" d="M94.3,61.4c.64.05,1.59,0,1.74-1.1s-1.1-.79-2,.1c0,0-.35,1,.3,1Z"/>
    <path class="cls-1" d="M94,62.74s-.15,3.14,0,3a15,15,0,0,0,1.39-2.84c.25-.74-1.19-.69-1.44-.15Z"/>
    <path class="cls-1" d="M93.52,82.86c.43,1.83.1,1.73-.33,1.73s-.86-2.59-1.51-.86c-.37,1-1,2.47.22,2.36s4.2.11,3.23-2.26-2-2.8-1.61-1Z"/>
    <path class="cls-1" d="M96.21,90.4a1,1,0,0,0,.22-1c-.16-.65-2.12-.23-2.12-.23l-4.41.23s-.54,1-.37,1.12c0,0,6.35.11,6.68-.11Z"/>
    <path class="cls-1" d="M92.22,94.2c0-1.73-.36-3.21-1.74-3.14,0,0-1.86-.1-1.92,1.14s-.2,3.08.35,3.08.14-2.23.59-2.26.49.88.49,1.5.82.89.76-.06-.46-1.67,0-1.54.62.23.52,1.11,1,1.9.92.17Z"/>
    <path class="cls-1" d="M94.05,92.8c.42,0,.45.82.45,1.39s.75.81.69-.06-.42-1.54,0-1.42.58.21.49,1,.87,1.75.84.15-.33-3-1.6-2.9c0,0-1.72-.09-1.78,1.06s-.18,2.83.33,2.83.13-2,.55-2.08Z"/>
    <path class="cls-1" d="M49.23,112.72c.7,0,.35-3.34-.42-2.72a1.5,1.5,0,0,0-.43,1.09c0,.78.15,1.59.85,1.63Z"/>
    <path class="cls-1" d="M52,112.41c-.19-1.28-.78-1.86-.82-1.4a3.54,3.54,0,0,0,0,1.63c.19.86,1,1,.85-.23Z"/>
    <path class="cls-1" d="M54.7,112.76c.2-.2-.85-2.17-1.28-1.59,0,0-.5.23.08,1s1,.77,1.2.58Z"/>
    <path class="cls-1" d="M57.5,116.68c-.08-.27-.58-.7-.78-.66a.42.42,0,0,0-.08.73c.47.47.94.2.86-.07Z"/>
    <path class="cls-1" d="M59.86,116.83c.62-.31-.62-1.43-1.39-1.39,0,0-.43,0,0,.65s.77,1,1.39.74Z"/>
    <path class="cls-1" d="M62.74,120.71c.73.62,1.28.62.89-.15s-.78-1.32-1.09-1c0,0-.54.5.2,1.12Z"/>
    <path class="cls-1" d="M66.27,120.05c.19-.5-1-2.17-1.56-2.13,0,0-.66.08-.07,1.12s1.43,1.52,1.63,1Z"/>
    <path class="cls-1" d="M68.13,119.43c0-.5-.93-2.37-1-1.78a2.38,2.38,0,0,0,.19,1.86c.55.66.9.43.86-.08Z"/>
    <path class="cls-1" d="M70.65,118.69c-.12-.73-.74-1.86-1-1.63,0,0-.58.28-.08,1.13s1.21,1.24,1.09.5Z"/>
    <path class="cls-1" d="M72.4,117.72c1.24,0-.28-1-.39-1.16s-.66-.31-.62,0a.93.93,0,0,0,1,1.16Z"/>
    <path class="cls-1" d="M72.4,121.76a.78.78,0,0,0-.7-.7s-.82-.08-.27.58,1,.55,1,.12Z"/>
    <path class="cls-1" d="M74.61,121.41c-.43-1.16-.82-1.75-1.24-1.47,0,0-.35.5.19,1.28s1.47,1.35,1,.19Z"/>
    <path class="cls-1" d="M76.12,119.86c-.16-.93-1.75-3.22-1.75-2.37a2,2,0,0,0,.39,1.48c.55.73,1.52,1.82,1.36.89Z"/>
    <path class="cls-1" d="M71.12,124.86c-.24.39-.55,1.48.15,1.17,0,0,1.16-.66,1-1s-.89-.54-1.12-.16Z"/>
    <path class="cls-1" d="M73.33,127.23c-.62.16-1.21.74-.86,1.13,0,0,.35.66,1.13,0s.35-1.29-.27-1.13Z"/>
    <path class="cls-1" d="M83.26,128.39s-1.4,1.13-.23,1.21,1.35-.31,1-.86-.39-.58-.78-.35Z"/>
    <path class="cls-1" d="M90.86,129.4c-.31,0-1.43.62-1,1.13,0,0,.93.39,1.4-.27s-.12-.86-.43-.86Z"/>
    <path class="cls-1" d="M93.85,127.11c-.54.24-.85.7,0,1.09a.91.91,0,0,0,.93-.47c.35-.58-.39-.85-.93-.62Z"/>
    <path class="cls-1" d="M88.88,126.61s-1.16,1.47,0,1.55.59-1,.59-1-.43-.85-.63-.54Z"/>
    <path class="cls-1" d="M88.92,124.17c-.58-.51-.89-.24-1.16.11,0,0-.78,1.36.15,1.32s1.6-.93,1-1.43Z"/>
    <path class="cls-1" d="M93.35,123.89c-.16-.5-.31-.7-.74-.46,0,0-.93.7-.35.93s1.24,0,1.09-.47Z"/>
    <path class="cls-1" d="M79.88,120.71a.45.45,0,0,0,.39.7c.7.08.74-.39.7-.62a.68.68,0,0,0-1.09-.08Z"/>
    <path class="cls-1" d="M81,116.21s-.19.89.54,1.13.51-.51.43-.7-1-.89-1-.43Z"/>
    <path class="cls-1" d="M84.77,118s-.66.69-.23.85,1.32-.62.23-.85Z"/>
    <path class="cls-1" d="M87.57,116.13c.62.08,1-.66.15-.81,0,0-.78.74-.15.81Z"/>
    <path class="cls-1" d="M84.11,115.9s-.85.08-.39.54.66.47.86-.11.08-.54-.47-.43Z"/>
    <path class="cls-1" d="M85.59,112.91a.78.78,0,0,0,.31.9c.5.31.5,0,.54-.31s-.85-1-.85-.59Z"/>
    <path class="cls-1" d="M84.62,111.59a.85.85,0,0,0,.77-.11c.35-.27-.89-.58-.77.11Z"/>
    <path class="cls-1" d="M91.6,108.06c.39-.35-.47-.73-.7-.23,0,0,.31.58.7.23Z"/>
    <path class="cls-1" d="M114.12,127.31c.9-.27,1.52-1.81-.08-1.41,0,0-.75.74-.75,1s-.08.72.83.45Z"/>
    <path class="cls-1" d="M108.3,124.83s-.26.93.11.88,1.15-.29.67-.75-.64-.37-.78-.13Z"/>
    <path class="cls-1" d="M105.58,123.6s-.8.32-.82.62,0,.9.72.4,1.2-1.5.1-1Z"/>
    <path class="cls-1" d="M102.52,122.54s-1,.26-.67.64,1,1,1.23.32,0-1.28-.56-1Z"/>
    <path class="cls-1" d="M109.18,121.28s-.74.32-.61.62a.55.55,0,0,0,.93.21c.38-.4.4-1.15-.32-.83Z"/>
    <path class="cls-1" d="M111.53,124.35c.59-.16,1.41-1.63.16-1.41a1.29,1.29,0,0,0-.67.64c-.21.48-.08.93.51.77Z"/>
    <path class="cls-1" d="M97.58,112.24s0,1,.68.77a.53.53,0,0,0,.37-.77s-1.27-.74-1,0Z"/>
    <path class="cls-1" d="M97.48,116.66c-.58-.31-.61-.4-.8-.15,0,0-.5.93.06,1s1.33-.5.74-.81Z"/>
    <path class="cls-1" d="M100.14,113.88c.1-.4-2,.49-1.17.87,0,0,.68.34,1,.15s.06-.62.15-1Z"/>
    <path class="cls-1" d="M102.12,109.83c.56,0,.53-.56.34-.87s-1.11-.34-1,.28c0,0,.16.62.71.59Z"/>
    <path class="cls-1" d="M102.37,111.56c1.21.71.81-1.24.22-.9,0,0-.77.58-.22.9Z"/>
    <path class="cls-1" d="M104.26,110.1c1.3,0,.59-1.29.09-1a5.24,5.24,0,0,0-.65.59c-.06.12-.47.46.56.46Z"/>
    <path class="cls-1" d="M102.77,113.69c0,.28.31.44.84.28s.52-.86-.12-.71c0,0-.69.16-.72.43Z"/>
    <path class="cls-1" d="M105.68,112.89c.28-.09.19-.65.22-1s-.16-.59-.62-.25a.39.39,0,0,0-.28.46c0,.41.4.93.68.84Z"/>
    <path class="cls-1" d="M116.54,106.3c.43-.4.77-1.11-.06-1.21a.53.53,0,0,0-.53.59c0,.59.16,1,.59.62Z"/>
    <path class="cls-1" d="M117.87,106.89a2.06,2.06,0,0,0,1,.21c.37-.06.18-.65-.09-.8s-1.36.49-.87.59Z"/>
    <path class="cls-1" d="M120,104.47c.95.19,1.14-1,.71-.89,0,0-1.67.71-.71.89Z"/>
    <path class="cls-1" d="M118.06,104.2c.49,0,.83-.19.52-.44s-.77-.74-.77-.46c0,0-.25.93.25.9Z"/>
    <path class="cls-1" d="M114.67,42.75c-.07-1-.3-1.24-.37-1.12s-.23,2.77,0,2.84.42-.71.34-1.72Z"/>
    <path class="cls-1" d="M101.08,49c-.56.08-.75-.78-.78-1.35s-.53-.89-.79-.18c0,0,.11,2.37,1.24,2.28,1.42-.11,1.79-.82,1.23-2.69a.48.48,0,0,0-.75-.15c-.45.37.41,2-.15,2.09Z"/>
    <path class="cls-1" d="M102.84,46.44s-.23,2.56.89,2.61c1.4.06,1.87-.65,1.58-2.74,0,0-.22-.6-.71-.26s.12,2.23-.44,2.24-.62-.94-.58-1.55-.39-1-.74-.3Z"/>
    <path class="cls-1" d="M106.18,45.68s-.25,2.65.78,2.68c1.3,0,1.74-.7,1.5-2.85,0,0-.19-.62-.65-.25s.08,2.29-.44,2.31-.56-1-.51-1.59-.34-1.06-.68-.3Z"/>
    <path class="cls-1" d="M109.32,44.21l0,2.28a1.38,1.38,0,0,0,1.46,1.58c1.65,0,1.24-2.1,1.24-3s-.12-2.24-.53-2.17-.52.56-.49,1.54.23,2.13-.29,2.09-.49-.75-.49-1.72-.75-1.68-.86-.6Z"/>
    <path class="cls-1" d="M113.77,42s-1-.87-1,.44-.38,5.06,1.8,5.17,1.83-2.7,1.83-4.45.34-3.63-.37-3.15-.79,1-.87,2.28.27,3.34-.37,3.45-1.07-.12-1-2a4.64,4.64,0,0,0-.08-1.75Z"/>
    <path class="cls-1" d="M118.56,43.28c-.11-2.06,0-3.56-.41-3.56,0,0-.75-.08-.78,1s-.45,5.17.93,5.8,3.3.27,3.33-1.27,0-4.94,0-5.84-.9-1.34-1.09-.07.57,6.21-.59,6.14-1.31-.12-1.43-2.17Z"/>
    <path class="cls-1" d="M119.42,40.06s-.41,3.66.12,3.89.26-2.51.3-3.33-.34-1.24-.42-.56Z"/>
    <path class="cls-1" d="M114,97.82c.9.1,3.71-6.25,4.4-10.34s1-5,1.75-6.88,1.91-9.33,1.91-13.09.21-7.21,0-7.79-.43-.8-1.06-.32-1.43.21-1.33,1.91.22,12.24-.37,13.93-1.16,4.3-1.64,6-1.06,3.71-.69.11,1.11-3.71,1.17-5.88.58-4.77.47-7.9.16-7.1.16-7.1-1.59-2.12-1.64-.21.11,11.76,0,13.09a23,23,0,0,0-.43,4.66c.16,1.33-.47,1.75-.58,3.92s-.69,10.39-1.75,12.62-1.22,3.12-.32,3.23Z"/>
    <path class="cls-1" d="M112.58,87.91c.69-.43,3.39-6.84,3.55-16.59s.53-10.81.11-11.55-1.33-1-1.17,1.06S114.7,76.89,114,76.94c-.58.48.48-12,.22-16.82l-.06-.1s-.85-2.28-.9-.53-.1,9.45-.32,10a18.06,18.06,0,0,0-.79,6.2c.26,2.33.48,8.27.16,9.8s-.43,2.81.26,2.39Z"/>
    <path class="cls-1" d="M112,66a71,71,0,0,0,.53-7.25.91.91,0,0,0-1.24.9c-.06.75-.09,4-.25,5.13s-.16,5.94-.84,5.88-.32-2.38-.11-4.45.95-4.15.42-7.12c0,0-1-1.06-1-.1s.11,3.46-.21,3.88a7,7,0,0,0-.53,3.34c.06,1.54.32,4-.26,5s-.37,2.18-.58,3.45-.53,4.13-1.65,5.93,1.28,2.28,3.66-4.5S111.79,68,112,66Z"/>
    <path class="cls-1" d="M105.6,59c0,1.06-.12,7.88-.65,9.05s-.69,3.55-1,4.19-1.54,3.65-2.12,4.61-.48,2.12.58,1.32,4.34-5,4.82-8.74,1.06-6.1,1.22-7.1.46-3.71.14-3.92-1-.42-1,.58a29.91,29.91,0,0,1-.83,6.2c-.53,1.69-.59,2.33-.64.21s.39-6.29.13-7.3c0,0-.7-.16-.7.9Z"/>
    <path class="cls-1" d="M102.1,57.92a38.27,38.27,0,0,0-.12,3.92c0,3.71-1.9,7.42-3,9.75s.37,1.69,1.22,1a24.34,24.34,0,0,0,3.23-5.19C104.26,65.71,105,58,105,58c-.1-.26-.85-.47-1.11-.05s-.58.58-.8.11-1-.16-1-.16Z"/>
    <path class="cls-1" d="M100.71,65.12c.48-1.27.65-6.94.65-6.94,0-.9-.43-1.48-.53.11s-.6.88-.87-.5-.76,2.67-.55,4-1.18,5.09-1.71,7.47,2.54-2.91,3-4.18Z"/>
    <path class="cls-1" d="M101.36,51.52c-.22,1.81.08,2.55-.52,2.33s0-3-.48-3S100,52,99.89,52.73s-.22,2.93.9,2.93c1.9,0,1.47-3.58,1.47-4.22s-.69-1.73-.9.08Z"/>
    <path class="cls-1" d="M105.15,50.36c-.47,0-.69.13-.65,1.16s.18,2.07-.34,1.94-.35-1.29-.3-2.24-.35-.91-.35-.91-.47-.13-.47.87-.22,4.31.82,4.39,1.59-.81,1.68-3,.08-2.2-.39-2.2Z"/>
    <path class="cls-1" d="M107.31,56.31c1.76.17,1.42-3,1.46-3.75s.22-2.59-.21-2.63-.39.47-.39,1.33-.09,2.89-.61,2.93-.64-1-.51-2.45.13-1.68-.13-1.73c0,0-.65,0-.65,1.17s-.73,5,1,5.13Z"/>
    <path class="cls-1" d="M112.31,49.62c-.52-.13-.86,0-.86,1s.12,4.22-.48,4.22-.78-.9-.78-2.54.44-2.59.13-2.67c0,0-.86-.48-.9,1.12s-.3,5.91,1,6.12,2.11-1.42,2-3.41.44-3.75-.08-3.88Z"/>
    <path class="cls-1" d="M114,49.24s-.69-.09-.77,1.2.08,3.71.08,4.88.13,2.19,1.25,2.32S116.53,56,116.53,54s.48-5-.26-5.09-.56.56-.51,1.3,0,5.52-.87,5.39-1-2.16-.73-4.27c.3-2.46-.13-2.11-.13-2.11Z"/>
    <path class="cls-1" d="M114.89,50s-.3-.21-.3,1-.3,3.32.18,3.36.12-1.12.3-2.24.17-2.16-.18-2.16Z"/>
    <path class="cls-1" d="M121.88,48.33c-.65-.09-.91-.21-.95,1.16S120.8,55,120.8,55s.13,1.64-1,1.64-1.12-.69-1.12-2.2.39-5.52-.56-5.65c0,0-.73,0-.78,1.34s.05,5.26.05,6a2.48,2.48,0,0,0,2.15,2.59c1.86.26,2.42-2.42,2.46-5s.52-5.21-.13-5.3Z"/>
    <path class="cls-1" d="M119.81,49.75s-.47-.17-.52,1-.26,4.74.18,4.74.5-.22.47-1.21c-.09-2.89.26-4.48-.13-4.53Z"/>
    <path class="cls-1" d="M99,16.38l.6-4.26c.09-.63,0-1-.83-1.17l-1-.13-.89,6.31,1,.14c.79.11,1-.27,1.12-.89Zm-1.46.34.33-2.33.6.08.08-.59-.6-.08.34-2.41.31,0c.38.05.49.19.43.56l-.61,4.36c0,.36-.19.47-.57.41l-.31,0Z"/>
    <path class="cls-1" d="M48.63,48a.78.78,0,0,1-.87-.8v-.8h1.69a1.17,1.17,0,1,0,0-2.34H46.29v.58s.47-.12.47.48v2.43a.55.55,0,0,1-.54.42v.45H48.6l0-.42Zm.27-3.51a.61.61,0,0,1,.6.61.6.6,0,0,1-.6.61H47.76V44.47Z"/>
    <path class="cls-1" d="M42,74.59h2.44a.56.56,0,0,1,.42.55h.45V72.75l-.43,0a.77.77,0,0,1-.79.87h-.8V71.91a1.17,1.17,0,1,0-2.34,0v3.15h.58s-.12-.47.47-.47Zm-.62-2.14a.61.61,0,0,1,1.22,0V73.6H41.39V72.45Z"/>
    <path class="cls-1" d="M83.8,93.7a.41.41,0,0,1-.69.14l-2-1.42a.61.61,0,0,1,0-.74l-.36-.27-1.55,2.14h0l-.55.75a1.34,1.34,0,0,0,.18,1.87,1.21,1.21,0,0,0,1.32,0,1.12,1.12,0,0,0,.44.85,1.24,1.24,0,0,0,1.71-.36l1-1.34.14-.2.28-.38.53-.74-.47-.34Zm-4,1.46a.64.64,0,0,1-.13-.91l.65-.91a.83.83,0,0,1,.48.17l.65.47-.75,1a.65.65,0,0,1-.9.14Zm2.54.84a.59.59,0,0,1-.84.13.6.6,0,0,1-.14-.85l.65-.89,1,.71-.65.9Z"/>
    <path class="cls-1" d="M54.63,44a2.28,2.28,0,1,0,2.46,2.27A2.37,2.37,0,0,0,54.63,44Zm0,3.88c-.41,0-1-.79-1-1.61s.59-1.6,1-1.6,1,.79,1,1.6-.59,1.61-1,1.61Z"/>
    <path class="cls-1" d="M61.28,48a.78.78,0,0,1-.87-.8v-.8h.74l1.26,2a1.55,1.55,0,0,0,1.41-.52l-.2-.3s-.54.37-.79-.08l-.67-1.13A1.17,1.17,0,1,0,62.1,44H59v.58s.47-.12.47.48v2.43a.56.56,0,0,1-.55.42v.45h2.39l0-.42Zm.27-3.51a.61.61,0,0,1,.6.61.6.6,0,0,1-.6.61H60.41V44.47Z"/>
    <path class="cls-1" d="M42,66.06H44.4a.56.56,0,0,1,.42.55h.45V64.22l-.43,0a.77.77,0,0,1-.79.87h-.8v-.74l2-1.26a1.54,1.54,0,0,0-.53-1.41l-.29.2s.37.54-.08.79-.88.51-1.13.67a1.17,1.17,0,1,0-2.33.06v3.15h.58s-.12-.47.47-.47Zm-.62-2.13a.61.61,0,0,1,.61-.6.6.6,0,0,1,.61.6v1.14H41.34V63.93Z"/>
    <path class="cls-1" d="M64.8,103.88a.77.77,0,0,1,.62,1c-.06.2-.13.47-.22.77l-.71-.2-.65-2.29a1.55,1.55,0,0,0-1.51.12l.11.34s.63-.21.74.29.25,1,.33,1.27A1.19,1.19,0,0,0,62,106a1.21,1.21,0,0,0,.89,1.47l2.25.64.79.22.16-.56s-.49,0-.33-.58.67-2.34.67-2.34a.56.56,0,0,1,.64-.26l.12-.43-2.29-.65-.14.4Zm-1.63,2.54a.61.61,0,0,1,.74-.42l1.1.31c-.12.44-.25.87-.33,1.17l-1.1-.31a.61.61,0,0,1-.41-.75Z"/>
    <path class="cls-1" d="M90.58,49.34s.13.47-.47.47H87.68a.55.55,0,0,1-.42-.54h-.45v2.38l.42,0a.78.78,0,0,1,.8-.87h.8v.74l-2,1.25a1.57,1.57,0,0,0,.52,1.42l.3-.2s-.37-.55.07-.8.88-.51,1.13-.66a1.17,1.17,0,1,0,2.34-.06V49.34ZM90.73,52a.61.61,0,0,1-1.21,0V50.81h1.21V52Z"/>
    <polygon class="cls-1" points="73.02 48.05 72.42 48.05 74.04 45.63 76.4 48.39 78.46 46.19 79.71 48.05 78.94 48.05 78.94 48.41 81.95 48.41 81.95 48.05 81.55 48.05 79.53 45.05 79.55 45.03 79.55 44.13 78.57 44.13 78.57 44.78 76.91 46.55 74.95 44.13 72.82 44.13 72.82 44.84 73.37 44.84 73.38 44.85 71.22 48.05 70.79 48.05 70.79 48.41 73.02 48.41 73.02 48.05 73.02 48.05"/>
    <polygon class="cls-1" points="85.75 47.73 85.4 47.73 85.4 44.82 85.75 44.82 85.75 44.15 83.72 44.15 83.72 44.82 84.06 44.82 84.06 47.73 83.72 47.73 83.72 48.4 85.75 48.4 85.75 47.73 85.75 47.73"/>
    <polygon class="cls-1" points="41.62 60.39 44.53 60.39 44.53 60.74 45.2 60.74 45.2 58.71 44.53 58.71 44.53 59.05 41.62 59.05 41.62 58.71 40.95 58.71 40.95 60.74 41.62 60.74 41.62 60.39 41.62 60.39"/>
    <polygon class="cls-1" points="41.6 52.2 45.35 49.81 41.6 46.89 41.6 46.1 40.99 46.1 40.99 48.22 41.6 48.22 41.6 47.6 43.7 49.23 41.6 50.57 41.6 50.42 40.99 50.42 40.99 52.81 41.6 52.81 41.6 52.2 41.6 52.2"/>
    <polygon class="cls-1" points="41.37 57.74 42.24 57.74 42.24 57.36 41.83 57.36 41.83 56.17 44.57 56.17 44.57 56.92 45.2 56.92 45.2 54.03 44.57 54.03 44.57 54.78 41.83 54.78 41.83 53.59 42.24 53.59 42.24 53.21 41.83 53.21 41.83 53.21 40.95 53.21 40.95 57.74 41.37 57.74 41.37 57.74 41.37 57.74"/>
    <polygon class="cls-1" points="41.62 69.7 44.53 69.7 44.53 70.05 45.2 70.05 45.2 68.02 44.53 68.02 44.53 68.36 41.62 68.36 41.62 68.02 40.95 68.02 40.95 70.05 41.62 70.05 41.62 69.7 41.62 69.7"/>
    <path class="cls-1" d="M79.47,99s-.22-.12-.3-.2l-1.78-1.9c-.07-.07-.1-.13-.08-.17a2.17,2.17,0,0,1,.35-.37L77.29,96,74.05,99l.54,1.09.4-.37c-.1-.18,0-.63,0-.66a.29.29,0,0,1,.12-.23l1.33-1.26,1.88,2c.08.08.22.25.21.29a9.34,9.34,0,0,1-.72.72l.4.42,2-1.93-.39-.42a2.92,2.92,0,0,1-.37.32Z"/>
    <path class="cls-1" d="M49.06,93.81l2.21-1.39c.09-.06.15-.07.19,0a3.15,3.15,0,0,1,.29.41l.45-.28-2.38-3.76-1.18.31.3.47a1.66,1.66,0,0,1,.65.11.31.31,0,0,1,.2.15l1,1.55L48.44,92.8a1,1,0,0,1-.32.15s-.4-.58-.56-.84l-.49.31,1.5,2.37.49-.31a3.59,3.59,0,0,1-.25-.42c0-.06.17-.2.25-.25Z"/>
    <path class="cls-1" d="M51.4,93.65l.4.49.35-.15a.55.55,0,0,1,.19-.07c.06,0,.31.25.36.32l.81,1-1.12.89-1-1.3-.48.38,1.05,1.31-.88.7-.9-1.12s0,0,0-.07,0-.09,0-.15,0-.06.08-.13l.21-.29L50,95l-.73,1,2.39,3,.4-.32a2.21,2.21,0,0,1-.19-.24.27.27,0,0,1-.08-.15.24.24,0,0,1,.11-.13l2.23-1.79c.08-.07.13-.09.17-.07a1.8,1.8,0,0,1,.3.33l.4-.32-2.48-3.09-1.14.52Z"/>
    <path class="cls-1" d="M44.39,85.05l2.71-.91c.1,0,.16,0,.19,0a2.19,2.19,0,0,1,.17.42l.48-.17-1.25-3.75-1.25.09.2.59.39,0h.2c.06,0,.2.35.23.43l.4,1.22-1.35.44L45,81.81l-.58.2.53,1.58L43.87,84l-.46-1.36,0-.08a.14.14,0,0,1,.06-.14l.13-.09.29-.2-.19-.58-1,.65,1.2,3.6.48-.16c-.05-.15-.08-.24-.09-.29s0-.14,0-.17.06,0,.14-.08Z"/>
    <path class="cls-1" d="M43,80.49c.52,0,.89-.53,1.12-1.44.06-.29.13-.58.19-.87a3,3,0,0,1,.25-.79.52.52,0,0,1,.36-.18.29.29,0,0,1,.27.18,1.33,1.33,0,0,1,.15.53,2.44,2.44,0,0,1-.06,1,2,2,0,0,1-.85.64l.29.79A7.21,7.21,0,0,1,46,79.81a5.45,5.45,0,0,0,.11-1.69,3.15,3.15,0,0,0-.63-1.8,1.12,1.12,0,0,0-1-.56,1,1,0,0,0-.76.46,4.67,4.67,0,0,0-.38,1.18c0,.09-.07.28-.19.86a3.16,3.16,0,0,1-.25.79c0,.08-.09.13-.15.13s-.4-.18-.44-.61a8.16,8.16,0,0,1,0-1.54,2.35,2.35,0,0,1,.8-.46l-.22-.67a8.31,8.31,0,0,1-1.19.42A5,5,0,0,0,41.53,78,4.41,4.41,0,0,0,42,79.79c.28.5.62.74,1,.7Z"/>
    <path class="cls-1" d="M89.94,62.58c.22.06.1.07.13.08a1,1,0,0,1,.22.12.49.49,0,0,1,0,.26v1.59l-3.08-2.72s-.44-.54-.44.36V66.5l1.18.35V66c-.34-.1-.22-.19-.29-.26a.49.49,0,0,1-.09-.35V64.09l3.09,2.66s.42.29.42-.4V62.09l-1.19-.31v.8Z"/>
    <path class="cls-1" d="M87.58,55a1.49,1.49,0,0,1,0-.38h-.74V56.4h.74V56l.73.38v1.89c-.61.35-.74.41-.74.41s0-.73,0-.76h-.74v2.89h.74a2.78,2.78,0,0,1,0-.41.4.4,0,0,1,.19-.17l3.39-2V57l-3.47-1.84a.22.22,0,0,1-.11-.13Zm1.32,1.88.95.48-.95.55v-1Z"/>
    <path class="cls-1" d="M87.53,68a2.27,2.27,0,0,1,0-.38h-.73v1.78h.73V69l.74.38v1.89c-.61.35-.75.41-.75.41s0-.73,0-.76h-.73v2.89h.73a1.58,1.58,0,0,1,0-.41.42.42,0,0,1,.18-.17l3.39-2V69.93l-3.46-1.84c-.07,0-.11-.08-.12-.13Zm1.32,1.88,1,.48-1,.55v-1Z"/>
    <path class="cls-1" d="M73.61,100.5l-.39-.63-1.51.95.4.63.3-.2h0l.07.81-1.61,1c-.61-.33-.74-.42-.74-.42l.65-.39-.39-.63L68,103.18l.39.63a1.38,1.38,0,0,1,.36-.2.48.48,0,0,1,.25.06l3.52,1.79,1.05-.66-.28-3.92a.19.19,0,0,1,0-.16,1.46,1.46,0,0,1,.31-.22Zm-2.06,2.88.87-.54.1,1-1-.51Z"/>
    <path class="cls-1" d="M60.82,101.22l-.43.6.29.2h0l-.74.38-1.54-1.1c.07-.7.1-.85.1-.85l.61.46.43-.6-2.34-1.68-.43.6a1.74,1.74,0,0,1,.31.26.34.34,0,0,1,0,.25l-.32,3.94,1,.72,3.52-1.75a.19.19,0,0,1,.16,0,3.16,3.16,0,0,1,.33.21l.43-.6-1.45-1Zm-2.54,1.9.1-1.09.84.6-.94.49Z"/>
    <path class="cls-1" d="M84.54,85.6a3.12,3.12,0,0,1,.14-.36l-.67-.3-.73,1.62.68.3c.08-.19.13-.29.14-.33h0l.52.64-.77,1.73C83.16,89,83,89,83,89l.32-.69-.67-.3-1.18,2.64.68.3a1.65,1.65,0,0,1,.19-.36.46.46,0,0,1,.24-.09L86.51,90l.5-1.13-2.41-3.1a.18.18,0,0,1-.06-.15Zm1.12,3.07-1.09.11.42-.93.67.82Z"/>
    <path class="cls-1" d="M89.53,79.47c0,.08,0,.13-.08.15a1.3,1.3,0,0,1-.32-.06l-2.54-.67c-.1,0-.15-.06-.16-.1a1.71,1.71,0,0,1,.09-.45L86,78.21l-.57,2.14.52.14a1.69,1.69,0,0,1,.08-.26.31.31,0,0,1,.06-.13.35.35,0,0,1,.16,0l1.07.28-.5,1.89L85.75,82q-.14,0-.15-.09a1.46,1.46,0,0,1,.08-.38l-.53-.14-.57,2.15.52.14.09-.3c0-.09,0-.14.08-.15s.08,0,.17,0l2.54.67c.1,0,.31.11.31.15a1.61,1.61,0,0,1-.09.44l.57.15.57-2.15-.57-.15-.07.27c0,.07,0,.11-.07.12a1.43,1.43,0,0,1-.3-.06l-.86-.22.5-1.89.85.22c.09,0,.3.1.3.13a1.2,1.2,0,0,1-.07.38l.57.16.57-2.15-.57-.15a2,2,0,0,1-.09.3Z"/>
  </g>
</svg>
