<svg id="Capa_1" data-name="Capa 1" xmlns="http://www.w3.org/2000/svg" viewBox="0 0 134 144"><defs><style>.cls-1{fill:#003c70;}</style></defs><title>Documento</title><path class="cls-1" d="M14,72.08q0-28.17,0-56.35c0-6.83,1.6-8.42,8.47-8.43,17.91,0,35.83.05,53.74-.05A11.31,11.31,0,0,1,85.07,11q15.51,16,31.4,31.69A11.19,11.19,0,0,1,120,51.35c-.08,25.84,0,51.68,0,77.52,0,6.39-1.51,7.87-7.86,7.88H22.53c-7.08,0-8.51-1.44-8.52-8.64Q14,100.09,14,72.08Zm94.2,53.2a9.32,9.32,0,0,0,.23-1.38c0-22.35,0-44.7.06-67.06,0-2.46-1.25-2.53-3.05-2.53-8.46,0-16.93,0-25.39,0-5.18,0-7.08-1.82-7.12-7-.05-6.4,0-12.8,0-19.21,0-3,0-6,0-9.12H25.83V125.28ZM84.72,42.66h14.4l-14.4-14.1Z"/><path class="cls-1" d="M92.3,76.47V87.55H41.73V76.47Z"/><path class="cls-1" d="M41.63,109.21V98.13h33v11.08Z"/></svg>