<svg version="1.1" id="Layer_1" xmlns="http://www.w3.org/2000/svg" xmlns:xlink="http://www.w3.org/1999/xlink" x="0px" y="0px"
	 width="100%" viewBox="0 0 738 735" enable-background="new 0 0 738 735" xml:space="preserve">
<path fill="#000000" opacity="0.000000" stroke="none" 
	d="
M429.000000,736.000000 
	C286.000000,736.000000 143.500000,736.000000 1.000000,736.000000 
	C1.000000,491.000000 1.000000,246.000000 1.000000,1.000000 
	C247.000000,1.000000 493.000000,1.000000 739.000000,1.000000 
	C739.000000,246.000000 739.000000,491.000000 739.000000,736.000000 
	C635.833313,736.000000 532.666687,736.000000 429.000000,736.000000 
M224.408524,193.999527 
	C224.299469,194.798889 224.190399,195.598251 223.994293,196.467972 
	C223.994293,196.467972 224.064041,196.555527 223.404938,197.005127 
	C223.300964,197.762253 223.196991,198.519394 222.971008,199.435120 
	C222.971008,199.435120 223.045654,199.620743 222.371353,200.029343 
	C222.277435,200.783096 222.183502,201.536865 221.967865,202.440323 
	C221.967865,202.440323 222.043472,202.617828 221.358932,203.044586 
	C221.267990,203.821533 221.177063,204.598465 220.992188,205.455261 
	C220.992188,205.455261 221.071259,205.549850 220.382721,206.016693 
	C220.286041,207.091766 220.189346,208.166824 219.968811,209.406494 
	C219.968811,209.406494 220.052658,209.594650 219.371597,210.026138 
	C219.282242,211.063019 219.192871,212.099915 218.973770,213.380798 
	C218.973770,213.380798 219.031876,213.650986 218.364685,214.034790 
	C217.998688,215.805603 217.632706,217.576401 217.021805,220.270538 
	C216.402405,226.175735 215.783005,232.080917 215.009384,238.913940 
	C215.004974,241.059723 214.907791,243.210068 215.013550,245.350418 
	C215.335342,251.863403 215.735474,258.372528 215.988815,265.762177 
	C218.034927,275.152954 220.081055,284.543701 222.170685,294.679321 
	C225.929230,303.141296 229.166229,311.889648 233.607208,319.976898 
	C237.326965,326.750732 242.452927,332.752380 246.957825,339.024200 
	C246.957825,339.024200 246.886520,339.032440 246.996246,339.680420 
	C247.645386,340.436401 248.294525,341.192383 249.571671,342.237488 
	C251.704926,344.864105 253.594406,347.745667 256.020844,350.065643 
	C261.513977,355.317780 267.271912,360.292999 273.395294,365.829681 
	C279.147949,369.611877 284.676514,373.809357 290.712433,377.066589 
	C297.577759,380.771423 304.896332,383.636383 312.608887,387.202911 
	C314.404327,388.126190 316.199768,389.049469 318.505249,389.980438 
	C318.675232,389.976532 318.845215,389.972626 319.631958,390.313721 
	C320.757843,390.553131 321.883759,390.792511 323.397430,391.073364 
	C323.397430,391.073364 323.787384,391.080963 324.338226,391.586487 
	C325.553619,391.778748 326.769043,391.970978 328.372894,392.583740 
	C328.925110,392.695953 329.477295,392.808197 330.503815,392.979645 
	C330.503815,392.979645 330.981049,392.953278 331.335205,393.034210 
	C331.335205,393.034210 331.694153,393.090393 332.005646,393.605316 
	C332.357269,393.776276 332.708862,393.947235 333.442841,394.108429 
	C333.442841,394.108429 333.811035,394.004944 333.975769,394.758148 
	C335.801971,395.840118 337.509857,397.433197 339.480896,397.889374 
	C342.789429,398.655182 346.263458,398.970276 349.671356,398.995026 
	C362.123627,399.085480 374.580444,399.116760 387.028381,398.844635 
	C390.060120,398.778351 393.064697,397.469788 396.540283,396.620392 
	C395.336731,395.318420 394.731140,394.663300 394.923676,394.075958 
	C400.647736,392.537231 406.423920,391.167969 412.085541,389.426331 
	C426.060425,385.127258 438.785034,378.045563 450.565338,369.701111 
	C459.916992,363.077057 468.887390,355.451813 476.431915,346.868927 
	C484.068146,338.181702 489.744232,327.771484 496.756470,317.640167 
	C503.312805,305.137665 508.561646,292.161682 511.103729,277.358704 
	C514.530518,261.995483 515.198914,246.531006 512.909607,230.096954 
	C511.691528,214.745804 507.252930,200.247604 500.767395,186.400757 
	C492.455139,168.653702 481.875793,152.429047 466.886108,138.482941 
	C457.360870,131.589752 448.252106,124.005814 438.218231,117.956238 
	C420.735107,107.415375 401.700562,100.795013 380.702972,98.215012 
	C370.242218,98.122040 359.778931,97.865196 349.322174,98.028694 
	C345.857513,98.082870 342.409698,99.218880 338.096893,99.955475 
	C336.322144,100.166481 334.476166,100.135422 332.785614,100.632721 
	C327.130249,102.296379 321.557251,104.239861 315.903381,105.909164 
	C305.894165,108.864403 296.549072,113.204216 287.240356,119.263664 
	C279.887939,124.600433 272.231812,129.574493 265.282928,135.393204 
	C260.087708,139.743484 255.804810,145.183304 250.892303,150.599731 
	C250.586395,150.997650 250.280487,151.395584 249.400040,152.053391 
	C248.975235,152.719116 248.550446,153.384842 247.822021,154.662811 
	C243.598312,160.779602 239.374619,166.896393 234.843048,173.655319 
	C231.870850,179.709839 228.898636,185.764374 225.267181,192.125793 
	C225.196625,192.591965 225.126068,193.058121 225.042542,193.499100 
	C225.042542,193.499100 225.067215,193.485168 224.408524,193.999527 
M522.167969,591.550903 
	C522.445190,593.324280 522.927063,595.093628 522.961426,596.871704 
	C523.067566,602.360840 522.865112,607.859497 523.110352,613.339722 
	C523.165405,614.570496 524.440674,616.663635 525.349121,616.775391 
	C528.713257,617.189087 532.158936,616.940063 535.637634,616.940063 
	C535.807434,615.175842 535.932373,614.201111 535.990417,613.222412 
	C536.342712,607.277893 536.603760,601.326599 537.055359,595.389832 
	C537.265320,592.629028 538.010376,590.191467 541.600586,589.972412 
	C544.899231,589.771057 546.051453,591.369812 546.230957,594.351013 
	C546.388977,596.975037 546.896790,599.583618 546.964905,602.206360 
	C547.088501,606.962158 547.000000,611.723450 547.000000,616.630554 
	C551.662170,616.630554 555.549500,616.630554 559.920166,616.630554 
	C559.920166,607.326538 560.233826,598.367310 559.803406,589.443970 
	C559.542358,584.031616 555.085571,579.895203 549.584595,580.116211 
	C544.763977,580.309814 540.002014,581.966248 534.722351,583.080322 
	C533.581604,582.466614 531.425720,580.491272 529.061584,580.198425 
	C523.501770,579.509949 517.693909,579.052002 514.035950,584.304749 
	C510.101898,578.326782 504.954407,582.170654 500.490173,580.993347 
	C500.490173,593.350525 500.490173,605.011902 500.490173,616.527649 
	C504.875305,616.527649 508.762512,616.527649 513.016174,616.527649 
	C513.016174,609.918335 512.721863,603.758179 513.094360,597.638672 
	C513.513916,590.746704 517.033936,588.280640 522.167969,591.550903 
M107.222748,608.001587 
	C111.477676,607.204529 113.109093,609.500488 114.021141,613.264954 
	C114.358521,614.657410 115.883430,616.666321 117.040909,616.792114 
	C121.052811,617.228271 125.141266,616.960327 129.865860,616.960327 
	C125.321350,603.640320 121.022079,591.136353 116.790260,578.609558 
	C112.109428,564.753723 112.136551,564.875488 97.553268,564.902161 
	C94.207970,564.908264 92.987877,566.231506 92.038475,569.088013 
	C87.809700,581.812134 83.414474,594.480957 79.064911,607.164795 
	C78.024055,610.200073 76.927513,613.216248 75.592125,616.988159 
	C80.379982,616.988159 84.202675,617.205200 87.974419,616.862122 
	C89.179619,616.752502 91.043938,615.306885 91.248222,614.217712 
	C92.298996,608.615295 95.589096,607.079163 100.796478,607.953430 
	C102.578773,608.252686 104.453568,608.001038 107.222748,608.001587 
M572.565918,475.999969 
	C570.817566,476.108612 569.069275,476.217285 566.850586,476.355194 
	C566.850586,483.641357 566.850586,490.345825 566.850586,497.342896 
	C560.624451,493.560760 554.417725,493.223999 549.432983,495.188385 
	C536.373352,500.334839 538.172607,522.745728 545.318848,528.772766 
	C545.944946,529.300903 546.665283,529.744446 547.398987,530.113586 
	C554.616638,533.745483 561.354370,532.827454 567.049866,527.978638 
	C570.703796,533.173035 575.375977,530.191101 579.665161,530.908569 
	C579.665161,512.375244 579.665161,494.504486 579.665161,476.000000 
	C577.391846,476.000000 575.445923,476.000000 572.565918,475.999969 
M212.344101,530.116028 
	C222.080887,524.733215 221.776550,507.008179 216.616806,500.216339 
	C210.789429,492.545715 201.941360,491.870148 191.925812,498.465759 
	C191.925812,490.875549 191.925812,483.699524 191.925812,476.354553 
	C187.695938,476.354553 184.142441,476.354553 180.474014,476.354553 
	C180.474014,494.695526 180.474014,512.678101 180.474014,531.249756 
	C184.966721,529.884094 190.026031,533.577698 192.932190,527.678223 
	C198.481445,533.564819 204.990402,532.930603 212.344101,530.116028 
M321.757141,531.900085 
	C323.856049,530.927734 325.954926,529.955383 328.107208,528.958313 
	C332.190002,532.923584 336.993652,530.414978 341.569824,530.749329 
	C341.569824,518.534668 341.569824,506.983765 341.569824,494.730591 
	C336.777313,495.096069 332.491119,495.422974 328.204926,495.749847 
	C328.236572,496.248199 328.268188,496.746521 328.299805,497.244873 
	C326.839294,496.486725 325.410431,495.658447 323.912628,494.982849 
	C318.115265,492.367950 309.617035,493.859650 306.091370,498.524902 
	C300.048889,506.520447 299.702332,515.305847 303.731293,524.234070 
	C307.105377,531.710938 313.666290,532.753540 321.757141,531.900085 
M171.000443,510.503784 
	C171.000443,505.435333 171.000443,500.366852 171.000443,494.545715 
	C166.021286,496.181122 160.913055,492.303650 158.159882,498.216583 
	C150.583817,490.648987 136.832230,493.793457 133.209534,501.224060 
	C130.164185,507.470520 130.306152,513.838013 131.356750,520.096497 
	C132.638107,527.729614 138.448257,532.319153 145.738510,531.861206 
	C150.129486,531.585327 154.434479,529.940979 158.770142,528.913452 
	C161.547958,533.372498 166.327805,530.069397 171.000443,531.061279 
	C171.000443,524.056946 171.000443,517.779358 171.000443,510.503784 
M190.058151,617.969299 
	C195.231018,617.068481 200.403870,616.167603 206.015915,615.190308 
	C207.114105,617.439941 211.023178,618.141418 217.598816,616.087646 
	C217.598816,604.554016 217.598816,593.020386 217.598816,580.870667 
	C213.000443,581.973083 207.979782,578.520691 204.912460,584.157471 
	C198.191483,576.327576 182.465164,578.598755 179.390152,589.411133 
	C178.330872,593.135742 178.072678,597.190125 178.075256,601.093384 
	C178.080490,609.019531 181.039566,615.257812 190.058151,617.969299 
M392.999512,583.659119 
	C392.999512,594.587402 392.999512,605.515686 392.999512,616.643555 
	C398.299622,616.643555 402.854828,616.643555 408.039490,616.643555 
	C408.039490,603.739929 408.039490,591.175476 408.039490,578.307251 
	C412.351105,578.076599 416.058929,577.878235 419.559479,577.690918 
	C419.559479,573.167175 419.559479,569.274841 419.559479,565.432129 
	C406.869812,565.432129 394.648132,565.432129 382.416962,565.432129 
	C382.416962,569.762878 382.416962,573.655151 382.416962,577.994141 
	C385.939819,577.994141 389.050720,577.994141 392.568939,577.994141 
	C392.737274,579.839050 392.868042,581.271790 392.999512,583.659119 
M139.391754,581.000671 
	C137.453568,581.000671 135.515366,581.000671 133.348877,581.000671 
	C133.348877,593.277832 133.348877,604.836121 133.348877,616.661133 
	C137.590652,616.661133 141.482056,616.661133 145.623642,616.661133 
	C145.768204,615.235962 145.969025,614.108765 145.982315,612.979248 
	C146.043121,607.814087 145.673355,602.608704 146.207123,597.496033 
	C146.583084,593.895081 147.949326,589.858215 152.720200,590.130981 
	C157.521744,590.405396 158.109924,594.111389 158.031158,598.116211 
	C157.911087,604.221497 157.999710,610.330994 157.999710,616.679077 
	C162.953873,616.679077 167.184174,616.679077 172.483246,616.679077 
	C171.890686,606.759094 171.674255,597.167480 170.583252,587.676392 
	C170.117493,583.624573 167.028900,580.463928 162.494888,580.071777 
	C156.300995,579.536133 150.124298,579.505310 146.616852,583.835144 
	C144.053391,582.686279 142.173492,581.843750 139.391754,581.000671 
M490.690155,531.999573 
	C492.018707,531.999390 493.348175,531.967224 494.675690,532.004272 
	C503.857758,532.260437 515.398682,521.635254 512.232605,509.400848 
	C509.513062,498.891754 502.941772,493.950928 491.205109,494.000092 
	C481.158295,494.042175 472.453033,502.129089 472.097717,512.349182 
	C471.771637,521.728943 479.521149,531.962341 490.690155,531.999573 
M264.241119,507.589172 
	C260.583313,497.778839 253.078659,492.880249 241.732376,493.974609 
	C234.061981,494.714355 226.698624,500.842468 225.114029,508.241699 
	C223.283234,516.790405 227.140900,525.926392 234.140594,529.586243 
	C241.450150,533.408142 249.001129,533.500488 255.895020,529.260864 
	C263.507111,524.579468 266.446259,517.285950 264.241119,507.589172 
M651.920837,582.345886 
	C644.111633,577.836792 631.491089,579.260437 625.842346,585.753906 
	C618.447510,594.254517 619.685791,606.874146 628.533813,613.992310 
	C636.579041,620.464661 651.498901,618.944153 657.323181,611.034485 
	C663.392456,602.792175 662.743103,588.093628 651.920837,582.345886 
M409.027161,525.466614 
	C413.051147,520.453064 415.291626,515.029724 413.233154,508.476990 
	C409.856537,497.728210 403.540710,493.222046 391.383514,494.078217 
	C375.053040,495.228271 370.435944,511.155426 376.081055,522.574646 
	C381.658356,533.856689 400.631378,535.628540 409.027161,525.466614 
M599.350403,517.143982 
	C601.001526,516.762695 602.647461,516.080750 604.304688,516.052246 
	C611.406616,515.929932 618.511902,516.000061 625.500671,516.000061 
	C626.741272,505.250824 620.467773,495.399536 611.707886,494.158203 
	C598.343323,492.264374 590.090759,497.461761 587.190918,507.556702 
	C583.651550,519.877869 590.775757,529.350769 599.745605,531.330566 
	C609.019165,533.377441 622.507019,531.906982 623.770508,522.805420 
	C619.891907,522.756470 617.049255,517.511047 612.354126,521.136841 
	C607.420959,524.946411 602.406433,523.691895 599.350403,517.143982 
M461.600677,595.199097 
	C458.612610,583.248169 452.373413,578.741516 437.768982,580.001831 
	C430.296326,580.646667 423.363770,588.789490 422.349213,598.265076 
	C421.438660,606.769287 427.510742,615.079407 437.036591,617.407593 
	C444.931335,619.337097 457.173157,618.196716 459.813873,609.119873 
	C455.625702,607.308228 452.277191,603.614563 446.739319,607.838318 
	C441.807373,611.599915 436.935303,608.760986 435.541046,601.899902 
	C444.230682,601.899902 452.821381,601.899902 461.861389,601.899902 
	C461.861389,599.573669 461.861389,597.792175 461.600677,595.199097 
M99.664146,479.000916 
	C97.347099,479.018097 94.945610,478.567932 94.971176,482.298248 
	C95.074951,497.437531 94.970360,512.578369 95.108231,527.717102 
	C95.118042,528.794678 96.443703,530.776489 97.190659,530.792480 
	C106.938774,531.001404 116.692871,530.931152 126.649307,530.931152 
	C126.649307,526.373657 126.649307,522.486633 126.649307,517.970520 
	C121.089706,517.970520 115.854828,517.970520 109.847977,517.970520 
	C109.847977,504.681702 109.847977,492.003448 109.847977,479.000092 
	C106.239471,479.000092 103.424896,479.000092 99.664146,479.000916 
M288.174957,589.041016 
	C290.853943,590.056396 293.532898,591.071838 296.462830,592.182312 
	C296.811005,590.564026 296.955200,589.588684 297.232819,588.653015 
	C299.096130,582.372986 299.162933,582.054565 292.440308,580.848328 
	C287.932373,580.039368 282.956451,579.274170 278.706970,580.415222 
	C275.415070,581.299133 271.666626,584.657837 270.384491,587.830933 
	C268.646637,592.131958 269.623413,597.196777 274.663696,599.772278 
	C277.286957,601.112732 280.196045,601.883362 282.931885,603.017822 
	C284.706696,603.753723 286.401886,604.681641 289.171906,606.028992 
	C281.447235,610.190735 276.195801,606.653442 270.636536,603.530457 
	C269.753204,606.564453 268.743164,608.880981 268.522949,611.270264 
	C268.410828,612.487000 269.388550,614.487000 270.437622,615.017395 
	C277.354401,618.514160 284.681885,619.238403 292.081635,616.816467 
	C297.544098,615.028625 300.283844,610.590149 299.995758,604.961975 
	C299.718811,599.551514 296.357178,596.752197 291.669647,595.058044 
	C288.433502,593.888489 285.198212,592.716553 281.962555,591.545715 
	C282.074982,590.964905 282.187439,590.384094 282.299896,589.803223 
	C283.987091,589.539246 285.674286,589.275208 288.174957,589.041016 
M348.990570,616.903687 
	C354.334412,614.730408 357.210358,610.829102 356.963593,604.991699 
	C356.734894,599.583252 353.196930,596.886047 348.505646,595.191528 
	C345.296722,594.032410 342.151550,592.696716 338.202271,591.132812 
	C344.182983,586.725708 348.324554,590.924500 352.869385,591.821045 
	C353.360535,590.678284 353.784637,589.815613 354.109039,588.916931 
	C356.443115,582.451477 356.484100,582.202820 349.721771,580.900513 
	C345.698792,580.125793 341.500580,580.104431 337.377228,580.052185 
	C333.325500,580.000732 327.978363,584.014648 327.075226,587.412415 
	C325.547150,593.161194 327.310455,597.541077 332.675842,600.214355 
	C335.307190,601.525391 338.335785,602.022156 341.031464,603.229248 
	C342.177704,603.742615 342.931458,605.132385 343.863586,606.123840 
	C342.729492,606.747375 341.471252,608.055359 340.482758,607.876099 
	C336.178040,607.095337 331.951782,605.881958 327.387970,604.748962 
	C326.834381,606.295532 325.573608,608.289917 325.573792,610.284180 
	C325.573944,611.983032 326.584656,614.577209 327.909119,615.228821 
	C334.342712,618.393860 341.193970,619.077393 348.990570,616.903687 
M366.042877,493.078674 
	C366.003265,490.916443 366.196960,488.712311 365.819244,486.610840 
	C365.647156,485.653503 364.394226,484.229156 363.548645,484.168274 
	C359.827881,483.900421 356.076904,484.052673 351.916199,484.052673 
	C351.916199,488.040863 351.916199,491.153809 351.916199,494.456726 
	C350.161041,494.864197 348.776581,495.185638 347.359802,495.514557 
	C347.359802,498.715576 347.359802,501.618866 347.359802,504.405853 
	C349.085083,504.938507 350.448303,505.359375 352.183929,505.895233 
	C352.183929,514.158691 352.183929,522.255798 352.183929,530.522034 
	C356.989410,530.522034 361.326996,530.522034 366.081512,530.522034 
	C366.081512,521.940674 366.081512,513.832581 366.081512,505.868469 
	C371.536560,504.170959 372.050995,502.762268 370.303955,495.659210 
	C368.879364,495.053864 367.559998,494.493256 366.042877,493.078674 
M596.172119,582.450500 
	C584.020935,591.676331 586.828613,608.101135 595.045288,614.519043 
	C600.686890,618.925659 607.190247,619.292603 613.415405,616.823975 
	C618.629761,614.756165 615.055969,609.493164 615.901428,605.759766 
	C615.950684,605.542419 615.627014,605.240601 615.255310,604.590576 
	C611.251160,607.779236 606.901428,608.310120 603.401489,604.257812 
	C600.922424,601.387512 600.268127,597.552246 602.581543,594.131409 
	C606.080627,588.957336 610.734985,589.373596 615.989197,593.024719 
	C615.989197,589.413635 616.386780,586.681885 615.840332,584.154175 
	C615.511414,582.632629 613.919495,580.565857 612.537964,580.234863 
	C607.178345,578.950745 601.772705,579.028198 596.172119,582.450500 
M240.000198,579.501465 
	C240.000198,573.768860 240.000198,568.036255 240.000198,562.457275 
	C235.147568,562.457275 231.265305,562.457275 227.390656,562.457275 
	C227.390656,580.772461 227.390656,598.627747 227.390656,616.631348 
	C231.668640,616.631348 235.552444,616.631348 240.000198,616.631348 
	C240.000198,604.346375 240.000198,592.423584 240.000198,579.501465 
M274.726196,530.994507 
	C276.388000,530.996033 278.072266,530.823059 279.707184,531.033508 
	C283.768494,531.556458 285.451691,530.101868 285.072388,525.839844 
	C284.734924,522.047791 284.925659,518.199829 285.024048,514.380127 
	C285.161896,509.026825 288.149658,505.628876 293.359039,506.151184 
	C298.439972,506.660583 299.453247,504.565338 299.032318,500.288727 
	C298.843903,498.374420 299.000427,496.426147 299.000427,494.620636 
	C292.618591,492.811310 288.499603,495.675690 284.571594,499.604980 
	C284.077606,497.813141 283.713501,496.492401 283.435333,495.483398 
	C279.081573,495.483398 275.205353,495.483398 271.016632,495.483398 
	C271.016632,506.587616 270.937988,517.212646 271.138031,527.832458 
	C271.158081,528.896851 272.868744,529.929382 274.726196,530.994507 
M482.004211,600.892883 
	C482.511169,594.494812 484.679901,592.096985 490.850494,592.081665 
	C494.524780,592.072693 496.023193,590.592224 495.994476,587.116333 
	C495.975891,584.868042 495.990936,582.619568 495.990936,580.611633 
	C489.541687,578.849426 485.284973,581.196777 481.583008,585.536316 
	C481.074646,583.792175 480.690918,582.475647 480.405762,581.497375 
	C476.059235,581.497375 472.183838,581.497375 468.017273,581.497375 
	C468.017273,592.615356 467.953491,603.240051 468.117920,613.861206 
	C468.134003,614.899170 469.484039,616.726685 470.336487,616.801514 
	C474.055145,617.127686 477.818726,616.941711 481.416840,616.941711 
	C481.720306,615.716431 481.934479,615.244812 481.939240,614.771118 
	C481.982574,610.451904 481.989441,606.132324 482.004211,600.892883 
M447.999115,498.481262 
	C448.659454,494.442596 446.353943,493.130371 443.101196,494.145386 
	C439.656738,495.220154 436.493805,497.197144 433.256683,498.756592 
	C432.319489,494.521332 428.642853,493.600128 420.361755,495.847473 
	C420.361755,507.350555 420.361755,518.886536 420.361755,530.660278 
	C424.610352,530.660278 428.494171,530.660278 433.004700,530.660278 
	C433.004700,526.728271 432.909943,523.114563 433.022430,519.507324 
	C433.364166,508.546967 436.036194,505.899628 447.041931,505.991577 
	C447.353912,503.831848 447.676910,501.595734 447.999115,498.481262 
M318.668854,616.028992 
	C318.779236,608.232361 318.953156,600.435913 318.985596,592.638977 
	C319.038757,579.863220 318.999664,579.859924 306.266907,581.264771 
	C305.986389,581.295715 305.737701,581.615051 305.005096,582.128723 
	C305.005096,589.578674 305.005096,597.357544 305.005096,605.136353 
	C305.005096,618.026733 305.005096,618.026733 318.668854,616.028992 
M258.290894,581.005310 
	C256.131531,581.011292 253.917969,580.737305 251.835419,581.140320 
	C250.779556,581.344727 249.169281,582.757446 249.154205,583.646729 
	C248.969421,594.552185 249.033905,605.461792 249.033905,616.512939 
	C253.674515,616.512939 257.674500,616.512939 261.984558,616.512939 
	C261.984558,605.409668 262.063110,594.788574 261.863525,584.172668 
	C261.843445,583.106567 260.138275,582.072144 258.290894,581.005310 
M568.000000,600.498413 
	C568.000000,605.890869 568.000000,611.283386 568.000000,616.552612 
	C572.833130,616.552612 576.714050,616.552612 580.999390,616.552612 
	C580.999390,610.323669 580.999451,604.535889 580.999451,598.748169 
	C580.999451,593.002869 580.999390,587.257507 580.999390,581.358032 
	C576.346436,581.358032 572.466309,581.358032 568.000000,581.358032 
	C568.000000,587.632629 568.000000,593.565918 568.000000,600.498413 
M452.005310,527.244080 
	C452.573425,528.451050 453.020630,530.610168 453.730621,530.700317 
	C456.833496,531.094482 460.023865,531.031250 463.155060,530.785095 
	C463.817535,530.732971 464.878113,529.220764 464.887299,528.371948 
	C465.005035,517.464539 464.965118,506.555420 464.965118,495.475159 
	C460.346649,495.475159 456.347687,495.475159 452.001587,495.475159 
	C452.001587,506.063690 452.001587,516.180481 452.005310,527.244080 
M456.882721,490.963623 
	C460.035248,491.295105 463.397369,491.058716 463.570099,487.225494 
	C463.657166,485.293976 461.843719,482.448303 460.097229,481.540497 
	C458.835663,480.884766 455.640411,482.194550 454.417542,483.596191 
	C452.100800,486.251556 452.860352,489.047852 456.882721,490.963623 
M315.456116,568.030334 
	C310.197174,566.170166 306.255157,568.466614 307.156891,572.924500 
	C307.908844,576.641907 310.589844,577.927856 313.831512,576.763184 
	C318.001740,575.264832 317.573517,571.947998 315.456116,568.030334 
M258.449463,575.976318 
	C261.218445,571.179321 260.069397,567.062683 255.803818,567.167725 
	C254.130417,567.208984 251.957047,568.329041 251.005371,569.665588 
	C250.215225,570.775208 250.248734,573.916016 251.029205,574.413757 
	C252.954727,575.641785 255.519135,575.868164 258.449463,575.976318 
M571.058777,568.454102 
	C568.222717,570.720093 568.349365,573.675354 570.681091,575.646851 
	C572.023071,576.781494 575.915833,577.105347 576.747192,576.142395 
	C578.141968,574.526794 578.981262,571.247314 578.287903,569.295349 
	C577.286072,566.474792 574.329407,566.242737 571.058777,568.454102 
M444.783630,566.885437 
	C443.062073,569.898132 441.340515,572.910889 439.211731,576.636230 
	C448.025604,577.560791 449.026550,570.609009 452.516663,566.052979 
	C450.141602,566.158142 447.766541,566.263367 444.783630,566.885437 
M203.384369,566.374451 
	C201.540329,569.602539 199.696274,572.830627 197.727112,576.277710 
	C203.319321,577.196411 206.070786,574.992859 211.147293,566.124451 
	C208.715347,566.124451 206.431320,566.124451 203.384369,566.374451 
z"/>
<path fill="#323538" opacity="1.000000" stroke="none" 
	d="
M333.811035,394.004944 
	C333.811035,394.004944 333.442841,394.108429 333.069763,393.885437 
	C332.362488,393.471741 332.028320,393.281067 331.694153,393.090393 
	C331.694153,393.090393 331.335205,393.034210 331.060181,392.881226 
	C330.490234,392.570312 330.238342,392.634369 330.029510,392.920410 
	C329.477295,392.808197 328.925110,392.695953 327.919739,392.102173 
	C326.240204,391.440735 325.013794,391.260834 323.787384,391.080933 
	C323.787384,391.080963 323.397430,391.073364 323.040710,390.776428 
	C321.461090,390.309235 320.238159,390.138977 319.015228,389.968719 
	C318.845215,389.972626 318.675232,389.976532 318.188354,389.629639 
	C315.020905,384.414520 315.020905,384.414520 312.017883,386.866425 
	C304.896332,383.636383 297.577759,380.771423 290.712433,377.066589 
	C284.676514,373.809357 279.147949,369.611877 273.217224,365.158630 
	C274.884247,359.926788 271.720703,353.571594 276.374817,351.087677 
	C289.416443,358.351501 301.124115,365.621582 313.473450,371.556549 
	C328.148621,378.609283 344.086761,381.235901 360.317566,382.018677 
	C363.698944,382.181763 365.247070,381.053375 365.023315,377.485626 
	C364.815430,374.170959 365.003174,370.831451 365.472931,367.403259 
	C372.226318,366.774902 378.604370,366.715668 384.808502,365.646942 
	C473.162354,350.427307 514.166382,246.579590 459.730804,175.309280 
	C436.055206,144.311783 404.037109,128.810318 365.007690,127.398849 
	C364.999908,122.571823 365.003265,118.201637 365.472351,113.781311 
	C374.305115,114.441208 382.672180,115.151253 391.399963,116.001213 
	C409.500641,120.069801 425.828827,127.265106 441.095276,137.631546 
	C446.896912,142.551163 452.767944,146.932983 458.049194,151.937180 
	C470.092255,163.348511 479.212769,176.919815 486.352600,192.241821 
	C496.538330,215.381699 499.969971,239.181976 497.127686,264.340454 
	C494.842804,282.201508 489.029236,298.466644 480.726715,314.225098 
	C465.567444,338.679138 445.649750,357.422302 419.574982,369.122406 
	C407.495056,374.542847 395.332153,379.752777 381.622345,380.219971 
	C375.453247,380.430145 368.391968,381.513550 365.134308,387.770111 
	C362.857635,392.142700 361.424561,396.569733 355.737976,397.828918 
	C355.314575,397.870514 355.142822,397.845367 354.834656,397.655334 
	C354.494781,397.285187 354.261383,397.123199 353.579163,396.960938 
	C346.710602,395.946625 340.260803,394.975769 333.811035,394.004944 
z"/>
<path fill="#424A52" opacity="1.000000" stroke="none" 
	d="
M365.006653,113.831451 
	C365.003265,118.201637 364.999908,122.571823 364.548279,127.472717 
	C358.127625,128.427841 352.085022,128.410263 346.193756,129.345612 
	C292.104004,137.933472 251.298599,181.421783 245.905991,236.008438 
	C240.813965,287.552399 267.833832,334.795319 314.738678,356.475861 
	C330.701691,363.854309 347.536438,367.114807 365.016724,367.502899 
	C365.003174,370.831451 364.815430,374.170959 365.023315,377.485626 
	C365.247070,381.053375 363.698944,382.181763 360.317566,382.018677 
	C344.086761,381.235901 328.148621,378.609283 313.473450,371.556549 
	C301.124115,365.621582 289.416443,358.351501 276.374817,351.087677 
	C271.720703,353.571594 274.884247,359.926788 272.980652,364.934174 
	C267.271912,360.292999 261.513977,355.317780 256.020844,350.065643 
	C253.594406,347.745667 251.704926,344.864105 249.282898,341.747192 
	C248.291595,340.515381 247.589066,339.773926 246.886520,339.032440 
	C246.886520,339.032440 246.957825,339.024200 246.985168,338.630890 
	C248.122971,332.565582 249.275253,326.901215 250.306396,321.214813 
	C250.498230,320.156860 250.579208,318.787537 250.076035,317.938385 
	C242.124191,304.519012 236.900223,290.036041 233.045258,274.562927 
	C232.632248,271.190826 232.258392,268.245728 231.875412,265.301849 
	C230.215012,252.538345 230.566925,239.786911 232.217621,226.753357 
	C232.462723,225.647934 232.589035,224.831360 232.795685,223.762512 
	C232.865707,223.334076 232.855392,223.157898 232.959244,222.610260 
	C238.198792,197.693359 249.069382,176.032730 265.964600,157.117065 
	C275.745941,146.506302 286.967560,138.177963 299.301941,130.736465 
	C315.649658,121.675446 332.911621,116.530350 351.446960,113.925629 
	C356.270355,113.916168 360.638489,113.873810 365.006653,113.831451 
z"/>
<path fill="#30363D" opacity="1.000000" stroke="none" 
	d="
M355.989624,397.762146 
	C361.424561,396.569733 362.857635,392.142700 365.134308,387.770111 
	C368.391968,381.513550 375.453247,380.430145 381.622345,380.219971 
	C395.332153,379.752777 407.495056,374.542847 419.574982,369.122406 
	C445.649750,357.422302 465.567444,338.679138 481.067993,314.375580 
	C486.530090,315.572113 491.404541,316.844055 496.278961,318.116028 
	C489.744232,327.771484 484.068146,338.181702 476.431915,346.868927 
	C468.887390,355.451813 459.916992,363.077057 450.565338,369.701111 
	C438.785034,378.045563 426.060425,385.127258 412.085541,389.426331 
	C406.423920,391.167969 400.647736,392.537231 394.094177,394.005615 
	C390.971405,394.293976 388.532227,394.269165 386.409790,395.076782 
	C376.493774,398.850006 366.228577,398.029602 355.989624,397.762146 
z"/>
<path fill="#213C6D" opacity="1.000000" stroke="none" 
	d="
M521.969543,591.175171 
	C517.033936,588.280640 513.513916,590.746704 513.094360,597.638672 
	C512.721863,603.758179 513.016174,609.918335 513.016174,616.527649 
	C508.762512,616.527649 504.875305,616.527649 500.490173,616.527649 
	C500.490173,605.011902 500.490173,593.350525 500.490173,580.993347 
	C504.954407,582.170654 510.101898,578.326782 514.035950,584.304749 
	C517.693909,579.052002 523.501770,579.509949 529.061584,580.198425 
	C531.425720,580.491272 533.581604,582.466614 534.722351,583.080322 
	C540.002014,581.966248 544.763977,580.309814 549.584595,580.116211 
	C555.085571,579.895203 559.542358,584.031616 559.803406,589.443970 
	C560.233826,598.367310 559.920166,607.326538 559.920166,616.630554 
	C555.549500,616.630554 551.662170,616.630554 547.000000,616.630554 
	C547.000000,611.723450 547.088501,606.962158 546.964905,602.206360 
	C546.896790,599.583618 546.388977,596.975037 546.230957,594.351013 
	C546.051453,591.369812 544.899231,589.771057 541.600586,589.972412 
	C538.010376,590.191467 537.265320,592.629028 537.055359,595.389832 
	C536.603760,601.326599 536.342712,607.277893 535.990417,613.222412 
	C535.932373,614.201111 535.807434,615.175842 535.637634,616.940063 
	C532.158936,616.940063 528.713257,617.189087 525.349121,616.775391 
	C524.440674,616.663635 523.165405,614.570496 523.110352,613.339722 
	C522.865112,607.859497 523.067566,602.360840 522.961426,596.871704 
	C522.927063,595.093628 522.445190,593.324280 521.969543,591.175171 
z"/>
<path fill="#213C6D" opacity="1.000000" stroke="none" 
	d="
M106.754425,608.001343 
	C104.453568,608.001038 102.578773,608.252686 100.796478,607.953430 
	C95.589096,607.079163 92.298996,608.615295 91.248222,614.217712 
	C91.043938,615.306885 89.179619,616.752502 87.974419,616.862122 
	C84.202675,617.205200 80.379982,616.988159 75.592125,616.988159 
	C76.927513,613.216248 78.024055,610.200073 79.064911,607.164795 
	C83.414474,594.480957 87.809700,581.812134 92.038475,569.088013 
	C92.987877,566.231506 94.207970,564.908264 97.553268,564.902161 
	C112.136551,564.875488 112.109428,564.753723 116.790260,578.609558 
	C121.022079,591.136353 125.321350,603.640320 129.865860,616.960327 
	C125.141266,616.960327 121.052811,617.228271 117.040909,616.792114 
	C115.883430,616.666321 114.358521,614.657410 114.021141,613.264954 
	C113.109093,609.500488 111.477676,607.204529 106.754425,608.001343 
M107.176392,591.221558 
	C105.818214,586.725281 104.460045,582.229065 102.728966,576.498352 
	C100.523064,584.029114 98.735344,590.132202 96.837616,596.610901 
	C101.154625,596.610901 104.830162,596.610901 108.831856,596.610901 
	C108.306427,594.771545 107.903633,593.361511 107.176392,591.221558 
z"/>
<path fill="#417EA5" opacity="1.000000" stroke="none" 
	d="
M486.286469,191.891632 
	C479.212769,176.919815 470.092255,163.348511 458.049194,151.937180 
	C452.767944,146.932983 446.896912,142.551163 441.242004,137.283966 
	C442.199158,133.894821 444.055267,134.374130 446.406982,134.911194 
	C453.319702,136.489807 460.310394,137.727097 467.270538,139.098038 
	C481.875793,152.429047 492.455139,168.653702 500.767395,186.400757 
	C507.252930,200.247604 511.691528,214.745804 512.526489,230.455566 
	C511.029907,229.475174 509.696014,228.263321 508.838623,226.776657 
	C502.890228,216.462662 497.130280,206.038635 491.069611,195.792053 
	C490.086670,194.130249 487.910889,193.174011 486.286469,191.891632 
z"/>
<path fill="#213C6D" opacity="1.000000" stroke="none" 
	d="
M573.032959,476.000000 
	C575.445923,476.000000 577.391846,476.000000 579.665161,476.000000 
	C579.665161,494.504486 579.665161,512.375244 579.665161,530.908569 
	C575.375977,530.191101 570.703796,533.173035 567.049866,527.978638 
	C561.354370,532.827454 554.616638,533.745483 547.398987,530.113586 
	C546.665283,529.744446 545.944946,529.300903 545.318848,528.772766 
	C538.172607,522.745728 536.373352,500.334839 549.432983,495.188385 
	C554.417725,493.223999 560.624451,493.560760 566.850586,497.342896 
	C566.850586,490.345825 566.850586,483.641357 566.850586,476.355194 
	C569.069275,476.217285 570.817566,476.108612 573.032959,476.000000 
M566.090881,507.439453 
	C563.033875,503.954254 559.486084,503.900177 556.075500,506.556824 
	C552.369507,509.443634 551.954407,514.394714 554.681885,518.100708 
	C556.953430,521.187195 561.717957,522.069702 564.846313,519.983398 
	C568.354126,517.644043 569.050659,512.869995 566.090881,507.439453 
z"/>
<path fill="#213C6D" opacity="1.000000" stroke="none" 
	d="
M212.044159,530.365234 
	C204.990402,532.930603 198.481445,533.564819 192.932190,527.678223 
	C190.026031,533.577698 184.966721,529.884094 180.474014,531.249756 
	C180.474014,512.678101 180.474014,494.695526 180.474014,476.354553 
	C184.142441,476.354553 187.695938,476.354553 191.925812,476.354553 
	C191.925812,483.699524 191.925812,490.875549 191.925812,498.465759 
	C201.941360,491.870148 210.789429,492.545715 216.616806,500.216339 
	C221.776550,507.008179 222.080887,524.733215 212.044159,530.365234 
M205.164948,508.355865 
	C203.050827,503.920715 199.339920,504.384918 195.805099,505.733765 
	C191.147217,507.511108 191.746750,511.817780 192.164017,515.560242 
	C192.572495,519.224060 195.229019,520.807007 198.802765,520.996399 
	C204.802063,521.314209 207.643753,516.287842 205.164948,508.355865 
z"/>
<path fill="#213C6D" opacity="1.000000" stroke="none" 
	d="
M321.333832,531.935547 
	C313.666290,532.753540 307.105377,531.710938 303.731293,524.234070 
	C299.702332,515.305847 300.048889,506.520447 306.091370,498.524902 
	C309.617035,493.859650 318.115265,492.367950 323.912628,494.982849 
	C325.410431,495.658447 326.839294,496.486725 328.299805,497.244873 
	C328.268188,496.746521 328.236572,496.248199 328.204926,495.749847 
	C332.491119,495.422974 336.777313,495.096069 341.569824,494.730591 
	C341.569824,506.983765 341.569824,518.534668 341.569824,530.749329 
	C336.993652,530.414978 332.190002,532.923584 328.107208,528.958313 
	C325.954926,529.955383 323.856049,530.927734 321.333832,531.935547 
M322.463562,520.994812 
	C327.458160,520.353455 330.286499,517.124329 329.980530,512.412659 
	C329.715088,508.325531 326.598114,505.165497 322.785797,505.005157 
	C318.521454,504.825806 315.699493,506.492554 315.047150,510.932983 
	C314.167145,516.923096 316.031250,519.714539 322.463562,520.994812 
z"/>
<path fill="#5298B3" opacity="1.000000" stroke="none" 
	d="
M467.078308,138.790497 
	C460.310394,137.727097 453.319702,136.489807 446.406982,134.911194 
	C444.055267,134.374130 442.199158,133.894821 441.043579,137.028778 
	C425.828827,127.265106 409.500641,120.069801 391.328003,115.672546 
	C386.089264,109.823189 381.283173,104.442398 376.627960,99.230568 
	C377.641327,99.171471 379.417908,99.067863 381.194489,98.964256 
	C401.700562,100.795013 420.735107,107.415375 438.218231,117.956238 
	C448.252106,124.005814 457.360870,131.589752 467.078308,138.790497 
z"/>
<path fill="#213C6D" opacity="1.000000" stroke="none" 
	d="
M171.000443,511.002777 
	C171.000443,517.779358 171.000443,524.056946 171.000443,531.061279 
	C166.327805,530.069397 161.547958,533.372498 158.770142,528.913452 
	C154.434479,529.940979 150.129486,531.585327 145.738510,531.861206 
	C138.448257,532.319153 132.638107,527.729614 131.356750,520.096497 
	C130.306152,513.838013 130.164185,507.470520 133.209534,501.224060 
	C136.832230,493.793457 150.583817,490.648987 158.159882,498.216583 
	C160.913055,492.303650 166.021286,496.181122 171.000443,494.545715 
	C171.000443,500.366852 171.000443,505.435333 171.000443,511.002777 
M153.103180,520.963257 
	C158.006317,518.643005 160.099487,514.666443 158.678726,510.370697 
	C157.347336,506.345093 153.506042,504.139954 149.286026,505.121185 
	C144.574036,506.216766 143.759247,509.745514 144.000717,513.892944 
	C144.256485,518.286499 147.079819,520.720825 153.103180,520.963257 
z"/>
<path fill="#213C6D" opacity="1.000000" stroke="none" 
	d="
M189.638885,617.930420 
	C181.039566,615.257812 178.080490,609.019531 178.075256,601.093384 
	C178.072678,597.190125 178.330872,593.135742 179.390152,589.411133 
	C182.465164,578.598755 198.191483,576.327576 204.912460,584.157471 
	C207.979782,578.520691 213.000443,581.973083 217.598816,580.870667 
	C217.598816,593.020386 217.598816,604.554016 217.597778,616.089722 
	C211.023178,618.141418 207.114105,617.439941 206.015915,615.190308 
	C200.403870,616.167603 195.231018,617.068481 189.638885,617.930420 
M200.743927,606.603210 
	C204.555405,604.999023 206.649216,602.010925 205.840912,598.042542 
	C205.339890,595.582825 203.843643,592.192688 201.924774,591.441772 
	C199.531342,590.505127 195.008438,590.827942 193.644516,592.468689 
	C191.812012,594.673035 191.210434,598.816284 191.737808,601.838013 
	C192.416443,605.726318 195.649307,607.777039 200.743927,606.603210 
z"/>
<path fill="#213C6D" opacity="1.000000" stroke="none" 
	d="
M392.999146,583.181885 
	C392.868042,581.271790 392.737274,579.839050 392.568939,577.994141 
	C389.050720,577.994141 385.939819,577.994141 382.416962,577.994141 
	C382.416962,573.655151 382.416962,569.762878 382.416962,565.432129 
	C394.648132,565.432129 406.869812,565.432129 419.559479,565.432129 
	C419.559479,569.274841 419.559479,573.167175 419.559479,577.690918 
	C416.058929,577.878235 412.351105,578.076599 408.039490,578.307251 
	C408.039490,591.175476 408.039490,603.739929 408.039490,616.643555 
	C402.854828,616.643555 398.299622,616.643555 392.999512,616.643555 
	C392.999512,605.515686 392.999512,594.587402 392.999146,583.181885 
z"/>
<path fill="#213C6D" opacity="1.000000" stroke="none" 
	d="
M139.842682,581.000977 
	C142.173492,581.843750 144.053391,582.686279 146.616852,583.835144 
	C150.124298,579.505310 156.300995,579.536133 162.494888,580.071777 
	C167.028900,580.463928 170.117493,583.624573 170.583252,587.676392 
	C171.674255,597.167480 171.890686,606.759094 172.483246,616.679077 
	C167.184174,616.679077 162.953873,616.679077 157.999710,616.679077 
	C157.999710,610.330994 157.911087,604.221497 158.031158,598.116211 
	C158.109924,594.111389 157.521744,590.405396 152.720200,590.130981 
	C147.949326,589.858215 146.583084,593.895081 146.207123,597.496033 
	C145.673355,602.608704 146.043121,607.814087 145.982315,612.979248 
	C145.969025,614.108765 145.768204,615.235962 145.623642,616.661133 
	C141.482056,616.661133 137.590652,616.661133 133.348877,616.661133 
	C133.348877,604.836121 133.348877,593.277832 133.348877,581.000671 
	C135.515366,581.000671 137.453568,581.000671 139.842682,581.000977 
z"/>
<path fill="#213C6D" opacity="1.000000" stroke="none" 
	d="
M490.242676,531.998779 
	C479.521149,531.962341 471.771637,521.728943 472.097717,512.349182 
	C472.453033,502.129089 481.158295,494.042175 491.205109,494.000092 
	C502.941772,493.950928 509.513062,498.891754 512.232605,509.400848 
	C515.398682,521.635254 503.857758,532.260437 494.675690,532.004272 
	C493.348175,531.967224 492.018707,531.999390 490.242676,531.998779 
M496.917633,519.424194 
	C497.587463,516.470032 499.082245,513.388550 498.652222,510.604218 
	C498.338348,508.572052 495.777283,506.125488 493.677673,505.374695 
	C492.037140,504.788055 488.010437,506.165924 487.752045,507.292145 
	C486.927490,510.886261 486.320404,515.184509 487.606293,518.426758 
	C488.923645,521.748291 492.933167,521.706543 496.917633,519.424194 
z"/>
<path fill="#213C6D" opacity="1.000000" stroke="none" 
	d="
M264.424622,507.961426 
	C266.446259,517.285950 263.507111,524.579468 255.895020,529.260864 
	C249.001129,533.500488 241.450150,533.408142 234.140594,529.586243 
	C227.140900,525.926392 223.283234,516.790405 225.114029,508.241699 
	C226.698624,500.842468 234.061981,494.714355 241.732376,493.974609 
	C253.078659,492.880249 260.583313,497.778839 264.424622,507.961426 
M250.009872,518.424744 
	C250.456848,517.380859 251.433899,516.232971 251.253357,515.312134 
	C250.666245,512.317810 250.383865,508.750641 248.540573,506.704376 
	C247.396866,505.434662 242.495529,505.483704 241.314758,506.785583 
	C239.425461,508.868652 238.071243,512.687927 238.551483,515.409729 
	C239.563339,521.144409 243.840485,522.226929 250.009872,518.424744 
z"/>
<path fill="#213C6D" opacity="1.000000" stroke="none" 
	d="
M652.224243,582.574097 
	C662.743103,588.093628 663.392456,602.792175 657.323181,611.034485 
	C651.498901,618.944153 636.579041,620.464661 628.533813,613.992310 
	C619.685791,606.874146 618.447510,594.254517 625.842346,585.753906 
	C631.491089,579.260437 644.111633,577.836792 652.224243,582.574097 
M639.290100,606.201904 
	C643.999329,607.105774 647.330444,604.757324 647.964600,600.086365 
	C648.622742,595.238464 646.007812,591.403870 641.786560,591.026794 
	C637.689575,590.660828 633.595703,594.369507 634.266174,598.842224 
	C634.648132,601.390442 637.058716,603.634583 639.290100,606.201904 
z"/>
<path fill="#213C6D" opacity="1.000000" stroke="none" 
	d="
M408.771362,525.726074 
	C400.631378,535.628540 381.658356,533.856689 376.081055,522.574646 
	C370.435944,511.155426 375.053040,495.228271 391.383514,494.078217 
	C403.540710,493.222046 409.856537,497.728210 413.233154,508.476990 
	C415.291626,515.029724 413.051147,520.453064 408.771362,525.726074 
M393.528595,505.023285 
	C388.247253,506.627350 385.708252,509.747559 387.280487,514.764648 
	C388.063080,517.261841 391.261108,520.218018 393.787506,520.683960 
	C398.198425,521.497498 400.146790,517.464050 400.396545,513.737061 
	C400.671173,509.639038 399.196014,505.937958 393.528595,505.023285 
z"/>
<path fill="#213C6D" opacity="1.000000" stroke="none" 
	d="
M599.446899,517.520752 
	C602.406433,523.691895 607.420959,524.946411 612.354126,521.136841 
	C617.049255,517.511047 619.891907,522.756470 623.770508,522.805420 
	C622.507019,531.906982 609.019165,533.377441 599.745605,531.330566 
	C590.775757,529.350769 583.651550,519.877869 587.190918,507.556702 
	C590.090759,497.461761 598.343323,492.264374 611.707886,494.158203 
	C620.467773,495.399536 626.741272,505.250824 625.500671,516.000061 
	C618.511902,516.000061 611.406616,515.929932 604.304688,516.052246 
	C602.647461,516.080750 601.001526,516.762695 599.446899,517.520752 
M600.490356,506.097290 
	C600.830383,506.693817 601.150635,507.794159 601.513428,507.808411 
	C604.889832,507.941010 608.273560,507.886871 611.655212,507.886871 
	C611.887451,507.309113 612.119690,506.731384 612.351929,506.153625 
	C610.715881,504.992798 609.082947,502.904266 607.443115,502.898895 
	C605.243225,502.891754 603.038025,504.495331 600.490356,506.097290 
z"/>
<path fill="#213C6D" opacity="1.000000" stroke="none" 
	d="
M461.731018,595.604858 
	C461.861389,597.792175 461.861389,599.573669 461.861389,601.899902 
	C452.821381,601.899902 444.230682,601.899902 435.541046,601.899902 
	C436.935303,608.760986 441.807373,611.599915 446.739319,607.838318 
	C452.277191,603.614563 455.625702,607.308228 459.813873,609.119873 
	C457.173157,618.196716 444.931335,619.337097 437.036591,617.407593 
	C427.510742,615.079407 421.438660,606.769287 422.349213,598.265076 
	C423.363770,588.789490 430.296326,580.646667 437.768982,580.001831 
	C452.373413,578.741516 458.612610,583.248169 461.731018,595.604858 
M447.275665,593.928650 
	C447.826233,591.025269 446.276276,588.575745 443.114838,588.218994 
	C439.533020,587.814819 436.880524,589.224121 435.994385,593.986023 
	C439.765137,593.986023 443.135956,593.986023 447.275665,593.928650 
z"/>
<path fill="#E19137" opacity="1.000000" stroke="none" 
	d="
M265.699249,157.264023 
	C249.069382,176.032730 238.198792,197.693359 232.840515,222.709686 
	C232.437088,223.481705 232.472992,223.759781 232.715347,224.014771 
	C232.589035,224.831360 232.462723,225.647934 231.870270,226.833984 
	C230.617096,228.586014 229.645981,229.896561 229.072250,231.362595 
	C224.706177,242.519012 220.417740,253.705811 216.105118,264.883148 
	C215.735474,258.372528 215.335342,251.863403 215.013550,245.350418 
	C214.907791,243.210068 215.004974,241.059723 215.426147,238.380569 
	C217.017517,236.352997 218.736526,235.034286 219.283386,233.337753 
	C225.490417,214.081543 233.693375,195.849731 245.769012,179.469955 
	C246.547256,178.414337 246.498779,175.358444 245.707245,174.782303 
	C242.632980,172.544632 239.298462,169.636475 235.150909,173.013184 
	C239.374619,166.896393 243.598312,160.779602 248.281769,154.262619 
	C249.152527,153.172791 249.563568,152.483154 249.974579,151.793518 
	C250.280487,151.395584 250.586395,150.997650 251.360321,150.362244 
	C256.451996,152.504501 261.075623,154.884262 265.699249,157.264023 
z"/>
<path fill="#213C6D" opacity="1.000000" stroke="none" 
	d="
M100.137238,479.000488 
	C103.424896,479.000092 106.239471,479.000092 109.847977,479.000092 
	C109.847977,492.003448 109.847977,504.681702 109.847977,517.970520 
	C115.854828,517.970520 121.089706,517.970520 126.649307,517.970520 
	C126.649307,522.486633 126.649307,526.373657 126.649307,530.931152 
	C116.692871,530.931152 106.938774,531.001404 97.190659,530.792480 
	C96.443703,530.776489 95.118042,528.794678 95.108231,527.717102 
	C94.970360,512.578369 95.074951,497.437531 94.971176,482.298248 
	C94.945610,478.567932 97.347099,479.018097 100.137238,479.000488 
z"/>
<path fill="#38658C" opacity="1.000000" stroke="none" 
	d="
M486.352600,192.241821 
	C487.910889,193.174011 490.086670,194.130249 491.069611,195.792053 
	C497.130280,206.038635 502.890228,216.462662 508.838623,226.776657 
	C509.696014,228.263321 511.029907,229.475174 512.475464,230.884186 
	C515.198914,246.531006 514.530518,261.995483 510.774841,277.579895 
	C509.265259,275.836761 508.324249,273.666504 506.851990,271.952515 
	C504.107391,268.757233 502.828339,263.670929 497.196564,263.919861 
	C499.969971,239.181976 496.538330,215.381699 486.352600,192.241821 
z"/>
<path fill="#9D9E8B" opacity="1.000000" stroke="none" 
	d="
M350.991760,113.892715 
	C332.911621,116.530350 315.649658,121.675446 299.237885,130.412964 
	C295.177399,126.438774 291.516357,122.701622 287.855286,118.964462 
	C296.549072,113.204216 305.894165,108.864403 315.903381,105.909164 
	C321.557251,104.239861 327.130249,102.296379 332.785614,100.632721 
	C334.476166,100.135422 336.322144,100.166481 338.553986,100.272743 
	C340.248108,102.005386 341.465088,103.438919 342.726288,104.832405 
	C345.469482,107.863335 348.235229,110.873848 350.991760,113.892715 
z"/>
<path fill="#213C6D" opacity="1.000000" stroke="none" 
	d="
M287.768250,589.026123 
	C285.674286,589.275208 283.987091,589.539246 282.299896,589.803223 
	C282.187439,590.384094 282.074982,590.964905 281.962555,591.545715 
	C285.198212,592.716553 288.433502,593.888489 291.669647,595.058044 
	C296.357178,596.752197 299.718811,599.551514 299.995758,604.961975 
	C300.283844,610.590149 297.544098,615.028625 292.081635,616.816467 
	C284.681885,619.238403 277.354401,618.514160 270.437622,615.017395 
	C269.388550,614.487000 268.410828,612.487000 268.522949,611.270264 
	C268.743164,608.880981 269.753204,606.564453 270.636536,603.530457 
	C276.195801,606.653442 281.447235,610.190735 289.171906,606.028992 
	C286.401886,604.681641 284.706696,603.753723 282.931885,603.017822 
	C280.196045,601.883362 277.286957,601.112732 274.663696,599.772278 
	C269.623413,597.196777 268.646637,592.131958 270.384491,587.830933 
	C271.666626,584.657837 275.415070,581.299133 278.706970,580.415222 
	C282.956451,579.274170 287.932373,580.039368 292.440308,580.848328 
	C299.162933,582.054565 299.096130,582.372986 297.232819,588.653015 
	C296.955200,589.588684 296.811005,590.564026 296.462830,592.182312 
	C293.532898,591.071838 290.853943,590.056396 287.768250,589.026123 
z"/>
<path fill="#213C6D" opacity="1.000000" stroke="none" 
	d="
M348.591492,616.980835 
	C341.193970,619.077393 334.342712,618.393860 327.909119,615.228821 
	C326.584656,614.577209 325.573944,611.983032 325.573792,610.284180 
	C325.573608,608.289917 326.834381,606.295532 327.387970,604.748962 
	C331.951782,605.881958 336.178040,607.095337 340.482758,607.876099 
	C341.471252,608.055359 342.729492,606.747375 343.863586,606.123840 
	C342.931458,605.132385 342.177704,603.742615 341.031464,603.229248 
	C338.335785,602.022156 335.307190,601.525391 332.675842,600.214355 
	C327.310455,597.541077 325.547150,593.161194 327.075226,587.412415 
	C327.978363,584.014648 333.325500,580.000732 337.377228,580.052185 
	C341.500580,580.104431 345.698792,580.125793 349.721771,580.900513 
	C356.484100,582.202820 356.443115,582.451477 354.109039,588.916931 
	C353.784637,589.815613 353.360535,590.678284 352.869385,591.821045 
	C348.324554,590.924500 344.182983,586.725708 338.202271,591.132812 
	C342.151550,592.696716 345.296722,594.032410 348.505646,595.191528 
	C353.196930,596.886047 356.734894,599.583252 356.963593,604.991699 
	C357.210358,610.829102 354.334412,614.730408 348.591492,616.980835 
z"/>
<path fill="#213C6D" opacity="1.000000" stroke="none" 
	d="
M497.127686,264.340454 
	C502.828339,263.670929 504.107391,268.757233 506.851990,271.952515 
	C508.324249,273.666504 509.265259,275.836761 510.745483,277.992645 
	C508.561646,292.161682 503.312805,305.137665 496.517700,317.878113 
	C491.404541,316.844055 486.530090,315.572113 481.314392,314.149689 
	C489.029236,298.466644 494.842804,282.201508 497.127686,264.340454 
z"/>
<path fill="#213C6D" opacity="1.000000" stroke="none" 
	d="
M366.141785,493.505676 
	C367.559998,494.493256 368.879364,495.053864 370.303955,495.659210 
	C372.050995,502.762268 371.536560,504.170959 366.081512,505.868469 
	C366.081512,513.832581 366.081512,521.940674 366.081512,530.522034 
	C361.326996,530.522034 356.989410,530.522034 352.183929,530.522034 
	C352.183929,522.255798 352.183929,514.158691 352.183929,505.895233 
	C350.448303,505.359375 349.085083,504.938507 347.359802,504.405853 
	C347.359802,501.618866 347.359802,498.715576 347.359802,495.514557 
	C348.776581,495.185638 350.161041,494.864197 351.916199,494.456726 
	C351.916199,491.153809 351.916199,488.040863 351.916199,484.052673 
	C356.076904,484.052673 359.827881,483.900421 363.548645,484.168274 
	C364.394226,484.229156 365.647156,485.653503 365.819244,486.610840 
	C366.196960,488.712311 366.003265,490.916443 366.141785,493.505676 
z"/>
<path fill="#88613E" opacity="1.000000" stroke="none" 
	d="
M233.080231,274.990509 
	C236.900223,290.036041 242.124191,304.519012 250.076035,317.938385 
	C250.579208,318.787537 250.498230,320.156860 250.306396,321.214813 
	C249.275253,326.901215 248.122971,332.565582 246.984375,338.666748 
	C242.452927,332.752380 237.326965,326.750732 233.607208,319.976898 
	C229.166229,311.889648 225.929230,303.141296 222.475677,294.394318 
	C224.030548,293.355713 225.986771,292.873779 226.400421,291.798523 
	C227.744232,288.305084 228.319382,284.520599 229.595703,280.994843 
	C230.370834,278.853546 231.893417,276.982819 233.080231,274.990509 
z"/>
<path fill="#C99B5D" opacity="1.000000" stroke="none" 
	d="
M287.547821,119.114059 
	C291.516357,122.701622 295.177399,126.438774 298.902527,130.499420 
	C286.967560,138.177963 275.745941,146.506302 265.964600,157.117065 
	C261.075623,154.884262 256.451996,152.504501 251.472015,150.131378 
	C255.804810,145.183304 260.087708,139.743484 265.282928,135.393204 
	C272.231812,129.574493 279.887939,124.600433 287.547821,119.114059 
z"/>
<path fill="#213C6D" opacity="1.000000" stroke="none" 
	d="
M596.499573,582.267029 
	C601.772705,579.028198 607.178345,578.950745 612.537964,580.234863 
	C613.919495,580.565857 615.511414,582.632629 615.840332,584.154175 
	C616.386780,586.681885 615.989197,589.413635 615.989197,593.024719 
	C610.734985,589.373596 606.080627,588.957336 602.581543,594.131409 
	C600.268127,597.552246 600.922424,601.387512 603.401489,604.257812 
	C606.901428,608.310120 611.251160,607.779236 615.255310,604.590576 
	C615.627014,605.240601 615.950684,605.542419 615.901428,605.759766 
	C615.055969,609.493164 618.629761,614.756165 613.415405,616.823975 
	C607.190247,619.292603 600.686890,618.925659 595.045288,614.519043 
	C586.828613,608.101135 584.020935,591.676331 596.499573,582.267029 
z"/>
<path fill="#213C6D" opacity="1.000000" stroke="none" 
	d="
M240.000198,580.001099 
	C240.000198,592.423584 240.000198,604.346375 240.000198,616.631348 
	C235.552444,616.631348 231.668640,616.631348 227.390656,616.631348 
	C227.390656,598.627747 227.390656,580.772461 227.390656,562.457275 
	C231.265305,562.457275 235.147568,562.457275 240.000198,562.457275 
	C240.000198,568.036255 240.000198,573.768860 240.000198,580.001099 
z"/>
<path fill="#213C6D" opacity="1.000000" stroke="none" 
	d="
M274.260498,530.985596 
	C272.868744,529.929382 271.158081,528.896851 271.138031,527.832458 
	C270.937988,517.212646 271.016632,506.587616 271.016632,495.483398 
	C275.205353,495.483398 279.081573,495.483398 283.435333,495.483398 
	C283.713501,496.492401 284.077606,497.813141 284.571594,499.604980 
	C288.499603,495.675690 292.618591,492.811310 299.000427,494.620636 
	C299.000427,496.426147 298.843903,498.374420 299.032318,500.288727 
	C299.453247,504.565338 298.439972,506.660583 293.359039,506.151184 
	C288.149658,505.628876 285.161896,509.026825 285.024048,514.380127 
	C284.925659,518.199829 284.734924,522.047791 285.072388,525.839844 
	C285.451691,530.101868 283.768494,531.556458 279.707184,531.033508 
	C278.072266,530.823059 276.388000,530.996033 274.260498,530.985596 
z"/>
<path fill="#213C6D" opacity="1.000000" stroke="none" 
	d="
M482.005585,601.352905 
	C481.989441,606.132324 481.982574,610.451904 481.939240,614.771118 
	C481.934479,615.244812 481.720306,615.716431 481.416840,616.941711 
	C477.818726,616.941711 474.055145,617.127686 470.336487,616.801514 
	C469.484039,616.726685 468.134003,614.899170 468.117920,613.861206 
	C467.953491,603.240051 468.017273,592.615356 468.017273,581.497375 
	C472.183838,581.497375 476.059235,581.497375 480.405762,581.497375 
	C480.690918,582.475647 481.074646,583.792175 481.583008,585.536316 
	C485.284973,581.196777 489.541687,578.849426 495.990936,580.611633 
	C495.990936,582.619568 495.975891,584.868042 495.994476,587.116333 
	C496.023193,590.592224 494.524780,592.072693 490.850494,592.081665 
	C484.679901,592.096985 482.511169,594.494812 482.005585,601.352905 
z"/>
<path fill="#213C6D" opacity="1.000000" stroke="none" 
	d="
M447.999512,498.920410 
	C447.676910,501.595734 447.353912,503.831848 447.041931,505.991577 
	C436.036194,505.899628 433.364166,508.546967 433.022430,519.507324 
	C432.909943,523.114563 433.004700,526.728271 433.004700,530.660278 
	C428.494171,530.660278 424.610352,530.660278 420.361755,530.660278 
	C420.361755,518.886536 420.361755,507.350555 420.361755,495.847473 
	C428.642853,493.600128 432.319489,494.521332 433.256683,498.756592 
	C436.493805,497.197144 439.656738,495.220154 443.101196,494.145386 
	C446.353943,493.130371 448.659454,494.442596 447.999512,498.920410 
z"/>
<path fill="#B77839" opacity="1.000000" stroke="none" 
	d="
M233.045258,274.562927 
	C231.893417,276.982819 230.370834,278.853546 229.595703,280.994843 
	C228.319382,284.520599 227.744232,288.305084 226.400421,291.798523 
	C225.986771,292.873779 224.030548,293.355713 222.453918,294.021912 
	C220.081055,284.543701 218.034927,275.152954 216.046967,265.322662 
	C220.417740,253.705811 224.706177,242.519012 229.072250,231.362595 
	C229.645981,229.896561 230.617096,228.586014 231.751495,227.122833 
	C230.566925,239.786911 230.215012,252.538345 231.875412,265.301849 
	C232.258392,268.245728 232.632248,271.190826 233.045258,274.562927 
z"/>
<path fill="#709DA6" opacity="1.000000" stroke="none" 
	d="
M351.446960,113.925621 
	C348.235229,110.873848 345.469482,107.863335 342.726288,104.832405 
	C341.465088,103.438919 340.248108,102.005386 338.982635,100.225143 
	C342.409698,99.218880 345.857513,98.082870 349.322174,98.028694 
	C359.778931,97.865196 370.242218,98.122040 380.948730,98.589630 
	C379.417908,99.067863 377.641327,99.171471 376.627960,99.230568 
	C381.283173,104.442398 386.089264,109.823189 390.967316,115.532639 
	C382.672180,115.151253 374.305115,114.441208 365.472351,113.781311 
	C360.638489,113.873810 356.270355,113.916168 351.446960,113.925621 
z"/>
<path fill="#F19C3A" opacity="1.000000" stroke="none" 
	d="
M234.996979,173.334259 
	C239.298462,169.636475 242.632980,172.544632 245.707245,174.782303 
	C246.498779,175.358444 246.547256,178.414337 245.769012,179.469955 
	C233.693375,195.849731 225.490417,214.081543 219.283386,233.337753 
	C218.736526,235.034286 217.017517,236.352997 215.503265,237.916656 
	C215.783005,232.080917 216.402405,226.175735 217.433533,219.728821 
	C218.240799,217.341721 218.636337,215.496353 219.031876,213.650986 
	C219.031876,213.650986 218.973770,213.380798 219.285736,212.967438 
	C219.749359,211.567596 219.901001,210.581131 220.052658,209.594650 
	C220.052658,209.594650 219.968811,209.406494 220.289856,209.018433 
	C220.764359,207.603516 220.917801,206.576691 221.071259,205.549850 
	C221.071259,205.549850 220.992188,205.455261 221.317703,205.145630 
	C221.776627,204.096603 221.910049,203.357208 222.043472,202.617828 
	C222.043472,202.617828 221.967865,202.440323 222.300293,202.105438 
	C222.770386,201.053955 222.908020,200.337357 223.045654,199.620743 
	C223.045654,199.620743 222.971008,199.435120 223.306763,199.090668 
	C223.783035,198.015991 223.923538,197.285767 224.064041,196.555527 
	C224.064041,196.555527 223.994293,196.467972 224.334717,196.149139 
	C224.805832,195.048584 224.936523,194.266876 225.067215,193.485168 
	C225.067215,193.485168 225.042542,193.499100 225.345520,193.319977 
	C225.741165,192.700195 225.833801,192.259537 225.926437,191.818893 
	C228.898636,185.764374 231.870850,179.709839 234.996979,173.334259 
z"/>
<path fill="#213C6D" opacity="1.000000" stroke="none" 
	d="
M318.341675,616.351196 
	C305.005096,618.026733 305.005096,618.026733 305.005096,605.136353 
	C305.005096,597.357544 305.005096,589.578674 305.005096,582.128723 
	C305.737701,581.615051 305.986389,581.295715 306.266907,581.264771 
	C318.999664,579.859924 319.038757,579.863220 318.985596,592.638977 
	C318.953156,600.435913 318.779236,608.232361 318.341675,616.351196 
z"/>
<path fill="#213C6D" opacity="1.000000" stroke="none" 
	d="
M258.753021,581.014160 
	C260.138275,582.072144 261.843445,583.106567 261.863525,584.172668 
	C262.063110,594.788574 261.984558,605.409668 261.984558,616.512939 
	C257.674500,616.512939 253.674515,616.512939 249.033905,616.512939 
	C249.033905,605.461792 248.969421,594.552185 249.154205,583.646729 
	C249.169281,582.757446 250.779556,581.344727 251.835419,581.140320 
	C253.917969,580.737305 256.131531,581.011292 258.753021,581.014160 
z"/>
<path fill="#213C6D" opacity="1.000000" stroke="none" 
	d="
M568.000000,599.998840 
	C568.000000,593.565918 568.000000,587.632629 568.000000,581.358032 
	C572.466309,581.358032 576.346436,581.358032 580.999390,581.358032 
	C580.999390,587.257507 580.999451,593.002869 580.999451,598.748169 
	C580.999451,604.535889 580.999390,610.323669 580.999390,616.552612 
	C576.714050,616.552612 572.833130,616.552612 568.000000,616.552612 
	C568.000000,611.283386 568.000000,605.890869 568.000000,599.998840 
z"/>
<path fill="#213C6D" opacity="1.000000" stroke="none" 
	d="
M452.003448,526.770691 
	C452.001587,516.180481 452.001587,506.063690 452.001587,495.475159 
	C456.347687,495.475159 460.346649,495.475159 464.965118,495.475159 
	C464.965118,506.555420 465.005035,517.464539 464.887299,528.371948 
	C464.878113,529.220764 463.817535,530.732971 463.155060,530.785095 
	C460.023865,531.031250 456.833496,531.094482 453.730621,530.700317 
	C453.020630,530.610168 452.573425,528.451050 452.003448,526.770691 
z"/>
<path fill="#9D9E8B" opacity="1.000000" stroke="none" 
	d="
M355.737976,397.828918 
	C366.228577,398.029602 376.493774,398.850006 386.409790,395.076782 
	C388.532227,394.269165 390.971405,394.293976 393.695129,393.971741 
	C394.731140,394.663300 395.336731,395.318420 396.540283,396.620392 
	C393.064697,397.469788 390.060120,398.778351 387.028381,398.844635 
	C374.580444,399.116760 362.123627,399.085480 349.671356,398.995026 
	C346.263458,398.970276 342.789429,398.655182 339.480896,397.889374 
	C337.509857,397.433197 335.801971,395.840118 333.893402,394.381531 
	C340.260803,394.975769 346.710602,395.946625 353.648865,397.190674 
	C354.332214,397.776886 354.610138,397.895660 354.971100,397.820221 
	C355.142822,397.845367 355.314575,397.870514 355.737976,397.828918 
z"/>
<path fill="#213C6D" opacity="1.000000" stroke="none" 
	d="
M456.482880,490.919312 
	C452.860352,489.047852 452.100800,486.251556 454.417542,483.596191 
	C455.640411,482.194550 458.835663,480.884766 460.097229,481.540497 
	C461.843719,482.448303 463.657166,485.293976 463.570099,487.225494 
	C463.397369,491.058716 460.035248,491.295105 456.482880,490.919312 
z"/>
<path fill="#213C6D" opacity="1.000000" stroke="none" 
	d="
M315.737488,568.317139 
	C317.573517,571.947998 318.001740,575.264832 313.831512,576.763184 
	C310.589844,577.927856 307.908844,576.641907 307.156891,572.924500 
	C306.255157,568.466614 310.197174,566.170166 315.737488,568.317139 
z"/>
<path fill="#213C6D" opacity="1.000000" stroke="none" 
	d="
M258.138092,576.236816 
	C255.519135,575.868164 252.954727,575.641785 251.029205,574.413757 
	C250.248734,573.916016 250.215225,570.775208 251.005371,569.665588 
	C251.957047,568.329041 254.130417,567.208984 255.803818,567.167725 
	C260.069397,567.062683 261.218445,571.179321 258.138092,576.236816 
z"/>
<path fill="#213C6D" opacity="1.000000" stroke="none" 
	d="
M571.350830,568.192688 
	C574.329407,566.242737 577.286072,566.474792 578.287903,569.295349 
	C578.981262,571.247314 578.141968,574.526794 576.747192,576.142395 
	C575.915833,577.105347 572.023071,576.781494 570.681091,575.646851 
	C568.349365,573.675354 568.222717,570.720093 571.350830,568.192688 
z"/>
<path fill="#213C6D" opacity="1.000000" stroke="none" 
	d="
M445.087555,566.627014 
	C447.766541,566.263367 450.141602,566.158142 452.516663,566.052979 
	C449.026550,570.609009 448.025604,577.560791 439.211731,576.636230 
	C441.340515,572.910889 443.062073,569.898132 445.087555,566.627014 
z"/>
<path fill="#213C6D" opacity="1.000000" stroke="none" 
	d="
M203.765839,566.249451 
	C206.431320,566.124451 208.715347,566.124451 211.147293,566.124451 
	C206.070786,574.992859 203.319321,577.196411 197.727112,576.277710 
	C199.696274,572.830627 201.540329,569.602539 203.765839,566.249451 
z"/>
<path fill="#30363D" opacity="1.000000" stroke="none" 
	d="
M312.313385,387.034668 
	C315.020905,384.414520 315.020905,384.414520 317.933350,389.625793 
	C316.199768,389.049469 314.404327,388.126190 312.313385,387.034668 
z"/>
<path fill="#CDCCCC" opacity="1.000000" stroke="none" 
	d="
M218.698273,213.842896 
	C218.636337,215.496353 218.240799,217.341721 217.556000,219.267151 
	C217.632706,217.576401 217.998688,215.805603 218.698273,213.842896 
z"/>
<path fill="#30363D" opacity="1.000000" stroke="none" 
	d="
M319.323608,390.141235 
	C320.238159,390.138977 321.461090,390.309235 322.846832,390.755676 
	C321.883759,390.792511 320.757843,390.553131 319.323608,390.141235 
z"/>
<path fill="#88613E" opacity="1.000000" stroke="none" 
	d="
M246.941376,339.356445 
	C247.589066,339.773926 248.291595,340.515381 248.968903,341.602631 
	C248.294525,341.192383 247.645386,340.436401 246.941376,339.356445 
z"/>
<path fill="#30363D" opacity="1.000000" stroke="none" 
	d="
M324.062805,391.333710 
	C325.013794,391.260834 326.240204,391.440735 327.725525,391.891907 
	C326.769043,391.970978 325.553619,391.778748 324.062805,391.333710 
z"/>
<path fill="#CDCCCC" opacity="1.000000" stroke="none" 
	d="
M219.712128,209.810394 
	C219.901001,210.581131 219.749359,211.567596 219.350616,212.845428 
	C219.192871,212.099915 219.282242,211.063019 219.712128,209.810394 
z"/>
<path fill="#C99B5D" opacity="1.000000" stroke="none" 
	d="
M249.687317,151.923462 
	C249.563568,152.483154 249.152527,153.172791 248.433563,153.956482 
	C248.550446,153.384842 248.975235,152.719116 249.687317,151.923462 
z"/>
<path fill="#CDCCCC" opacity="1.000000" stroke="none" 
	d="
M220.726990,205.783264 
	C220.917801,206.576691 220.764359,207.603516 220.351776,208.936127 
	C220.189346,208.166824 220.286041,207.091766 220.726990,205.783264 
z"/>
<path fill="#CDCCCC" opacity="1.000000" stroke="none" 
	d="
M221.701202,202.831207 
	C221.910049,203.357208 221.776627,204.096603 221.364670,205.105698 
	C221.177063,204.598465 221.267990,203.821533 221.701202,202.831207 
z"/>
<path fill="#CDCCCC" opacity="1.000000" stroke="none" 
	d="
M224.737869,193.742340 
	C224.936523,194.266876 224.805832,195.048584 224.378235,196.113953 
	C224.190399,195.598251 224.299469,194.798889 224.737869,193.742340 
z"/>
<path fill="#CDCCCC" opacity="1.000000" stroke="none" 
	d="
M223.734497,196.780334 
	C223.923538,197.285767 223.783035,198.015991 223.367767,199.011383 
	C223.196991,198.519394 223.300964,197.762253 223.734497,196.780334 
z"/>
<path fill="#CDCCCC" opacity="1.000000" stroke="none" 
	d="
M222.708511,199.825043 
	C222.908020,200.337357 222.770386,201.053955 222.361160,202.030579 
	C222.183502,201.536865 222.277435,200.783096 222.708511,199.825043 
z"/>
<path fill="#30363D" opacity="1.000000" stroke="none" 
	d="
M331.849915,393.347839 
	C332.028320,393.281067 332.362488,393.471741 332.878601,393.890320 
	C332.708862,393.947235 332.357269,393.776276 331.849915,393.347839 
z"/>
<path fill="#30363D" opacity="1.000000" stroke="none" 
	d="
M330.266663,392.950012 
	C330.238342,392.634369 330.490234,392.570312 330.883118,392.840759 
	C330.981049,392.953278 330.503815,392.979645 330.266663,392.950012 
z"/>
<path fill="#CDCCCC" opacity="1.000000" stroke="none" 
	d="
M225.596802,191.972351 
	C225.833801,192.259537 225.741165,192.700195 225.352020,193.332565 
	C225.126068,193.058121 225.196625,192.591965 225.596802,191.972351 
z"/>
<path fill="#F4F4F5" opacity="1.000000" stroke="none" 
	d="
M365.472931,367.403259 
	C347.536438,367.114807 330.701691,363.854309 314.738678,356.475861 
	C267.833832,334.795319 240.813965,287.552399 245.905991,236.008438 
	C251.298599,181.421783 292.104004,137.933472 346.193756,129.345612 
	C352.085022,128.410263 358.127625,128.427841 364.559448,127.929558 
	C404.037109,128.810318 436.055206,144.311783 459.730804,175.309280 
	C514.166382,246.579590 473.162354,350.427307 384.808502,365.646942 
	C378.604370,366.715668 372.226318,366.774902 365.472931,367.403259 
M448.986359,318.446747 
	C453.624573,311.365356 458.925201,304.624542 462.774017,297.137360 
	C473.399139,276.468170 476.971252,254.506851 473.147308,231.430939 
	C467.226196,195.699768 448.700043,168.584106 417.244171,150.742706 
	C395.632599,138.484848 372.047516,136.108078 347.673401,138.788361 
	C324.963287,141.285629 305.368286,150.745514 289.262634,166.472305 
	C263.720093,191.414001 252.135727,221.998077 254.923950,257.885834 
	C256.742432,281.292084 265.358276,301.814728 280.861847,319.206421 
	C298.206421,338.663300 319.708954,351.366028 345.656891,355.625000 
	C364.837585,358.773224 383.681000,357.374634 402.102539,350.569733 
	C420.250183,343.865967 435.980957,333.830231 448.986359,318.446747 
z"/>
<path fill="#30363D" opacity="1.000000" stroke="none" 
	d="
M354.834656,397.655334 
	C354.610138,397.895660 354.332214,397.776886 354.067657,397.234131 
	C354.261383,397.123199 354.494781,397.285187 354.834656,397.655334 
z"/>
<path fill="#B77839" opacity="1.000000" stroke="none" 
	d="
M232.795685,223.762512 
	C232.472992,223.759781 232.437088,223.481705 232.726349,223.081131 
	C232.855392,223.157898 232.865707,223.334076 232.795685,223.762512 
z"/>
<path fill="#000000" opacity="0.000000" stroke="none" 
	d="
M107.338615,591.586548 
	C107.903633,593.361511 108.306427,594.771545 108.831856,596.610901 
	C104.830162,596.610901 101.154625,596.610901 96.837616,596.610901 
	C98.735344,590.132202 100.523064,584.029114 102.728966,576.498352 
	C104.460045,582.229065 105.818214,586.725281 107.338615,591.586548 
z"/>
<path fill="#000000" opacity="0.000000" stroke="none" 
	d="
M566.337036,507.759247 
	C569.050659,512.869995 568.354126,517.644043 564.846313,519.983398 
	C561.717957,522.069702 556.953430,521.187195 554.681885,518.100708 
	C551.954407,514.394714 552.369507,509.443634 556.075500,506.556824 
	C559.486084,503.900177 563.033875,503.954254 566.337036,507.759247 
z"/>
<path fill="#000000" opacity="0.000000" stroke="none" 
	d="
M205.354355,508.690735 
	C207.643753,516.287842 204.802063,521.314209 198.802765,520.996399 
	C195.229019,520.807007 192.572495,519.224060 192.164017,515.560242 
	C191.746750,511.817780 191.147217,507.511108 195.805099,505.733765 
	C199.339920,504.384918 203.050827,503.920715 205.354355,508.690735 
z"/>
<path fill="#000000" opacity="0.000000" stroke="none" 
	d="
M322.058289,520.991577 
	C316.031250,519.714539 314.167145,516.923096 315.047150,510.932983 
	C315.699493,506.492554 318.521454,504.825806 322.785797,505.005157 
	C326.598114,505.165497 329.715088,508.325531 329.980530,512.412659 
	C330.286499,517.124329 327.458160,520.353455 322.058289,520.991577 
z"/>
<path fill="#000000" opacity="0.000000" stroke="none" 
	d="
M152.701355,520.976807 
	C147.079819,520.720825 144.256485,518.286499 144.000717,513.892944 
	C143.759247,509.745514 144.574036,506.216766 149.286026,505.121185 
	C153.506042,504.139954 157.347336,506.345093 158.678726,510.370697 
	C160.099487,514.666443 158.006317,518.643005 152.701355,520.976807 
z"/>
<path fill="#000000" opacity="0.000000" stroke="none" 
	d="
M200.367065,606.733276 
	C195.649307,607.777039 192.416443,605.726318 191.737808,601.838013 
	C191.210434,598.816284 191.812012,594.673035 193.644516,592.468689 
	C195.008438,590.827942 199.531342,590.505127 201.924774,591.441772 
	C203.843643,592.192688 205.339890,595.582825 205.840912,598.042542 
	C206.649216,602.010925 204.555405,604.999023 200.367065,606.733276 
z"/>
<path fill="#000000" opacity="0.000000" stroke="none" 
	d="
M496.583374,519.645020 
	C492.933167,521.706543 488.923645,521.748291 487.606293,518.426758 
	C486.320404,515.184509 486.927490,510.886261 487.752045,507.292145 
	C488.010437,506.165924 492.037140,504.788055 493.677673,505.374695 
	C495.777283,506.125488 498.338348,508.572052 498.652222,510.604218 
	C499.082245,513.388550 497.587463,516.470032 496.583374,519.645020 
z"/>
<path fill="#000000" opacity="0.000000" stroke="none" 
	d="
M249.739212,518.702271 
	C243.840485,522.226929 239.563339,521.144409 238.551483,515.409729 
	C238.071243,512.687927 239.425461,508.868652 241.314758,506.785583 
	C242.495529,505.483704 247.396866,505.434662 248.540573,506.704376 
	C250.383865,508.750641 250.666245,512.317810 251.253357,515.312134 
	C251.433899,516.232971 250.456848,517.380859 249.739212,518.702271 
z"/>
<path fill="#000000" opacity="0.000000" stroke="none" 
	d="
M638.922974,606.108765 
	C637.058716,603.634583 634.648132,601.390442 634.266174,598.842224 
	C633.595703,594.369507 637.689575,590.660828 641.786560,591.026794 
	C646.007812,591.403870 648.622742,595.238464 647.964600,600.086365 
	C647.330444,604.757324 643.999329,607.105774 638.922974,606.108765 
z"/>
<path fill="#000000" opacity="0.000000" stroke="none" 
	d="
M393.920776,505.035645 
	C399.196014,505.937958 400.671173,509.639038 400.396545,513.737061 
	C400.146790,517.464050 398.198425,521.497498 393.787506,520.683960 
	C391.261108,520.218018 388.063080,517.261841 387.280487,514.764648 
	C385.708252,509.747559 388.247253,506.627350 393.920776,505.035645 
z"/>
<path fill="#000000" opacity="0.000000" stroke="none" 
	d="
M600.662720,505.752319 
	C603.038025,504.495331 605.243225,502.891754 607.443115,502.898895 
	C609.082947,502.904266 610.715881,504.992798 612.351929,506.153625 
	C612.119690,506.731384 611.887451,507.309113 611.655212,507.886871 
	C608.273560,507.886871 604.889832,507.941010 601.513428,507.808411 
	C601.150635,507.794159 600.830383,506.693817 600.662720,505.752319 
z"/>
<path fill="#000000" opacity="0.000000" stroke="none" 
	d="
M446.891235,593.957336 
	C443.135956,593.986023 439.765137,593.986023 435.994385,593.986023 
	C436.880524,589.224121 439.533020,587.814819 443.114838,588.218994 
	C446.276276,588.575745 447.826233,591.025269 446.891235,593.957336 
z"/>
<path fill="#FCFBFB" opacity="1.000000" stroke="none" 
	d="
M448.745880,318.710785 
	C435.980957,333.830231 420.250183,343.865967 402.102539,350.569733 
	C383.681000,357.374634 364.837585,358.773224 345.656891,355.625000 
	C319.708954,351.366028 298.206421,338.663300 280.861847,319.206421 
	C265.358276,301.814728 256.742432,281.292084 254.923950,257.885834 
	C252.135727,221.998077 263.720093,191.414001 289.262634,166.472305 
	C305.368286,150.745514 324.963287,141.285629 347.673401,138.788361 
	C372.047516,136.108078 395.632599,138.484848 417.244171,150.742706 
	C448.700043,168.584106 467.226196,195.699768 473.147308,231.430939 
	C476.971252,254.506851 473.399139,276.468170 462.774017,297.137360 
	C458.925201,304.624542 453.624573,311.365356 448.745880,318.710785 
M376.195404,151.953445 
	C372.391510,151.731323 368.587616,151.509201 363.924164,151.200302 
	C334.552185,152.141220 309.958923,163.131165 290.324066,186.148300 
	C284.998230,195.786774 279.672394,205.425247 273.984131,215.748703 
	C272.333160,225.496292 270.682159,235.243866 268.849823,245.908936 
	C269.861542,254.343857 270.873230,262.778778 271.845978,271.990295 
	C274.239624,278.324646 276.633270,284.658997 279.092682,291.693298 
	C283.830963,298.456879 288.569275,305.220490 293.581787,312.562439 
	C300.372284,318.074036 307.162811,323.585602 314.367981,329.645355 
	C338.315826,343.526733 363.713501,346.675049 391.163879,339.930450 
	C398.133698,336.997498 405.103485,334.064514 412.766113,331.020233 
	C417.846680,327.338104 422.927246,323.655975 428.641022,319.759491 
	C439.201965,310.272675 447.709717,299.311127 453.348602,285.400116 
	C455.551025,276.598267 457.753448,267.796387 460.190887,258.190338 
	C460.369629,253.456177 460.548370,248.722031 460.839294,243.144791 
	C460.053558,230.617386 457.604919,218.461487 452.055786,207.131226 
	C440.727875,184.001770 423.535797,167.092056 398.595795,157.462662 
	C391.408630,155.693039 384.221497,153.923431 376.195404,151.953445 
z"/>
<path fill="#20A9FC" opacity="1.000000" stroke="none" 
	d="
M399.161743,157.950821 
	C423.535797,167.092056 440.727875,184.001770 452.055786,207.131226 
	C457.604919,218.461487 460.053558,230.617386 460.421509,243.550537 
	C457.063141,242.915848 453.949036,242.206650 451.214111,240.773712 
	C442.534180,236.225967 433.092407,232.774307 426.975037,224.345154 
	C426.130585,223.181595 424.245575,222.773224 422.592834,221.790222 
	C418.389282,212.564606 412.229767,205.234299 404.994171,198.338593 
	C403.969055,193.993759 402.973358,190.007004 402.282166,185.842194 
	C406.499481,183.557999 408.631683,180.291840 408.355499,175.842377 
	C408.033417,170.653549 404.672333,168.015839 399.785461,166.616821 
	C399.099121,166.564270 398.574768,166.665543 397.697205,166.898560 
	C396.604309,167.173737 395.864624,167.317139 395.101501,167.029388 
	C395.767334,163.398438 394.578094,159.311508 399.161743,157.950821 
z"/>
<path fill="#F9A813" opacity="1.000000" stroke="none" 
	d="
M290.964905,185.895523 
	C309.958923,163.131165 334.552185,152.141220 364.359100,151.692596 
	C364.789642,163.013748 364.785248,173.842590 364.343262,184.716110 
	C349.713959,184.926056 336.964294,189.263229 325.681519,197.907578 
	C324.928680,198.484390 323.931671,198.742615 322.766357,198.888824 
	C318.314880,197.920242 314.167206,196.861160 309.969818,196.599609 
	C305.548370,196.324097 301.070709,197.050354 296.634064,196.888336 
	C293.082977,196.758682 290.781097,194.858521 290.987366,190.855560 
	C291.072327,189.206985 290.977783,187.549149 290.964905,185.895523 
z"/>
<path fill="#2174CA" opacity="1.000000" stroke="none" 
	d="
M452.908691,285.972992 
	C447.709717,299.311127 439.201965,310.272675 427.972839,319.818878 
	C420.111755,314.647034 412.792877,309.575104 405.823151,304.061768 
	C404.266693,302.830536 403.936249,300.049438 403.204956,297.696136 
	C413.604980,289.711212 420.250488,279.412750 424.956299,268.030762 
	C426.336182,270.036652 427.329987,272.258728 429.035187,273.223602 
	C436.884430,277.665283 444.932159,281.756256 452.908691,285.972992 
z"/>
<path fill="#FE591E" opacity="1.000000" stroke="none" 
	d="
M313.953339,329.097168 
	C307.162811,323.585602 300.372284,318.074036 293.842133,312.275604 
	C296.384857,311.822784 298.665161,311.554810 300.949982,311.507690 
	C314.304474,311.232300 327.663635,311.113861 341.011322,310.654877 
	C343.032166,310.585419 345.001312,309.012909 347.392151,308.129364 
	C357.742432,310.790558 367.793488,310.657928 377.981873,309.524170 
	C379.075592,312.505798 380.079254,315.145660 381.037415,318.175751 
	C379.581390,319.702423 378.320953,321.473114 376.730652,321.849304 
	C372.885651,322.758911 368.901276,323.232208 364.947266,323.499573 
	C352.082642,324.369446 339.206482,325.572754 326.334747,325.572876 
	C321.498138,325.572937 317.618378,326.256378 313.953339,329.097168 
z"/>
<path fill="#FD5129" opacity="1.000000" stroke="none" 
	d="
M314.160645,329.371277 
	C317.618378,326.256378 321.498138,325.572937 326.334747,325.572876 
	C339.206482,325.572754 352.082642,324.369446 364.947266,323.499573 
	C368.901276,323.232208 372.885651,322.758911 376.730652,321.849304 
	C378.320953,321.473114 379.581390,319.702423 381.294922,318.428284 
	C384.548157,325.501251 387.498383,332.711914 390.448608,339.922546 
	C363.713501,346.675049 338.315826,343.526733 314.160645,329.371277 
z"/>
<path fill="#FA9D12" opacity="1.000000" stroke="none" 
	d="
M290.644470,186.021912 
	C290.977783,187.549149 291.072327,189.206985 290.987366,190.855560 
	C290.781097,194.858521 293.082977,196.758682 296.634064,196.888336 
	C301.070709,197.050354 305.548370,196.324097 309.969818,196.599609 
	C314.167206,196.861160 318.314880,197.920242 322.628052,199.189514 
	C314.952942,207.224899 309.179413,216.081039 304.935303,225.660461 
	C300.310089,224.099792 295.761841,221.889282 291.229858,221.922226 
	C281.548492,221.992599 277.146912,221.767181 274.346558,215.063736 
	C279.672394,205.425247 284.998230,195.786774 290.644470,186.021912 
z"/>
<path fill="#FE6116" opacity="1.000000" stroke="none" 
	d="
M346.994385,308.135620 
	C345.001312,309.012909 343.032166,310.585419 341.011322,310.654877 
	C327.663635,311.113861 314.304474,311.232300 300.949982,311.507690 
	C298.665161,311.554810 296.384857,311.822784 293.705017,311.986420 
	C288.569275,305.220490 283.830963,298.456879 279.526733,291.345398 
	C292.989746,291.318054 306.018646,291.638550 319.355530,292.091614 
	C327.412415,299.866425 336.194275,305.734406 346.994385,308.135620 
z"/>
<path fill="#2091E7" opacity="1.000000" stroke="none" 
	d="
M453.128662,285.686554 
	C444.932159,281.756256 436.884430,277.665283 429.035187,273.223602 
	C427.329987,272.258728 426.336182,270.036652 424.940125,267.643677 
	C425.869812,258.930237 426.874084,250.966782 428.233734,243.058624 
	C439.044708,248.407471 449.500305,253.701004 459.955872,258.994537 
	C457.753448,267.796387 455.551025,276.598267 453.128662,285.686554 
z"/>
<path fill="#FB8E13" opacity="1.000000" stroke="none" 
	d="
M274.165344,215.406219 
	C277.146912,221.767181 281.548492,221.992599 291.229858,221.922226 
	C295.761841,221.889282 300.310089,224.099792 304.936554,226.053986 
	C303.945221,235.205490 302.868286,243.596573 301.597534,251.678467 
	C301.217865,246.528015 297.539612,246.255096 294.111847,246.062378 
	C285.757965,245.592682 277.392181,245.334686 269.031189,244.991455 
	C270.682159,235.243866 272.333160,225.496292 274.165344,215.406219 
z"/>
<path fill="#FD7D14" opacity="1.000000" stroke="none" 
	d="
M268.940491,245.450195 
	C277.392181,245.334686 285.757965,245.592682 294.111847,246.062378 
	C297.539612,246.255096 301.217865,246.528015 301.693848,252.100098 
	C303.260712,258.885529 304.537415,264.940216 305.371918,270.996948 
	C295.081268,270.621246 285.234161,270.194885 275.382690,269.930939 
	C274.229034,269.900024 273.051422,270.764374 271.884918,271.213684 
	C270.873230,262.778778 269.861542,254.343857 268.940491,245.450195 
z"/>
<path fill="#FE6E14" opacity="1.000000" stroke="none" 
	d="
M271.865448,271.601990 
	C273.051422,270.764374 274.229034,269.900024 275.382690,269.930939 
	C285.234161,270.194885 295.081268,270.621246 305.514587,271.346008 
	C310.415497,278.448364 314.731537,285.203735 319.047577,291.959076 
	C306.018646,291.638550 292.989746,291.318054 279.493866,290.995422 
	C276.633270,284.658997 274.239624,278.324646 271.865448,271.601990 
z"/>
<path fill="#2150A6" opacity="1.000000" stroke="none" 
	d="
M390.806244,339.926514 
	C387.498383,332.711914 384.548157,325.501251 381.340424,318.038086 
	C380.079254,315.145660 379.075592,312.505798 378.354553,309.394836 
	C382.761993,307.646179 386.886841,306.368591 391.011169,305.472870 
	C392.127441,308.172485 392.810486,310.882324 394.465729,312.713196 
	C396.771545,315.263733 400.098358,316.881256 402.457367,319.396088 
	C405.909546,323.076355 408.891144,327.197998 412.073303,331.131561 
	C405.103485,334.064514 398.133698,336.997498 390.806244,339.926514 
z"/>
<path fill="#209CF2" opacity="1.000000" stroke="none" 
	d="
M398.878784,157.706741 
	C394.578094,159.311508 395.767334,163.398438 394.870972,167.255524 
	C389.077728,172.045792 387.732269,177.164230 390.978973,181.897400 
	C393.685028,185.842361 397.686035,186.314621 401.977661,186.020264 
	C402.973358,190.007004 403.969055,193.993759 404.697327,198.203796 
	C396.221924,194.322067 388.013916,190.217010 380.172943,185.976089 
	C380.900970,183.714981 382.168945,181.209396 381.464966,179.530746 
	C378.519226,172.506226 379.159882,165.231308 378.908752,157.969574 
	C378.841034,156.011734 377.688751,154.091385 377.034332,152.153824 
	C384.221497,153.923431 391.408630,155.693039 398.878784,157.706741 
z"/>
<path fill="#209CF2" opacity="1.000000" stroke="none" 
	d="
M460.073364,258.592438 
	C449.500305,253.701004 439.044708,248.407471 428.079529,242.701141 
	C425.994049,235.530640 424.418182,228.772934 422.842285,222.015228 
	C424.245575,222.773224 426.130585,223.181595 426.975037,224.345154 
	C433.092407,232.774307 442.534180,236.225967 451.214111,240.773712 
	C453.949036,242.206650 457.063141,242.915848 460.365417,243.972076 
	C460.548370,248.722031 460.369629,253.456177 460.073364,258.592438 
z"/>
<path fill="#2091E7" opacity="1.000000" stroke="none" 
	d="
M376.614868,152.053635 
	C377.688751,154.091385 378.841034,156.011734 378.908752,157.969574 
	C379.159882,165.231308 378.519226,172.506226 381.464966,179.530746 
	C382.168945,181.209396 380.900970,183.714981 379.754944,185.999420 
	C374.240234,185.662903 369.510529,185.167175 364.780823,184.671448 
	C364.785248,173.842590 364.789642,163.013748 364.788879,151.735992 
	C368.587616,151.509201 372.391510,151.731323 376.614868,152.053635 
z"/>
<path fill="#205EB5" opacity="1.000000" stroke="none" 
	d="
M412.419708,331.075897 
	C408.891144,327.197998 405.909546,323.076355 402.457367,319.396088 
	C400.098358,316.881256 396.771545,315.263733 394.465729,312.713196 
	C392.810486,310.882324 392.127441,308.172485 391.281799,305.253174 
	C395.382355,302.428345 399.211853,300.205109 403.041351,297.981873 
	C403.936249,300.049438 404.266693,302.830536 405.823151,304.061768 
	C412.792877,309.575104 420.111755,314.647034 427.656219,319.926086 
	C422.927246,323.655975 417.846680,327.338104 412.419708,331.075897 
z"/>
<path fill="#FDFDFD" opacity="1.000000" stroke="none" 
	d="
M403.204956,297.696136 
	C399.211853,300.205109 395.382355,302.428345 391.282257,304.871277 
	C386.886841,306.368591 382.761993,307.646179 378.264465,309.053131 
	C367.793488,310.657928 357.742432,310.790558 347.392151,308.129364 
	C336.194275,305.734406 327.412415,299.866425 319.355530,292.091614 
	C314.731537,285.203735 310.415497,278.448364 305.956787,271.343933 
	C304.537415,264.940216 303.260712,258.885529 301.887665,252.409256 
	C302.868286,243.596573 303.945221,235.205490 305.020874,226.420914 
	C309.179413,216.081039 314.952942,207.224899 322.909943,199.449707 
	C323.931671,198.742615 324.928680,198.484390 325.681519,197.907578 
	C336.964294,189.263229 349.713959,184.926056 364.343262,184.716110 
	C369.510529,185.167175 374.240234,185.662903 379.387939,186.135284 
	C388.013916,190.217010 396.221924,194.322067 404.726746,198.561905 
	C412.229767,205.234299 418.389282,212.564606 422.592834,221.790222 
	C424.418182,228.772934 425.994049,235.530640 427.724121,242.645844 
	C426.874084,250.966782 425.869812,258.930237 424.881714,267.280823 
	C420.250488,279.412750 413.604980,289.711212 403.204956,297.696136 
M328.807037,262.821838 
	C326.577789,263.938934 324.417450,265.233124 322.103729,266.133026 
	C318.304840,267.610596 318.036224,269.989838 319.844910,273.177765 
	C320.333557,274.039001 320.676636,274.982758 321.031647,276.651520 
	C321.226715,277.875580 321.421814,279.099640 321.707733,280.893677 
	C333.172363,275.025208 344.065765,269.353638 355.073608,263.913544 
	C356.800049,263.060364 359.149231,262.710754 361.033508,263.066254 
	C368.626984,264.498993 374.463684,261.142578 377.182678,254.093399 
	C378.824615,249.836533 381.003845,245.668716 383.610016,241.926285 
	C389.217957,233.873245 395.313782,226.161331 401.054565,218.197784 
	C401.824219,217.130142 401.693542,215.413467 402.023163,213.321671 
	C402.050049,213.097595 402.076965,212.873505 401.730316,212.092773 
	C400.123077,212.198914 398.157104,211.744675 396.968842,212.505310 
	C390.852234,216.420822 384.861725,220.546387 378.974945,224.803009 
	C375.155273,227.564972 371.588684,230.677002 367.057678,233.781174 
	C365.029968,233.801254 363.002228,233.821335 360.462250,233.438705 
	C355.385406,233.583939 351.576324,236.286987 350.338593,240.833908 
	C348.872528,246.219589 345.075623,248.941895 341.167206,252.034775 
	C337.069336,255.277573 333.284546,258.916016 328.807037,262.821838 
z"/>
<path fill="#FE6E14" opacity="1.000000" stroke="none" 
	d="
M402.282166,185.842194 
	C397.686035,186.314621 393.685028,185.842361 390.978973,181.897400 
	C387.732269,177.164230 389.077728,172.045792 394.894440,167.686676 
	C395.864624,167.317139 396.604309,167.173737 398.009674,166.979034 
	C399.099426,166.875366 399.523468,166.822998 399.947510,166.770615 
	C404.672333,168.015839 408.033417,170.653549 408.355499,175.842377 
	C408.631683,180.291840 406.499481,183.557999 402.282166,185.842194 
z"/>
<path fill="#209CF2" opacity="1.000000" stroke="none" 
	d="
M399.785461,166.616821 
	C399.523468,166.822998 399.099426,166.875366 398.362915,166.847290 
	C398.574768,166.665543 399.099121,166.564270 399.785461,166.616821 
z"/>
<path fill="#30363D" opacity="1.000000" stroke="none" 
	d="
M360.974518,233.841431 
	C363.002228,233.821335 365.029968,233.801254 367.727783,233.929031 
	C370.152100,233.674606 371.906311,233.272339 373.934174,233.111725 
	C375.114075,235.509735 376.020264,237.666092 376.745667,240.207153 
	C376.547424,242.197815 376.451050,243.807465 376.525909,245.409119 
	C376.869171,252.752304 371.332306,259.352966 364.443848,257.846283 
	C358.264343,256.494629 354.411743,259.318024 349.957489,261.941437 
	C346.957977,263.708069 343.933289,265.431915 340.634735,266.975464 
	C339.202484,264.175171 338.055389,261.574310 337.134277,258.720703 
	C341.609955,255.338409 345.900909,252.262451 350.081482,249.043213 
	C351.182709,248.195221 352.701813,246.925385 352.732666,245.813263 
	C352.896210,239.923691 356.351410,236.533417 360.974518,233.841431 
z"/>
<path fill="#CDCCCC" opacity="1.000000" stroke="none" 
	d="
M340.919861,267.174896 
	C343.933289,265.431915 346.957977,263.708069 349.957489,261.941437 
	C354.411743,259.318024 358.264343,256.494629 364.443848,257.846283 
	C371.332306,259.352966 376.869171,252.752304 376.525909,245.409119 
	C376.451050,243.807465 376.547424,242.197815 377.038025,240.057037 
	C385.667358,231.013947 393.823578,222.505661 401.979828,213.997360 
	C401.693542,215.413467 401.824219,217.130142 401.054565,218.197784 
	C395.313782,226.161331 389.217957,233.873245 383.610016,241.926285 
	C381.003845,245.668716 378.824615,249.836533 377.182678,254.093399 
	C374.463684,261.142578 368.626984,264.498993 361.033508,263.066254 
	C359.149231,262.710754 356.800049,263.060364 355.073608,263.913544 
	C344.065765,269.353638 333.172363,275.025208 321.707733,280.893677 
	C321.421814,279.099640 321.226715,277.875580 321.335022,276.469910 
	C322.812805,276.578400 324.253265,277.443085 325.109619,277.046509 
	C327.314789,276.025360 329.261383,274.445740 331.613159,273.008270 
	C333.316650,271.996460 334.718353,271.065613 336.429993,270.038696 
	C338.133270,269.020020 339.526581,268.097473 340.919861,267.174896 
z"/>
<path fill="#323538" opacity="1.000000" stroke="none" 
	d="
M402.001495,213.659515 
	C393.823578,222.505661 385.667358,231.013947 377.218781,239.672348 
	C376.020264,237.666092 375.114075,235.509735 374.099976,232.804047 
	C377.096558,229.824661 380.084167,227.223999 383.330505,225.001205 
	C389.510223,220.769913 395.837708,216.754471 402.103851,212.649414 
	C402.076965,212.873505 402.050049,213.097595 402.001495,213.659515 
z"/>
<path fill="#CDCCCC" opacity="1.000000" stroke="none" 
	d="
M360.718384,233.640076 
	C356.351410,236.533417 352.896210,239.923691 352.732666,245.813263 
	C352.701813,246.925385 351.182709,248.195221 350.081482,249.043213 
	C345.900909,252.262451 341.609955,255.338409 336.866638,258.773651 
	C335.602264,259.570709 334.831543,260.062042 333.756226,260.683716 
	C332.951813,261.209625 332.451996,261.605255 331.973969,262.008789 
	C331.995758,262.016693 331.988159,261.971954 331.652740,261.952026 
	C330.665833,262.081879 330.014374,262.231689 329.362885,262.381531 
	C333.284546,258.916016 337.069336,255.277573 341.167206,252.034775 
	C345.075623,248.941895 348.872528,246.219589 350.338593,240.833908 
	C351.576324,236.286987 355.385406,233.583939 360.718384,233.640076 
z"/>
<path fill="#FE6E14" opacity="1.000000" stroke="none" 
	d="
M329.084961,262.601685 
	C330.014374,262.231689 330.665833,262.081879 331.772583,262.283508 
	C332.206726,263.104279 332.185638,263.573578 331.833496,264.184387 
	C327.631409,267.163940 329.306702,270.123016 331.311310,273.089264 
	C329.261383,274.445740 327.314789,276.025360 325.109619,277.046509 
	C324.253265,277.443085 322.812805,276.578400 321.362488,276.088440 
	C320.676636,274.982758 320.333557,274.039001 319.844910,273.177765 
	C318.036224,269.989838 318.304840,267.610596 322.103729,266.133026 
	C324.417450,265.233124 326.577789,263.938934 329.084961,262.601685 
z"/>
<path fill="#CDCCCC" opacity="1.000000" stroke="none" 
	d="
M401.917084,212.371094 
	C395.837708,216.754471 389.510223,220.769913 383.330505,225.001205 
	C380.084167,227.223999 377.096558,229.824661 373.826294,232.562378 
	C371.906311,233.272339 370.152100,233.674606 368.153320,233.854538 
	C371.588684,230.677002 375.155273,227.564972 378.974945,224.803009 
	C384.861725,220.546387 390.852234,216.420822 396.968842,212.505310 
	C398.157104,211.744675 400.123077,212.198914 401.917084,212.371094 
z"/>
<path fill="#88613E" opacity="1.000000" stroke="none" 
	d="
M332.164551,264.042908 
	C332.185638,263.573578 332.206726,263.104279 332.107971,262.303467 
	C331.988159,261.971954 331.995758,262.016693 332.330780,262.026733 
	C333.130798,261.542328 333.595795,261.047882 334.060791,260.553406 
	C334.831543,260.062042 335.602264,259.570709 336.640625,259.026428 
	C338.055389,261.574310 339.202484,264.175171 340.634735,266.975464 
	C339.526581,268.097473 338.133270,269.020020 336.336182,269.690552 
	C334.676453,267.639984 333.420502,265.841431 332.164551,264.042908 
z"/>
<path fill="#B77839" opacity="1.000000" stroke="none" 
	d="
M331.833527,264.184387 
	C333.420502,265.841431 334.676453,267.639984 336.026215,269.786682 
	C334.718353,271.065613 333.316650,271.996460 331.613159,273.008270 
	C329.306702,270.123016 327.631409,267.163940 331.833527,264.184387 
z"/>
<path fill="#FE6E14" opacity="1.000000" stroke="none" 
	d="
M333.756226,260.683716 
	C333.595795,261.047882 333.130798,261.542328 332.308990,262.018860 
	C332.451996,261.605255 332.951813,261.209625 333.756226,260.683716 
z"/>
</svg>