<svg id="Capa_1" data-name="Capa 1" xmlns="http://www.w3.org/2000/svg" width="4.73cm" height="5.08cm" viewBox="0 0 134 144">
  <defs>
    <style>
      .cls-1 {
        fill: #fff;
      }
    </style>
  </defs>
  <title>facebook</title>
  <path class="cls-1" d="M131.18,60.77c-3.66-19.54-14-34.49-31-44.82a62.11,62.11,0,0,0-36-9.09C45.79,7.76,30.33,15.19,18,29A62.23,62.23,0,0,0,2.12,65.44C.24,86.05,6.7,103.84,21.35,118.49a63.46,63.46,0,0,0,35.26,17.89c2.17.37,4.36.56,6.54.84H70.8c2.47-.34,5-.58,7.41-1a63.93,63.93,0,0,0,37.29-20.72,64.44,64.44,0,0,0,16.38-36.91c.11-.92.21-1.83.32-2.75V68.18C131.86,65.71,131.64,63.22,131.18,60.77Zm-48,13.49H72.6V112H56.91V74.36H49.49V60.94h7.35c0-2.68-.13-5.22,0-7.75a32.08,32.08,0,0,1,1-7,12.46,12.46,0,0,1,11.18-9.39c5-.54,10.06-.38,15.17-.53V49.42c-1.43,0-2.81,0-4.2,0s-3,0-4.45.09a2.87,2.87,0,0,0-3,3c-.11,2.75,0,5.51,0,8.46H84.56C84.1,65.44,83.66,69.77,83.2,74.26Z"/>
</svg>
