<svg id="Capa_1" data-name="Capa 1" xmlns="http://www.w3.org/2000/svg" viewBox="0 0 134 144"><defs><style>.cls-1{fill:#fff;}</style></defs><title>linkedin</title><path class="cls-1" d="M104,103.1V77.33c0-13.8-7.37-20.23-17.19-20.23a14.82,14.82,0,0,0-13.46,7.42V58.16H58.45c.2,4.22,0,44.94,0,44.94H73.38V78a10.19,10.19,0,0,1,.49-3.64,8.17,8.17,0,0,1,7.66-5.46c5.41,0,7.57,4.12,7.57,10.16v24H104ZM42.71,52c5.21,0,8.45-3.45,8.45-7.77s-3.24-7.76-8.35-7.76-8.45,3.35-8.45,7.76S37.6,52,42.62,52ZM67,138a66,66,0,1,1,66-66A66,66,0,0,1,67,138ZM50.18,103.1V58.16H35.24V103.1Z"/></svg>