<?xml version="1.0" standalone="no"?>
<!DOCTYPE svg PUBLIC "-//W3C//DTD SVG 20010904//EN"
 "http://www.w3.org/TR/2001/REC-SVG-20010904/DTD/svg10.dtd">
<svg version="1.0" xmlns="http://www.w3.org/2000/svg"
 width="225.000000pt" height="225.000000pt" viewBox="0 0 225.000000 225.000000"
 preserveAspectRatio="xMidYMid meet">

<g transform="translate(0.000000,225.000000) scale(0.100000,-0.100000)"
fill="#000000" stroke="none">
<path d="M580 1645 c0 -3 91 -128 203 -278 112 -149 206 -277 210 -284 4 -7
-74 -99 -204 -240 l-211 -228 43 -3 44 -4 120 129 c66 70 152 161 191 202 l71
74 152 -201 151 -202 166 0 165 0 -57 78 c-32 42 -133 178 -226 301 l-168 225
28 30 c130 143 294 319 331 359 l45 47 -50 0 -50 0 -169 -185 c-94 -101 -173
-185 -177 -185 -4 0 -70 83 -145 185 l-138 184 -162 1 c-90 0 -163 -2 -163 -5z
m416 -237 c71 -95 222 -298 336 -450 l208 -278 -77 0 -78 1 -330 441 c-181
243 -331 445 -333 450 -2 4 30 8 71 8 l75 0 128 -172z"/>
</g>
</svg>
