<svg id="Capa_1" data-name="Capa 1" xmlns="http://www.w3.org/2000/svg" width="4.73cm" height="5.08cm" viewBox="0 0 134 144">
  <defs>
    <style>
      .cls-1 {
        fill: #fff;
      }
    </style>
  </defs>
  <title>Youtube</title>
  <g>
    <path class="cls-1" d="M57.2,90.82,88.35,73.07,57.2,55.33Z"/>
    <path class="cls-1" d="M67,6.8A65.2,65.2,0,1,0,132.2,72,65.2,65.2,0,0,0,67,6.8ZM110.72,88c0,.17-.07.34-.09.52-.68,6.92-6.22,13-14.09,12.85-4.31-.1-8.63,0-12.94,0q-23.29,0-46.58,0a12.36,12.36,0,0,1-3.67-.54c-5.16-1.64-8.19-5.28-9.5-10.46-.17-.7-.25-1.42-.38-2.13V58c0-.14.07-.28.09-.42a14.18,14.18,0,0,1,1.18-4.43,13.47,13.47,0,0,1,9.48-8c.7-.17,1.43-.23,2.14-.35H97.73a23.06,23.06,0,0,1,3.13.59C106,47,109,50.64,110.33,55.81c.19.73.27,1.49.39,2.23Z"/>
  </g>
</svg>
